if (_typeface_js && _typeface_js.loadFace) _typeface_js.loadFace({"glyphs":{"0":{"ha":789,"x_min":71,"x_max":718,"o":"m 718 415 q 638 95 718 203 q 395 -13 558 -13 q 154 92 235 -13 q 71 404 73 198 l 71 575 q 151 895 71 788 q 394 1001 230 1001 q 636 897 556 1001 q 718 586 715 794 l 718 415 m 552 600 q 515 804 552 739 q 394 869 477 869 q 275 807 313 869 q 235 616 237 746 l 235 392 q 274 186 235 254 q 395 118 313 118 q 513 181 475 118 q 552 377 551 244 l 552 600 z "},"1":{"ha":789,"x_min":114,"x_max":520,"o":"m 520 0 l 356 0 l 356 793 l 114 710 l 114 849 l 499 991 l 520 991 l 520 0 z "},"2":{"ha":789,"x_min":55,"x_max":738,"o":"m 738 0 l 74 0 l 74 113 l 403 472 q 504 604 474 551 q 534 711 534 658 q 495 825 534 782 q 388 869 455 869 q 264 820 308 869 q 220 686 220 771 l 55 686 q 96 849 55 777 q 213 961 137 921 q 390 1001 290 1001 q 616 929 533 1001 q 699 729 699 857 q 658 574 699 655 q 521 390 616 493 l 280 131 l 738 131 l 738 0 z "},"3":{"ha":789,"x_min":54,"x_max":709,"o":"m 265 569 l 365 569 q 485 608 441 569 q 530 720 530 647 q 493 830 530 791 q 380 869 456 869 q 271 830 313 869 q 228 730 228 792 l 63 730 q 104 869 63 806 q 216 966 144 931 q 378 1001 289 1001 q 610 927 526 1001 q 694 720 694 852 q 652 595 694 654 q 542 506 610 537 q 666 419 624 479 q 709 277 709 359 q 618 65 709 144 q 378 -13 527 -13 q 145 62 235 -13 q 54 265 54 138 l 218 265 q 262 159 218 199 q 380 118 306 118 q 501 159 456 118 q 545 277 545 199 q 499 397 545 355 q 362 439 453 439 l 265 439 l 265 569 z "},"4":{"ha":789,"x_min":35,"x_max":754,"o":"m 631 352 l 754 352 l 754 220 l 631 220 l 631 0 l 467 0 l 467 220 l 40 220 l 35 320 l 461 987 l 631 987 l 631 352 m 208 352 l 467 352 l 467 765 l 455 742 l 208 352 z "},"5":{"ha":789,"x_min":88,"x_max":734,"o":"m 118 490 l 172 987 l 702 987 l 702 845 l 309 845 l 282 609 q 436 648 350 648 q 655 558 577 648 q 734 316 734 468 q 647 76 734 165 q 409 -13 560 -13 q 184 63 273 -13 q 88 266 95 140 l 247 266 q 298 156 256 194 q 408 118 340 118 q 527 172 484 118 q 569 320 569 227 q 522 463 569 410 q 393 515 475 515 q 317 503 348 515 q 249 457 286 492 l 118 490 z "},"6":{"ha":789,"x_min":80,"x_max":732,"o":"m 586 992 l 586 856 l 566 856 q 345 780 428 854 q 247 570 263 706 q 449 654 326 654 q 656 562 581 654 q 732 323 732 469 q 643 80 732 173 q 411 -13 555 -13 q 171 96 263 -13 q 80 382 80 205 l 80 438 q 206 845 80 698 q 569 992 332 992 l 586 992 m 410 521 q 310 490 355 521 q 244 409 265 460 l 244 359 q 290 184 244 249 q 410 119 336 119 q 526 174 483 119 q 568 319 568 229 q 525 465 568 408 q 410 521 482 521 z "},"7":{"ha":789,"x_min":47,"x_max":731,"o":"m 731 896 l 336 0 l 164 0 l 557 855 l 47 855 l 47 987 l 731 987 l 731 896 z "},"8":{"ha":789,"x_min":71,"x_max":718,"o":"m 696 727 q 658 598 696 655 q 557 509 621 541 q 676 410 634 473 q 718 269 718 348 q 629 63 718 139 q 395 -13 541 -13 q 159 63 247 -13 q 71 269 71 140 q 113 412 71 348 q 230 509 155 475 q 130 598 167 541 q 93 727 93 655 q 174 927 93 853 q 394 1001 256 1001 q 614 927 533 1001 q 696 727 696 853 m 552 277 q 509 396 552 350 q 393 441 465 441 q 278 396 321 441 q 235 277 235 351 q 278 161 235 205 q 395 118 320 118 q 511 160 469 118 q 552 277 552 202 m 532 721 q 494 827 532 785 q 394 869 457 869 q 294 829 331 869 q 258 721 258 789 q 295 613 258 653 q 395 573 331 573 q 495 613 458 573 q 532 721 532 653 z "},"9":{"ha":789,"x_min":63,"x_max":706,"o":"m 541 413 q 348 326 458 326 q 140 417 218 326 q 63 657 63 508 q 103 834 63 754 q 214 957 142 913 q 383 1001 287 1001 q 619 890 532 1001 q 706 592 706 778 l 706 546 q 586 139 706 279 q 226 -4 465 -2 l 206 -4 l 206 132 l 230 132 q 454 203 376 134 q 541 413 532 271 m 383 455 q 475 483 432 455 q 542 561 519 511 l 542 626 q 498 801 542 735 q 382 868 453 868 q 268 809 311 868 q 226 661 226 751 q 269 511 226 568 q 383 455 311 455 z "},"\u001d":{"ha":776,"x_min":64,"x_max":711,"o":"m 64 -229 l 64 912 l 711 912 l 711 -229 l 64 -229 m 137 -157 l 639 -157 l 639 839 l 137 839 l 137 -157 z "},"\u0000":{"ha":0,"x_min":0,"x_max":0,"o":""},"﻿":{"ha":0,"x_min":0,"x_max":0,"o":""}," ":{"ha":439,"x_min":0,"x_max":0,"o":""}," ":{"ha":439,"x_min":0,"x_max":0,"o":""},"ء":{"ha":615,"x_min":59,"x_max":546,"o":"m 59 -32 l 62 102 l 181 134 q 131 181 153 156 q 99 239 109 206 q 89 300 89 269 q 97 355 89 319 q 135 431 104 390 q 212 496 165 471 q 313 521 258 521 q 345 520 329 521 q 379 514 360 518 q 419 505 397 511 q 467 494 440 500 l 439 380 q 366 393 396 389 q 312 396 335 396 q 237 370 266 396 q 199 300 208 343 q 219 254 205 273 q 253 222 233 235 q 296 203 272 209 q 344 197 319 197 q 392 202 366 197 q 444 216 418 208 q 497 233 471 223 q 544 249 522 242 l 546 114 l 59 -32 z "},"ﺀ":{"ha":615,"x_min":59,"x_max":546,"o":"m 59 -32 l 62 102 l 181 134 q 131 181 153 156 q 99 239 109 206 q 89 300 89 269 q 97 355 89 319 q 135 431 104 390 q 212 496 165 471 q 313 521 258 521 q 345 520 329 521 q 379 514 360 518 q 419 505 397 511 q 467 494 440 500 l 439 380 q 366 393 396 389 q 312 396 335 396 q 237 370 266 396 q 199 300 208 343 q 219 254 205 273 q 253 222 233 235 q 296 203 272 209 q 344 197 319 197 q 392 202 366 197 q 444 216 418 208 q 497 233 471 223 q 544 249 522 242 l 546 114 l 59 -32 z "},"ا":{"ha":378,"x_min":120,"x_max":258,"o":"m 258 -9 l 120 -9 l 120 901 l 258 901 l 258 -9 z "},"ﺍ":{"ha":378,"x_min":120,"x_max":258,"o":"m 258 -9 l 120 -9 l 120 901 l 258 901 l 258 -9 z "},"ﺎ":{"ha":396,"x_min":120,"x_max":408,"o":"m 408 -9 q 295 -1 342 -9 q 217 23 249 7 q 166 65 185 40 q 136 123 146 90 q 123 199 126 157 q 120 294 120 242 l 120 901 l 258 901 l 258 294 q 262 208 258 241 q 280 158 265 176 q 325 134 295 140 q 408 129 355 129 l 408 -9 z "},"ح":{"ha":922,"x_min":54,"x_max":855,"o":"m 855 368 l 470 217 q 332 163 387 186 q 246 118 278 140 q 201 69 214 95 q 189 5 189 43 q 212 -108 189 -66 q 277 -173 235 -150 q 374 -203 318 -196 q 499 -210 431 -210 l 798 -210 l 798 -348 l 499 -348 q 319 -330 401 -348 q 179 -270 237 -311 q 87 -162 120 -229 q 54 2 54 -95 q 84 131 54 77 q 164 224 113 184 q 281 291 214 263 q 423 343 348 319 l 696 427 l 379 537 q 328 546 350 545 q 289 538 306 546 q 259 512 272 530 q 237 467 247 494 l 109 506 q 145 586 122 548 q 201 651 168 625 q 280 686 235 677 q 309 689 294 689 q 382 676 342 689 q 446 654 417 665 q 503 633 475 644 q 561 609 530 622 q 632 580 592 597 q 725 544 672 564 q 850 497 778 523 l 855 368 z "},"ﺡ":{"ha":922,"x_min":54,"x_max":855,"o":"m 855 368 l 470 217 q 332 163 387 186 q 246 118 278 140 q 201 69 214 95 q 189 5 189 43 q 212 -108 189 -66 q 277 -173 235 -150 q 374 -203 318 -196 q 499 -210 431 -210 l 798 -210 l 798 -348 l 499 -348 q 319 -330 401 -348 q 179 -270 237 -311 q 87 -162 120 -229 q 54 2 54 -95 q 84 131 54 77 q 164 224 113 184 q 281 291 214 263 q 423 343 348 319 l 696 427 l 379 537 q 328 546 350 545 q 289 538 306 546 q 259 512 272 530 q 237 467 247 494 l 109 506 q 145 586 122 548 q 201 651 168 625 q 280 686 235 677 q 309 689 294 689 q 382 676 342 689 q 446 654 417 665 q 503 633 475 644 q 561 609 530 622 q 632 580 592 597 q 725 544 672 564 q 850 497 778 523 l 855 368 z "},"ﺣ":{"ha":895,"x_min":-13,"x_max":857,"o":"m 857 239 q 824 217 854 237 q 745 170 794 198 q 630 111 696 143 q 489 53 564 80 q 332 8 414 26 q 169 -9 251 -9 l -13 -9 l -13 129 l 169 129 q 261 135 213 129 q 355 152 308 141 q 448 178 402 164 q 537 209 494 193 q 617 243 580 225 q 684 277 654 260 l 369 388 q 318 396 340 396 q 279 388 296 396 q 249 362 262 380 q 227 318 237 345 l 99 356 q 135 437 112 398 q 191 502 158 475 q 270 537 225 528 q 299 539 283 539 q 372 527 332 539 q 436 505 407 515 q 492 485 465 496 q 551 463 520 475 q 622 436 581 451 q 715 401 662 421 q 840 355 768 381 l 857 239 z "},"ﺤ":{"ha":965,"x_min":-14,"x_max":978,"o":"m 760 180 q 781 150 767 160 q 810 135 795 140 q 838 129 825 130 q 857 129 852 129 l 978 129 l 978 -9 l 857 -9 q 767 5 809 -9 q 693 46 725 19 l 693 47 q 638 116 658 74 q 629 111 634 114 q 488 53 563 80 q 331 8 413 26 q 168 -9 249 -9 l -14 -9 l -14 129 l 168 129 q 259 135 212 129 q 354 152 307 141 q 447 178 401 164 q 536 209 493 193 q 616 243 578 225 q 682 277 653 260 l 367 388 q 317 396 339 396 q 278 388 295 396 q 248 362 261 380 q 225 318 235 345 l 98 356 q 134 437 111 398 q 190 502 157 475 q 268 537 223 528 q 297 539 282 539 q 371 527 331 539 q 435 505 406 515 q 491 485 463 496 q 550 463 519 475 q 620 436 580 451 q 713 401 660 421 q 839 355 766 381 l 856 239 q 823 218 852 237 q 760 180 798 201 z "},"ﺢ":{"ha":985,"x_min":54,"x_max":998,"o":"m 756 199 q 775 172 765 184 q 799 148 787 157 q 824 134 811 138 q 845 129 836 129 l 998 129 l 998 -9 l 845 -9 q 765 2 801 -9 q 701 35 729 14 q 653 85 673 56 q 622 146 634 112 l 470 86 q 332 32 387 55 q 246 -13 278 9 q 201 -62 214 -35 q 189 -126 189 -88 q 212 -239 189 -196 q 277 -304 235 -281 q 374 -334 318 -326 q 499 -341 431 -341 l 798 -341 l 798 -479 l 499 -479 q 319 -461 401 -479 q 179 -401 237 -442 q 87 -292 120 -359 q 54 -129 54 -225 q 84 0 54 -54 q 163 93 113 54 q 281 161 213 133 q 423 212 348 189 l 696 296 l 379 407 q 328 415 350 415 q 289 407 306 415 q 259 381 272 399 q 237 336 247 364 l 109 375 q 145 456 122 417 q 201 521 168 494 q 280 556 235 547 q 309 558 294 558 q 382 545 342 558 q 446 524 417 534 q 503 502 475 513 q 561 479 530 491 q 632 450 592 466 q 725 413 672 434 q 850 367 778 393 l 855 237 l 756 199 z "},"د":{"ha":702,"x_min":49,"x_max":658,"o":"m 355 -15 q 280 -11 317 -15 q 241 -6 262 -9 q 197 3 219 -3 q 152 17 174 8 q 109 37 129 25 l 49 71 l 118 191 l 178 157 q 231 136 199 144 q 297 126 262 129 q 356 123 326 123 q 383 123 362 123 q 434 128 404 124 q 495 144 475 134 q 518 163 515 154 q 520 172 520 167 q 515 197 520 181 q 488 247 511 213 q 390 396 427 339 q 330 485 352 453 q 301 530 309 518 q 293 542 294 542 l 255 600 l 371 676 l 408 618 l 417 606 q 446 562 424 594 q 505 472 467 530 q 604 324 543 415 q 652 219 640 270 q 658 172 658 195 q 644 107 658 138 q 569 27 622 56 q 455 -8 523 1 q 406 -14 431 -12 q 355 -15 381 -15 z "},"ﺩ":{"ha":702,"x_min":49,"x_max":658,"o":"m 355 -15 q 280 -11 317 -15 q 241 -6 262 -9 q 197 3 219 -3 q 152 17 174 8 q 109 37 129 25 l 49 71 l 118 191 l 178 157 q 231 136 199 144 q 297 126 262 129 q 356 123 326 123 q 383 123 362 123 q 434 128 404 124 q 495 144 475 134 q 518 163 515 154 q 520 172 520 167 q 515 197 520 181 q 488 247 511 213 q 390 396 427 339 q 330 485 352 453 q 301 530 309 518 q 293 542 294 542 l 255 600 l 371 676 l 408 618 l 417 606 q 446 562 424 594 q 505 472 467 530 q 604 324 543 415 q 652 219 640 270 q 658 172 658 195 q 644 107 658 138 q 569 27 622 56 q 455 -8 523 1 q 406 -14 431 -12 q 355 -15 381 -15 z "},"ر":{"ha":506,"x_min":0,"x_max":468,"o":"m 468 20 q 437 -133 465 -64 q 361 -249 410 -201 q 243 -323 312 -297 q 87 -348 174 -348 l 0 -348 l 0 -210 l 87 -210 q 196 -197 150 -210 q 271 -155 242 -184 q 316 -80 301 -126 q 330 33 330 -33 l 330 427 l 468 427 l 468 20 z "},"ﺭ":{"ha":506,"x_min":0,"x_max":468,"o":"m 468 20 q 437 -133 465 -64 q 361 -249 410 -201 q 243 -323 312 -297 q 87 -348 174 -348 l 0 -348 l 0 -210 l 87 -210 q 196 -197 150 -210 q 271 -155 242 -184 q 316 -80 301 -126 q 330 33 330 -33 l 330 427 l 468 427 l 468 20 z "},"ﺮ":{"ha":574,"x_min":0,"x_max":584,"o":"m 584 -9 l 571 -9 q 518 -5 543 -9 q 468 20 494 -1 q 437 -133 465 -64 q 361 -249 410 -201 q 243 -323 312 -297 q 87 -348 174 -348 l 0 -348 l 0 -210 l 87 -210 q 196 -197 150 -210 q 271 -155 242 -184 q 316 -80 301 -126 q 330 33 330 -33 l 330 427 l 468 427 l 468 229 q 482 177 468 196 q 513 146 496 157 q 548 132 531 136 q 571 129 564 129 l 584 129 l 584 -9 z "},"س":{"ha":1699,"x_min":57,"x_max":1634,"o":"m 1405 -9 q 1297 8 1345 -9 q 1217 57 1250 25 q 1178 26 1199 39 q 1135 5 1157 13 q 1090 -6 1112 -3 q 1045 -9 1067 -9 q 1010 -8 1027 -9 q 977 -3 993 -7 q 947 8 961 1 q 919 28 932 16 l 919 -18 q 827 -268 919 -187 q 556 -348 736 -348 l 433 -348 q 282 -321 350 -348 q 163 -244 213 -294 q 85 -123 112 -194 q 57 37 57 -52 q 82 209 57 120 q 156 402 107 299 l 280 342 q 211 179 237 253 q 186 39 186 106 q 204 -59 186 -13 q 255 -138 222 -104 q 333 -191 288 -172 q 430 -210 377 -210 l 556 -210 q 670 -197 626 -210 q 738 -160 714 -184 q 771 -99 763 -135 q 780 -18 780 -63 l 780 427 l 919 427 l 919 304 q 929 212 919 246 q 958 159 940 177 q 999 134 976 140 q 1045 128 1021 128 q 1079 133 1060 128 q 1114 151 1097 138 q 1141 184 1130 164 q 1152 237 1152 205 l 1152 427 l 1290 427 l 1290 230 q 1318 153 1291 177 q 1404 128 1345 128 q 1430 133 1414 129 q 1462 148 1446 136 q 1488 180 1477 159 q 1499 237 1499 201 q 1497 271 1499 251 q 1491 314 1494 291 q 1482 362 1487 338 q 1473 408 1477 386 q 1463 447 1468 430 q 1456 474 1459 465 l 1588 514 q 1593 494 1589 510 q 1602 454 1597 478 q 1613 402 1607 431 q 1623 343 1619 372 q 1631 285 1628 313 q 1634 237 1634 258 q 1614 129 1634 175 q 1562 52 1594 83 q 1488 7 1529 22 q 1405 -9 1447 -9 z "},"ﺱ":{"ha":1699,"x_min":57,"x_max":1634,"o":"m 1405 -9 q 1297 8 1345 -9 q 1217 57 1250 25 q 1178 26 1199 39 q 1135 5 1157 13 q 1090 -6 1112 -3 q 1045 -9 1067 -9 q 1010 -8 1027 -9 q 977 -3 993 -7 q 947 8 961 1 q 919 28 932 16 l 919 -18 q 827 -268 919 -187 q 556 -348 736 -348 l 433 -348 q 282 -321 350 -348 q 163 -244 213 -294 q 85 -123 112 -194 q 57 37 57 -52 q 82 209 57 120 q 156 402 107 299 l 280 342 q 211 179 237 253 q 186 39 186 106 q 204 -59 186 -13 q 255 -138 222 -104 q 333 -191 288 -172 q 430 -210 377 -210 l 556 -210 q 670 -197 626 -210 q 738 -160 714 -184 q 771 -99 763 -135 q 780 -18 780 -63 l 780 427 l 919 427 l 919 304 q 929 212 919 246 q 958 159 940 177 q 999 134 976 140 q 1045 128 1021 128 q 1079 133 1060 128 q 1114 151 1097 138 q 1141 184 1130 164 q 1152 237 1152 205 l 1152 427 l 1290 427 l 1290 230 q 1318 153 1291 177 q 1404 128 1345 128 q 1430 133 1414 129 q 1462 148 1446 136 q 1488 180 1477 159 q 1499 237 1499 201 q 1497 271 1499 251 q 1491 314 1494 291 q 1482 362 1487 338 q 1473 408 1477 386 q 1463 447 1468 430 q 1456 474 1459 465 l 1588 514 q 1593 494 1589 510 q 1602 454 1597 478 q 1613 402 1607 431 q 1623 343 1619 372 q 1631 285 1628 313 q 1634 237 1634 258 q 1614 129 1634 175 q 1562 52 1594 83 q 1488 7 1529 22 q 1405 -9 1447 -9 z "},"ﺳ":{"ha":1104,"x_min":-13,"x_max":1053,"o":"m 474 -8 q 370 8 415 -8 q 291 56 324 24 q 214 7 257 23 q 127 -9 170 -9 l -13 -9 l -13 129 l 127 129 q 151 132 135 129 q 183 145 167 134 q 211 177 199 156 q 222 235 222 198 l 222 427 l 360 427 l 360 238 q 387 155 360 181 q 474 129 414 129 q 498 133 482 129 q 530 147 515 136 q 558 179 546 158 q 569 238 569 201 l 569 427 l 707 427 l 707 238 q 734 155 707 181 q 823 128 761 128 q 848 132 832 128 q 879 147 864 136 q 905 180 894 158 q 917 238 917 202 q 914 272 917 252 q 908 316 912 293 q 899 364 904 340 q 890 410 895 388 q 881 449 885 432 q 874 475 876 466 l 1004 516 q 1010 496 1006 513 q 1019 456 1014 480 q 1031 403 1025 432 q 1042 344 1037 374 q 1050 287 1047 314 q 1053 238 1053 259 q 1033 129 1053 176 q 979 52 1012 83 q 906 6 947 21 q 823 -9 864 -9 q 717 8 764 -9 q 637 56 670 25 q 560 8 603 23 q 474 -8 518 -8 z "},"ﺴ":{"ha":1198,"x_min":-17,"x_max":1207,"o":"m -17 129 l 62 129 q 128 136 103 129 q 167 156 153 143 q 185 189 181 170 q 190 234 190 209 l 190 427 l 328 427 l 328 237 q 355 155 328 181 q 441 129 382 129 q 466 133 451 129 q 496 147 482 136 q 520 179 510 158 q 530 234 530 199 l 530 427 l 668 427 l 668 237 q 695 154 668 180 q 782 129 722 129 q 816 134 799 129 q 845 152 832 140 q 867 183 859 164 q 877 230 876 202 l 877 427 l 1015 427 l 1015 230 q 1047 153 1016 177 q 1141 129 1078 129 l 1207 129 l 1207 -9 l 1141 -9 q 1028 7 1077 -9 q 946 56 979 23 q 872 7 915 23 q 782 -9 829 -9 q 678 7 723 -9 q 599 55 633 23 q 526 8 567 25 q 443 -9 484 -9 l 439 -9 q 337 7 381 -9 q 261 52 293 24 q 176 6 225 21 q 62 -9 128 -9 l -17 -9 l -17 129 z "},"ﺲ":{"ha":1837,"x_min":57,"x_max":1851,"o":"m 1791 -9 q 1592 58 1657 -9 q 1587 53 1590 56 q 1583 49 1585 51 q 1508 6 1551 22 q 1420 -9 1465 -9 q 1233 58 1299 -9 q 1229 53 1231 56 q 1225 49 1227 51 q 1150 6 1193 22 q 1062 -9 1107 -9 q 935 19 990 -9 l 935 -18 q 844 -268 935 -187 q 573 -349 753 -349 l 433 -349 q 339 -337 384 -349 q 253 -303 293 -325 q 178 -251 212 -282 q 119 -182 144 -220 q 73 -79 89 -134 q 57 40 57 -25 q 82 213 57 123 q 156 407 107 304 l 280 347 q 215 183 237 258 q 194 42 194 109 q 204 -40 194 -4 q 235 -108 215 -75 q 318 -184 267 -157 q 433 -211 369 -211 l 573 -211 q 687 -198 643 -211 q 755 -160 730 -185 q 788 -99 779 -135 q 797 -18 797 -63 l 797 427 l 935 427 l 935 295 q 946 204 935 237 q 974 154 956 171 q 1015 133 992 137 q 1062 128 1038 128 q 1095 133 1076 128 q 1130 151 1114 138 q 1158 184 1146 164 q 1169 237 1169 205 l 1169 427 l 1306 427 l 1306 230 q 1335 153 1307 177 q 1422 128 1362 128 q 1455 134 1436 128 q 1489 151 1473 139 q 1516 184 1505 164 q 1527 237 1527 205 l 1527 427 l 1665 427 l 1665 230 q 1696 153 1666 177 q 1791 129 1726 129 l 1851 129 l 1851 -9 l 1791 -9 z "},"ص":{"ha":1731,"x_min":57,"x_max":1681,"o":"m 434 -348 q 338 -337 384 -348 q 252 -304 292 -326 q 177 -251 211 -282 q 118 -180 143 -220 q 73 -76 88 -131 q 57 44 57 -21 q 81 212 57 125 q 155 402 106 300 l 280 342 q 216 182 237 254 q 194 44 194 109 q 205 -39 194 -3 q 236 -107 215 -74 q 318 -183 266 -157 q 434 -210 370 -210 l 572 -210 q 685 -197 641 -210 q 753 -158 729 -184 q 786 -97 777 -133 q 795 -15 795 -61 l 795 427 l 932 427 l 932 216 q 937 189 932 202 q 950 167 943 177 q 967 152 958 157 q 986 146 977 146 q 1049 246 1018 197 q 1113 339 1080 295 q 1181 420 1146 383 q 1254 485 1216 458 q 1334 527 1292 512 q 1423 542 1376 542 q 1517 526 1471 542 q 1599 475 1563 510 q 1658 385 1636 440 q 1681 254 1681 331 q 1657 131 1681 181 q 1595 50 1633 81 q 1510 4 1557 18 q 1417 -9 1463 -9 l 1056 -9 q 1025 -9 1042 -9 q 991 -6 1008 -9 q 958 3 974 -3 q 932 21 943 9 l 932 -15 q 842 -267 932 -185 q 572 -348 752 -348 l 434 -348 m 1417 129 q 1432 129 1422 129 q 1452 132 1441 130 q 1475 138 1463 134 q 1497 150 1487 142 q 1520 167 1509 157 q 1539 190 1531 177 q 1553 219 1548 203 q 1559 254 1559 235 q 1548 320 1559 292 q 1519 366 1538 348 q 1476 395 1501 385 q 1423 404 1451 404 q 1343 379 1383 404 q 1265 315 1303 355 q 1193 227 1227 276 q 1128 129 1158 178 l 1417 129 z "},"ﺹ":{"ha":1731,"x_min":57,"x_max":1681,"o":"m 434 -348 q 338 -337 384 -348 q 252 -304 292 -326 q 177 -251 211 -282 q 118 -180 143 -220 q 73 -76 88 -131 q 57 44 57 -21 q 81 212 57 125 q 155 402 106 300 l 280 342 q 216 182 237 254 q 194 44 194 109 q 205 -39 194 -3 q 236 -107 215 -74 q 318 -183 266 -157 q 434 -210 370 -210 l 572 -210 q 685 -197 641 -210 q 753 -158 729 -184 q 786 -97 777 -133 q 795 -15 795 -61 l 795 427 l 932 427 l 932 216 q 937 189 932 202 q 950 167 943 177 q 967 152 958 157 q 986 146 977 146 q 1049 246 1018 197 q 1113 339 1080 295 q 1181 420 1146 383 q 1254 485 1216 458 q 1334 527 1292 512 q 1423 542 1376 542 q 1517 526 1471 542 q 1599 475 1563 510 q 1658 385 1636 440 q 1681 254 1681 331 q 1657 131 1681 181 q 1595 50 1633 81 q 1510 4 1557 18 q 1417 -9 1463 -9 l 1056 -9 q 1025 -9 1042 -9 q 991 -6 1008 -9 q 958 3 974 -3 q 932 21 943 9 l 932 -15 q 842 -267 932 -185 q 572 -348 752 -348 l 434 -348 m 1417 129 q 1432 129 1422 129 q 1452 132 1441 130 q 1475 138 1463 134 q 1497 150 1487 142 q 1520 167 1509 157 q 1539 190 1531 177 q 1553 219 1548 203 q 1559 254 1559 235 q 1548 320 1559 292 q 1519 366 1538 348 q 1476 395 1501 385 q 1423 404 1451 404 q 1343 379 1383 404 q 1265 315 1303 355 q 1193 227 1227 276 q 1128 129 1158 178 l 1417 129 z "},"ﺻ":{"ha":1142,"x_min":-13,"x_max":1104,"o":"m -13 -9 l -13 129 l 85 129 q 151 137 126 129 q 188 157 175 145 q 205 184 201 169 q 209 213 209 199 l 209 427 l 347 427 l 347 218 q 352 191 347 203 q 367 168 358 178 q 388 152 377 158 q 411 146 400 146 q 465 235 437 189 q 525 325 494 281 q 592 408 556 369 q 667 478 627 448 q 751 525 706 508 q 848 542 796 542 q 942 526 896 542 q 1024 476 988 510 q 1082 387 1060 441 q 1104 254 1104 332 q 1093 167 1104 206 q 1063 99 1082 129 q 1018 50 1044 70 q 963 16 992 29 q 902 -3 934 3 q 840 -9 871 -9 l 479 -9 q 430 -6 456 -9 q 377 5 403 -2 q 328 22 351 13 q 289 44 304 32 l 279 52 q 199 6 245 20 q 89 -9 152 -8 l -13 -9 m 848 405 q 767 380 807 405 q 689 316 727 355 q 617 227 652 277 q 552 129 582 178 l 840 129 q 855 129 846 129 q 876 132 865 130 q 899 139 887 134 q 922 150 911 143 l 922 150 q 944 167 934 157 q 962 190 955 177 q 975 219 970 203 q 980 254 980 235 q 970 320 980 292 q 942 367 960 348 q 900 396 924 386 q 848 405 876 405 z "},"ﺼ":{"ha":1209,"x_min":-13,"x_max":1216,"o":"m 411 146 q 465 235 437 189 q 525 325 494 281 q 592 408 556 369 q 667 478 627 448 q 751 525 706 508 q 848 542 796 542 q 942 526 896 542 q 1024 476 988 510 q 1082 387 1060 441 q 1104 254 1104 332 q 1098 186 1104 217 q 1079 129 1091 155 l 1216 129 l 1216 -9 l 479 -9 q 430 -6 456 -9 q 377 5 403 -2 q 328 22 351 13 q 289 44 304 32 l 279 52 q 199 6 245 20 q 89 -9 152 -8 l -13 -9 l -13 129 l 85 129 q 151 137 126 129 q 188 157 175 145 q 205 184 201 169 q 209 213 209 199 l 209 427 l 347 427 l 347 218 q 352 191 347 203 q 367 168 358 178 q 388 152 377 158 q 411 146 400 146 m 848 405 q 767 380 807 405 q 689 316 727 355 q 617 227 652 277 q 552 129 582 178 l 840 129 q 855 129 846 129 q 876 132 865 130 q 899 139 887 134 q 922 150 911 143 l 922 150 q 944 167 934 157 q 962 190 955 177 q 975 219 970 203 q 980 254 980 235 q 970 320 980 292 q 942 367 960 348 q 900 396 924 386 q 848 405 876 405 z "},"ﺺ":{"ha":1791,"x_min":57,"x_max":1801,"o":"m 434 -348 q 338 -337 384 -348 q 252 -304 292 -326 q 177 -251 211 -282 q 118 -180 143 -220 q 73 -76 88 -131 q 57 44 57 -21 q 81 212 57 125 q 155 402 106 300 l 280 342 q 216 182 237 254 q 194 44 194 109 q 205 -39 194 -3 q 236 -107 215 -74 q 318 -183 266 -157 q 434 -210 370 -210 l 572 -210 q 685 -197 641 -210 q 753 -158 729 -184 q 786 -97 777 -133 q 795 -15 795 -61 l 795 427 l 932 427 l 932 216 q 938 189 932 202 q 952 167 943 177 q 971 152 960 157 q 991 146 981 146 q 1054 246 1023 197 q 1118 339 1085 295 q 1186 420 1151 383 q 1259 485 1221 458 q 1339 527 1297 512 q 1428 542 1381 542 q 1522 526 1476 542 q 1604 475 1568 510 q 1663 385 1641 440 q 1686 254 1686 331 q 1679 185 1686 216 q 1660 129 1672 155 l 1801 129 l 1801 -9 l 1061 -9 q 1029 -9 1047 -9 q 993 -6 1011 -9 q 959 3 975 -3 q 932 21 943 9 l 932 -15 q 842 -267 932 -185 q 572 -348 752 -348 l 434 -348 m 1422 129 q 1437 129 1427 129 q 1457 132 1446 130 q 1480 138 1468 134 q 1503 150 1492 142 q 1525 167 1514 157 q 1545 190 1536 177 q 1558 219 1553 203 q 1564 254 1564 235 q 1553 320 1564 292 q 1524 366 1543 348 q 1481 395 1506 385 q 1428 404 1456 404 q 1349 379 1388 404 q 1275 315 1311 355 q 1206 227 1239 276 q 1143 129 1174 178 l 1422 129 z "},"ط":{"ha":963,"x_min":55,"x_max":907,"o":"m 55 -9 l 55 129 l 201 129 q 209 140 205 134 q 219 155 213 146 q 235 178 225 164 q 259 217 244 193 l 259 900 l 396 900 l 396 408 q 451 461 422 437 q 511 504 480 486 q 577 533 542 522 q 648 543 611 543 q 743 526 696 543 q 825 472 789 508 q 884 381 862 436 q 907 248 907 325 q 882 125 907 175 q 820 46 858 76 q 734 3 782 16 q 641 -9 687 -9 l 55 -9 m 648 405 q 568 381 609 405 q 488 316 527 356 q 414 227 449 277 q 348 129 378 178 l 641 129 q 656 130 646 129 q 677 133 665 131 q 700 139 688 135 q 723 150 712 143 q 746 167 735 158 q 765 187 756 176 q 779 214 774 199 q 785 248 785 229 q 774 315 785 286 q 745 364 763 344 q 702 395 727 384 q 648 405 677 405 z "},"ﻁ":{"ha":963,"x_min":55,"x_max":907,"o":"m 55 -9 l 55 129 l 201 129 q 209 140 205 134 q 219 155 213 146 q 235 178 225 164 q 259 217 244 193 l 259 900 l 396 900 l 396 408 q 451 461 422 437 q 511 504 480 486 q 577 533 542 522 q 648 543 611 543 q 743 526 696 543 q 825 472 789 508 q 884 381 862 436 q 907 248 907 325 q 882 125 907 175 q 820 46 858 76 q 734 3 782 16 q 641 -9 687 -9 l 55 -9 m 648 405 q 568 381 609 405 q 488 316 527 356 q 414 227 449 277 q 348 129 378 178 l 641 129 q 656 130 646 129 q 677 133 665 131 q 700 139 688 135 q 723 150 712 143 q 746 167 735 158 q 765 187 756 176 q 779 214 774 199 q 785 248 785 229 q 774 315 785 286 q 745 364 763 344 q 702 395 727 384 q 648 405 677 405 z "},"ﻃ":{"ha":867,"x_min":-17,"x_max":817,"o":"m -17 -9 l -17 129 l 112 129 q 119 140 116 134 q 129 155 123 146 q 145 178 136 164 q 169 217 155 193 l 169 900 l 307 900 l 307 408 q 361 461 333 437 q 421 504 390 486 q 487 533 453 522 q 559 543 521 543 q 653 526 607 543 q 736 472 699 508 q 795 381 772 436 q 817 248 817 325 q 793 125 817 175 q 730 46 768 76 q 645 3 692 16 q 552 -9 597 -9 l -17 -9 m 559 405 q 478 381 519 405 q 399 316 437 356 q 324 227 360 277 q 259 129 289 178 l 552 129 q 566 130 557 129 q 587 133 576 131 q 610 139 598 135 q 634 150 622 143 q 656 167 645 158 q 676 187 667 176 q 690 214 684 199 q 695 248 695 229 q 684 315 695 286 q 655 364 674 344 q 612 395 637 384 q 559 405 587 405 z "},"ﻄ":{"ha":926,"x_min":-14,"x_max":943,"o":"m -14 -9 l -14 129 l 107 129 q 115 140 111 134 q 125 155 119 146 q 141 178 131 164 q 165 217 150 193 l 165 900 l 302 900 l 302 408 q 357 461 328 437 q 417 504 386 486 q 483 533 448 522 q 554 543 517 543 q 649 526 602 543 q 731 472 695 508 q 790 381 768 436 q 813 248 813 325 q 806 182 813 212 q 789 128 800 153 l 943 128 l 943 -9 l -14 -9 m 554 405 q 474 381 515 405 q 394 316 433 356 q 320 227 355 277 q 254 129 284 178 l 547 129 q 562 130 552 129 q 583 133 571 131 q 606 139 594 135 q 629 150 618 143 q 652 167 641 158 q 671 187 662 176 q 685 214 680 199 q 691 248 691 229 q 680 315 691 286 q 651 364 669 344 q 608 395 633 384 q 554 405 583 405 z "},"ﻂ":{"ha":1002,"x_min":57,"x_max":1015,"o":"m 57 -9 l 57 129 l 203 129 l 261 217 l 261 900 l 398 900 l 398 408 q 453 461 424 437 q 513 504 482 486 q 579 533 544 522 q 650 543 613 543 q 745 526 698 543 q 827 472 791 508 q 886 381 864 436 q 908 248 908 325 q 901 182 908 212 q 882 128 893 153 l 1015 128 l 1015 -9 l 57 -9 m 650 405 q 570 381 610 405 q 490 316 529 356 q 416 227 451 277 q 350 129 380 178 l 643 129 q 695 137 669 129 q 741 160 720 145 q 774 198 761 176 q 787 248 787 220 q 776 315 787 286 q 747 364 765 344 q 704 395 729 384 q 650 405 679 405 z "},"ع":{"ha":867,"x_min":51,"x_max":785,"o":"m 760 -349 l 467 -349 q 314 -328 389 -349 q 181 -264 240 -307 q 86 -153 122 -220 q 51 8 51 -86 q 82 153 51 86 q 171 268 113 219 q 244 317 205 297 q 325 347 282 337 q 290 396 303 372 q 270 443 277 420 q 260 485 263 465 q 258 520 258 504 q 280 620 258 573 q 338 702 301 667 q 422 757 374 737 q 523 777 470 777 q 589 769 557 777 q 650 747 621 760 q 708 715 680 733 q 765 679 737 698 l 702 568 q 638 604 664 590 q 591 625 611 617 q 556 636 571 633 q 523 639 540 639 q 478 631 501 639 q 437 607 455 622 q 407 569 419 592 q 396 520 396 547 q 398 500 396 511 q 405 476 400 489 q 421 449 411 463 q 448 422 431 436 q 553 374 487 391 q 705 357 618 357 l 785 357 l 785 218 l 403 218 q 332 206 371 218 q 259 168 293 194 q 204 103 226 143 q 181 8 181 62 q 199 -82 181 -45 q 245 -143 217 -119 q 307 -181 273 -167 q 372 -201 340 -195 q 430 -209 404 -208 q 467 -211 455 -211 l 760 -211 l 760 -349 z "},"ﻉ":{"ha":867,"x_min":51,"x_max":785,"o":"m 760 -349 l 467 -349 q 314 -328 389 -349 q 181 -264 240 -307 q 86 -153 122 -220 q 51 8 51 -86 q 82 153 51 86 q 171 268 113 219 q 244 317 205 297 q 325 347 282 337 q 290 396 303 372 q 270 443 277 420 q 260 485 263 465 q 258 520 258 504 q 280 620 258 573 q 338 702 301 667 q 422 757 374 737 q 523 777 470 777 q 589 769 557 777 q 650 747 621 760 q 708 715 680 733 q 765 679 737 698 l 702 568 q 638 604 664 590 q 591 625 611 617 q 556 636 571 633 q 523 639 540 639 q 478 631 501 639 q 437 607 455 622 q 407 569 419 592 q 396 520 396 547 q 398 500 396 511 q 405 476 400 489 q 421 449 411 463 q 448 422 431 436 q 553 374 487 391 q 705 357 618 357 l 785 357 l 785 218 l 403 218 q 332 206 371 218 q 259 168 293 194 q 204 103 226 143 q 181 8 181 62 q 199 -82 181 -45 q 245 -143 217 -119 q 307 -181 273 -167 q 372 -201 340 -195 q 430 -209 404 -208 q 467 -211 455 -211 l 760 -211 l 760 -349 z "},"ﻋ":{"ha":745,"x_min":-13,"x_max":650,"o":"m -13 -9 l -13 129 l 184 129 q 154 174 165 152 q 137 218 143 197 q 131 257 132 239 q 129 290 129 275 q 150 390 129 343 q 206 470 171 436 q 289 524 242 504 q 390 544 336 544 q 448 537 420 544 q 504 518 475 530 q 564 487 533 505 q 633 447 595 469 l 564 329 q 527 352 549 339 q 481 378 505 366 q 434 397 458 390 q 390 405 410 405 q 343 398 367 405 q 301 376 320 391 q 270 340 282 361 q 258 290 258 318 q 260 271 258 282 q 268 246 262 259 q 286 218 275 233 q 314 189 297 204 l 314 189 q 419 143 354 157 q 571 129 484 129 l 650 129 l 650 -9 l -13 -9 z "},"ﻌ":{"ha":810,"x_min":-13,"x_max":823,"o":"m 227 414 q 265 375 245 397 q 308 327 285 353 q 360 274 332 302 q 422 217 388 246 q 455 246 437 229 q 492 285 473 264 q 531 328 512 306 q 568 371 551 350 q 577 391 576 381 l 578 396 q 574 411 578 403 q 560 423 570 418 q 537 428 551 428 l 287 428 q 260 427 271 428 q 242 424 249 426 q 232 420 235 422 q 227 414 229 417 m 823 -9 l 576 -9 q 551 -7 565 -9 q 518 4 537 -4 q 474 27 499 12 q 417 66 449 41 q 331 33 379 47 q 226 9 282 19 q 110 -5 170 0 q -13 -9 49 -9 l -13 129 q 75 131 31 129 q 161 138 120 133 q 236 148 201 142 q 295 163 270 155 q 231 221 261 192 q 176 274 201 249 q 132 318 150 299 q 103 347 113 337 l 103 377 q 104 404 103 390 q 110 435 105 419 q 122 468 114 451 q 143 499 130 484 q 207 542 169 528 q 300 556 245 556 l 521 556 q 573 549 548 556 q 620 528 598 542 q 659 497 642 515 q 686 455 676 478 q 697 421 693 439 q 701 388 701 403 q 695 355 701 372 q 671 310 689 337 q 622 245 654 283 q 537 150 590 206 q 564 135 554 140 q 579 129 574 131 l 823 129 l 823 -9 z "},"ﻊ":{"ha":869,"x_min":44,"x_max":881,"o":"m 761 -479 l 459 -479 q 295 -461 371 -479 q 163 -402 219 -442 q 76 -299 107 -362 q 44 -148 44 -236 q 74 -29 44 -85 q 162 81 103 27 q 244 145 200 116 q 334 203 288 175 l 158 388 q 160 418 158 401 q 169 453 163 435 q 184 490 175 472 q 206 523 193 508 q 272 566 233 552 q 367 580 311 580 l 575 580 q 628 573 602 580 q 674 553 653 566 q 712 522 696 540 q 739 480 729 504 q 750 447 747 464 q 754 413 754 430 q 736 345 754 378 q 692 283 719 313 q 630 228 664 254 q 563 181 596 202 q 595 156 581 165 q 618 140 609 146 q 632 132 627 134 q 640 129 638 129 l 881 129 l 881 -9 l 638 -9 q 600 -5 617 -9 q 561 11 583 -1 q 510 46 539 23 q 439 105 482 68 q 344 46 391 76 q 261 -15 297 16 q 202 -79 224 -46 q 179 -148 179 -112 q 193 -224 179 -193 q 229 -277 206 -256 q 281 -311 252 -299 q 341 -330 310 -324 q 402 -339 372 -337 q 459 -341 433 -341 l 761 -341 l 761 -479 m 293 434 q 321 404 303 423 q 361 362 338 385 q 409 312 384 338 q 461 261 435 286 q 553 330 513 297 q 626 396 593 364 q 638 415 635 405 q 638 422 638 419 q 636 432 638 427 l 636 432 q 621 446 632 441 q 597 451 610 451 l 354 451 q 307 449 322 451 q 293 436 293 447 l 293 434 z "},"ﻛ":{"ha":738,"x_min":-13,"x_max":738,"o":"m -13 -9 l -13 129 l 364 129 q 394 130 376 129 q 430 136 412 131 q 460 151 447 141 q 473 178 473 161 q 451 245 473 206 q 396 328 430 284 q 321 417 362 372 q 238 502 279 462 q 162 572 198 542 q 105 618 126 603 l 117 750 l 688 1002 l 738 882 l 254 669 q 307 616 277 646 q 370 553 337 586 q 435 482 402 519 q 496 409 467 446 q 547 338 525 373 q 581 272 569 303 q 596 223 592 246 q 600 179 600 199 q 596 137 600 155 q 586 107 591 119 q 563 70 578 90 q 521 32 548 50 q 453 3 494 15 q 354 -9 412 -9 l -13 -9 z "},"ﻜ":{"ha":785,"x_min":-14,"x_max":798,"o":"m 798 -9 l 779 -9 q 682 2 723 -9 q 609 33 641 13 q 548 80 576 52 q 491 140 520 107 q 469 106 482 123 q 439 74 455 89 q 403 46 422 59 q 362 23 383 33 q 278 -1 324 7 q 181 -9 231 -9 l -14 -9 l -14 129 l 190 129 q 254 134 223 129 q 311 149 285 140 q 354 171 336 158 q 383 199 373 184 q 388 215 386 206 q 390 233 390 224 q 376 281 390 252 q 341 344 363 309 q 290 417 319 379 q 232 493 262 455 q 173 565 202 530 q 119 626 143 599 l 144 745 l 712 1007 l 769 880 l 271 651 l 515 325 q 581 241 551 277 q 640 179 610 204 q 703 141 670 154 q 779 129 736 129 l 798 129 l 798 -9 z "},"ك":{"ha":1314,"x_min":57,"x_max":1220,"o":"m 697 590 q 641 554 662 570 q 608 527 620 538 q 592 508 597 515 q 586 497 588 500 q 603 495 592 496 l 607 495 q 627 496 616 495 q 648 497 637 496 q 671 499 659 499 q 694 500 682 500 q 720 498 707 500 q 749 491 737 496 q 769 478 761 485 q 781 463 777 471 q 789 448 786 455 q 792 426 792 437 q 781 388 792 407 q 694 324 759 352 q 635 305 667 314 q 564 288 603 295 l 549 364 q 616 380 585 371 q 669 398 646 388 q 695 411 686 405 q 709 421 705 417 q 704 422 706 422 q 698 422 701 422 l 694 422 q 675 422 685 422 q 654 420 665 421 q 630 418 642 419 q 607 417 619 417 q 596 418 602 417 q 585 419 590 418 q 537 436 552 422 q 516 463 521 449 q 509 493 510 475 l 509 498 q 519 535 509 515 q 559 586 532 561 q 602 621 578 604 q 658 657 626 638 l 697 590 m 293 -9 q 206 6 247 -9 q 133 52 165 22 q 106 81 120 64 q 82 121 93 98 q 64 173 71 144 q 57 239 57 203 q 64 310 57 271 q 79 382 71 348 q 94 442 86 417 q 104 472 102 467 l 169 451 l 235 431 q 224 394 231 417 q 211 342 218 370 q 200 287 205 315 q 196 239 196 259 q 208 179 196 201 q 236 146 220 157 q 269 132 253 134 q 294 129 285 129 l 914 129 q 1009 137 974 129 q 1060 161 1044 145 q 1077 192 1071 172 q 1082 246 1082 211 l 1082 903 l 1220 903 l 1220 246 q 1217 199 1220 223 q 1209 152 1215 176 q 1189 104 1202 128 q 1156 60 1177 81 q 1061 8 1119 25 q 914 -9 1004 -9 l 293 -9 z "},"ﻙ":{"ha":1314,"x_min":57,"x_max":1220,"o":"m 697 590 q 641 554 662 570 q 608 527 620 538 q 592 508 597 515 q 586 497 588 500 q 603 495 592 496 l 607 495 q 627 496 616 495 q 648 497 637 496 q 671 499 659 499 q 694 500 682 500 q 720 498 707 500 q 749 491 737 496 q 769 478 761 485 q 781 463 777 471 q 789 448 786 455 q 792 426 792 437 q 781 388 792 407 q 694 324 759 352 q 635 305 667 314 q 564 288 603 295 l 549 364 q 616 380 585 371 q 669 398 646 388 q 695 411 686 405 q 709 421 705 417 q 704 422 706 422 q 698 422 701 422 l 694 422 q 675 422 685 422 q 654 420 665 421 q 630 418 642 419 q 607 417 619 417 q 596 418 602 417 q 585 419 590 418 q 537 436 552 422 q 516 463 521 449 q 509 493 510 475 l 509 498 q 519 535 509 515 q 559 586 532 561 q 602 621 578 604 q 658 657 626 638 l 697 590 m 293 -9 q 206 6 247 -9 q 133 52 165 22 q 106 81 120 64 q 82 121 93 98 q 64 173 71 144 q 57 239 57 203 q 64 310 57 271 q 79 382 71 348 q 94 442 86 417 q 104 472 102 467 l 169 451 l 235 431 q 224 394 231 417 q 211 342 218 370 q 200 287 205 315 q 196 239 196 259 q 208 179 196 201 q 236 146 220 157 q 269 132 253 134 q 294 129 285 129 l 914 129 q 1009 137 974 129 q 1060 161 1044 145 q 1077 192 1071 172 q 1082 246 1082 211 l 1082 903 l 1220 903 l 1220 246 q 1217 199 1220 223 q 1209 152 1215 176 q 1189 104 1202 128 q 1156 60 1177 81 q 1061 8 1119 25 q 914 -9 1004 -9 l 293 -9 z "},"ﻚ":{"ha":1340,"x_min":59,"x_max":1353,"o":"m 916 129 q 1008 137 971 129 q 1061 161 1044 145 q 1078 192 1073 172 q 1083 246 1083 211 l 1083 900 l 1221 900 l 1221 246 q 1249 160 1221 192 q 1324 129 1277 129 l 1353 129 l 1353 -9 l 1324 -9 q 1232 11 1275 -9 q 1155 63 1189 31 q 1057 6 1116 22 q 915 -9 998 -9 l 295 -9 q 208 6 249 -9 q 134 52 167 22 q 108 81 122 64 q 84 121 95 98 q 66 173 73 144 q 59 239 59 203 q 66 310 59 271 q 80 382 73 348 q 96 442 88 417 q 105 472 104 467 l 171 451 l 237 431 q 226 394 233 417 q 213 342 220 370 q 202 287 207 315 q 198 239 198 259 q 210 179 198 201 q 238 146 222 157 q 271 132 254 134 q 296 129 287 129 l 916 129 m 697 597 q 641 560 662 576 q 608 533 620 544 q 592 514 597 521 q 586 503 588 506 q 603 501 592 502 l 607 501 q 627 502 616 501 q 648 504 637 503 q 671 506 659 505 q 694 506 682 506 q 720 504 707 506 q 749 497 737 503 q 769 485 761 492 q 781 469 777 477 q 789 454 786 461 q 792 432 792 443 q 781 394 792 413 q 694 331 759 358 q 635 311 667 320 q 564 294 603 302 l 549 371 q 616 386 585 378 q 669 405 646 395 q 695 418 686 412 q 709 427 705 424 q 704 428 706 428 q 698 429 701 428 l 694 429 q 675 428 685 429 q 654 426 665 427 q 630 424 642 425 q 607 424 619 424 q 596 424 602 424 q 585 425 590 424 q 537 442 552 429 q 516 469 521 456 q 509 499 510 481 l 509 504 q 519 542 509 521 q 559 593 532 567 q 602 627 578 610 q 658 664 626 645 l 697 597 z "},"ل":{"ha":859,"x_min":48,"x_max":765,"o":"m 375 -359 q 292 -349 332 -359 q 217 -320 252 -339 q 152 -274 182 -301 q 101 -213 123 -247 q 82 -178 92 -198 q 65 -133 73 -158 q 53 -77 57 -108 q 48 -10 48 -46 q 52 54 48 21 q 67 126 57 88 q 92 206 76 164 q 133 299 109 249 l 257 239 q 203 104 221 165 q 185 -11 185 44 q 218 -140 185 -85 q 248 -172 230 -157 q 285 -198 265 -187 q 328 -214 306 -208 q 375 -220 351 -220 l 404 -220 q 517 -206 473 -220 q 585 -165 561 -191 q 619 -101 610 -138 q 628 -16 628 -63 l 628 900 l 765 900 l 765 -16 q 404 -359 765 -357 l 375 -359 z "},"ﻝ":{"ha":859,"x_min":48,"x_max":765,"o":"m 375 -359 q 292 -349 332 -359 q 217 -320 252 -339 q 152 -274 182 -301 q 101 -213 123 -247 q 82 -178 92 -198 q 65 -133 73 -158 q 53 -77 57 -108 q 48 -10 48 -46 q 52 54 48 21 q 67 126 57 88 q 92 206 76 164 q 133 299 109 249 l 257 239 q 203 104 221 165 q 185 -11 185 44 q 218 -140 185 -85 q 248 -172 230 -157 q 285 -198 265 -187 q 328 -214 306 -208 q 375 -220 351 -220 l 404 -220 q 517 -206 473 -220 q 585 -165 561 -191 q 619 -101 610 -138 q 628 -16 628 -63 l 628 900 l 765 900 l 765 -16 q 404 -359 765 -357 l 375 -359 z "},"ﻟ":{"ha":390,"x_min":-11,"x_max":295,"o":"m -11 129 q 84 137 49 129 q 135 161 119 145 q 152 192 146 172 q 157 246 157 211 l 157 903 l 295 903 l 295 246 q 293 199 295 223 q 284 152 290 176 q 265 104 277 128 q 231 60 252 81 q 136 8 194 25 q -11 -9 79 -9 l -11 129 z "},"ﻠ":{"ha":410,"x_min":-13,"x_max":423,"o":"m -13 129 q 90 140 54 129 q 143 169 126 152 q 162 206 159 186 q 165 246 165 227 l 165 902 l 302 902 l 302 246 q 309 202 302 223 q 329 166 316 182 q 361 140 342 150 q 407 129 381 131 l 423 129 l 423 -9 l 407 -9 q 352 -4 375 -9 q 310 11 330 1 q 273 35 291 21 q 232 67 254 49 q 189 34 213 49 q 136 10 165 20 q 69 -4 106 1 q -13 -9 32 -9 l -13 129 z "},"ﻞ":{"ha":894,"x_min":48,"x_max":907,"o":"m 375 -359 q 292 -349 332 -359 q 217 -320 252 -339 q 152 -274 182 -301 q 101 -213 123 -247 q 82 -178 92 -198 q 65 -133 73 -158 q 53 -77 57 -108 q 48 -10 48 -46 q 52 54 48 21 q 67 126 57 88 q 92 206 76 164 q 133 299 109 249 l 257 239 q 203 104 221 165 q 185 -11 185 44 q 218 -140 185 -85 q 248 -172 230 -157 q 285 -198 265 -187 q 328 -214 306 -208 q 375 -220 351 -220 l 404 -220 q 517 -206 473 -220 q 585 -165 561 -191 q 619 -101 610 -138 q 628 -16 628 -63 l 628 901 l 765 901 l 765 222 q 778 183 768 201 q 804 154 789 166 q 838 135 819 142 q 877 129 857 129 l 907 129 l 907 -9 l 877 -9 q 817 -3 847 -9 q 765 19 787 4 l 765 -16 q 404 -359 765 -357 l 375 -359 z "},"م":{"ha":854,"x_min":44,"x_max":797,"o":"m 593 124 q 613 126 600 124 q 640 140 626 128 q 664 182 653 153 q 674 265 674 210 q 672 285 674 271 q 665 315 670 299 q 652 350 660 332 q 629 383 643 368 q 595 407 615 397 q 548 416 575 416 q 507 409 526 416 q 471 379 487 403 q 440 312 454 356 q 414 193 426 268 q 466 167 440 179 q 515 145 491 154 q 558 130 538 135 q 593 124 578 124 m 545 554 q 654 531 607 554 q 733 467 701 507 q 781 374 765 427 q 797 265 797 322 q 786 156 797 201 q 758 80 775 111 q 718 31 741 49 q 673 2 696 12 q 630 -10 651 -8 q 593 -13 609 -13 q 509 5 558 -13 q 405 50 461 23 q 291 108 350 77 q 177 166 232 140 l 178 -417 l 45 -417 l 44 230 l 182 314 l 292 259 q 309 332 299 296 q 332 402 318 369 q 365 463 346 434 q 409 512 384 491 q 469 544 435 533 q 540 554 501 554 l 545 554 z "},"ﻡ":{"ha":854,"x_min":44,"x_max":797,"o":"m 593 124 q 613 126 600 124 q 640 140 626 128 q 664 182 653 153 q 674 265 674 210 q 672 285 674 271 q 665 315 670 299 q 652 350 660 332 q 629 383 643 368 q 595 407 615 397 q 548 416 575 416 q 507 409 526 416 q 471 379 487 403 q 440 312 454 356 q 414 193 426 268 q 466 167 440 179 q 515 145 491 154 q 558 130 538 135 q 593 124 578 124 m 545 554 q 654 531 607 554 q 733 467 701 507 q 781 374 765 427 q 797 265 797 322 q 786 156 797 201 q 758 80 775 111 q 718 31 741 49 q 673 2 696 12 q 630 -10 651 -8 q 593 -13 609 -13 q 509 5 558 -13 q 405 50 461 23 q 291 108 350 77 q 177 166 232 140 l 178 -417 l 45 -417 l 44 230 l 182 314 l 292 259 q 309 332 299 296 q 332 402 318 369 q 365 463 346 434 q 409 512 384 491 q 469 544 435 533 q 540 554 501 554 l 545 554 z "},"ﻣ":{"ha":728,"x_min":-12,"x_max":671,"o":"m 466 98 q 485 100 472 98 q 511 114 498 102 q 535 154 525 126 q 545 236 545 182 q 543 257 545 242 q 536 288 541 271 q 522 322 531 304 q 499 355 513 340 q 465 379 485 370 q 418 389 445 389 q 374 378 393 389 q 342 351 356 368 q 318 311 328 333 q 301 265 309 289 q 286 217 293 241 q 273 172 280 193 q 324 145 297 158 q 376 122 350 132 q 425 105 402 111 q 466 98 448 98 m 418 527 q 530 503 482 527 q 609 439 577 479 q 656 346 640 399 q 671 236 671 294 q 660 127 671 172 q 631 51 649 82 q 591 3 614 21 q 546 -25 569 -15 q 502 -37 523 -34 q 466 -40 481 -40 q 407 -34 435 -40 q 349 -16 378 -28 q 287 12 319 -4 q 217 49 255 28 q 157 5 189 19 q 86 -9 124 -9 l -11 -9 l -12 129 l 81 129 q 110 139 98 129 q 131 167 122 150 q 149 209 141 185 q 164 261 157 233 q 182 321 172 290 q 206 382 193 352 q 239 438 220 412 q 283 484 258 464 q 342 515 309 504 q 418 527 375 527 z "},"ﻤ":{"ha":744,"x_min":-13,"x_max":758,"o":"m 739 -9 q 649 8 690 -9 q 576 47 609 25 q 501 -21 540 -3 q 422 -40 462 -40 q 362 -34 391 -40 q 305 -16 334 -28 q 243 12 275 -4 q 172 49 211 28 q 112 5 145 19 q 44 -9 80 -9 l -13 -9 l -13 129 l 39 129 q 68 140 56 129 q 89 168 80 150 q 106 211 98 186 q 122 263 114 235 q 140 323 130 292 q 164 384 150 354 q 196 439 177 413 q 240 484 215 465 q 298 515 265 504 q 374 527 331 527 q 485 503 438 527 q 564 440 533 480 q 611 348 596 400 q 627 238 627 295 q 642 178 627 199 q 676 145 657 156 q 714 131 695 134 q 739 129 732 129 l 758 129 l 758 -9 l 739 -9 m 422 98 q 433 99 426 98 q 449 103 441 99 q 467 115 458 107 q 484 139 477 123 q 497 178 492 154 q 501 238 501 202 q 499 258 501 244 q 492 289 497 272 q 479 323 487 306 q 455 355 470 341 q 421 379 441 370 q 374 389 401 389 q 330 379 348 389 q 297 351 311 369 q 273 312 283 334 q 255 266 263 290 q 241 218 247 242 q 228 174 235 194 q 279 147 253 160 q 332 122 306 133 q 381 105 357 111 q 419 98 402 98 l 422 98 z "},"ﻢ":{"ha":952,"x_min":76,"x_max":965,"o":"m 938 -9 q 837 5 877 -9 q 772 54 797 19 q 734 19 754 32 q 694 -2 714 6 q 656 -11 674 -9 q 625 -13 638 -13 q 541 5 590 -13 q 437 50 492 23 q 323 108 381 77 q 208 166 264 140 l 210 -417 l 76 -417 l 76 230 l 214 314 l 324 259 q 340 332 331 296 q 364 402 350 369 q 396 463 378 434 q 441 512 415 491 q 501 544 467 533 q 572 554 532 554 l 577 554 q 685 531 638 554 q 764 467 732 507 q 813 374 796 427 q 829 265 829 322 q 829 244 829 254 q 828 224 828 234 q 842 176 828 194 q 874 147 856 157 q 910 133 892 136 q 938 129 929 129 l 965 129 l 965 -9 l 938 -9 m 625 124 q 645 126 631 124 q 671 140 658 128 q 695 182 685 153 q 705 265 705 210 q 703 285 705 271 q 697 315 701 299 q 683 350 692 332 q 660 383 674 368 q 627 407 646 397 q 580 416 607 416 q 538 409 557 416 q 502 379 519 403 q 472 312 485 356 q 446 193 458 268 q 497 167 472 179 q 546 145 523 154 q 590 130 569 135 q 625 124 610 124 z "},"ه":{"ha":636,"x_min":51,"x_max":585,"o":"m 318 -9 q 210 9 259 -9 q 125 58 161 27 q 70 134 90 90 q 51 229 51 177 q 64 325 51 282 q 101 407 78 369 q 155 481 124 446 q 219 552 186 516 l 179 596 l 282 689 q 314 653 296 672 q 347 617 332 634 q 435 522 392 569 q 511 428 478 475 q 565 334 545 381 q 585 241 585 287 l 585 238 q 563 139 584 184 q 503 57 543 93 q 420 8 467 25 q 318 -9 373 -9 m 310 466 q 262 410 284 437 q 223 354 240 383 q 198 295 207 326 q 189 229 189 265 q 199 184 189 203 q 228 153 210 165 q 270 135 246 141 q 318 129 293 129 q 412 159 378 129 q 446 238 446 189 q 435 297 446 268 q 405 354 424 326 q 361 411 386 383 q 310 466 336 439 z "},"ﻩ":{"ha":636,"x_min":51,"x_max":585,"o":"m 318 -9 q 210 9 259 -9 q 125 58 161 27 q 70 134 90 90 q 51 229 51 177 q 64 325 51 282 q 101 407 78 369 q 155 481 124 446 q 219 552 186 516 l 179 596 l 282 689 q 314 653 296 672 q 347 617 332 634 q 435 522 392 569 q 511 428 478 475 q 565 334 545 381 q 585 241 585 287 l 585 238 q 563 139 584 184 q 503 57 543 93 q 420 8 467 25 q 318 -9 373 -9 m 310 466 q 262 410 284 437 q 223 354 240 383 q 198 295 207 326 q 189 229 189 265 q 199 184 189 203 q 228 153 210 165 q 270 135 246 141 q 318 129 293 129 q 412 159 378 129 q 446 238 446 189 q 435 297 446 268 q 405 354 424 326 q 361 411 386 383 q 310 466 336 439 z "},"ﻫ":{"ha":936,"x_min":-13,"x_max":884,"o":"m 589 682 q 688 551 641 613 q 729 497 708 525 q 769 445 749 470 q 804 399 788 420 q 831 364 821 378 q 864 307 852 338 q 881 244 876 276 q 884 203 884 223 q 882 169 884 191 q 872 120 881 147 q 836 53 860 83 q 779 1 813 23 q 702 -33 746 -21 q 607 -45 658 -45 q 515 -36 563 -45 q 418 -3 467 -27 q 394 8 405 3 q 373 18 384 13 q 356 27 363 23 q 58 -9 237 -9 l -13 -9 l -13 129 l 58 129 q 125 129 94 129 q 188 133 157 130 q 128 218 150 172 q 107 323 107 265 q 126 414 107 372 q 179 485 145 456 q 258 532 212 515 q 355 549 303 549 q 428 538 395 549 q 489 509 461 527 q 537 467 516 491 q 572 416 558 443 q 594 363 586 390 q 601 313 601 336 q 576 199 601 249 q 508 108 552 148 q 557 94 531 100 q 607 88 583 88 q 650 92 628 88 q 693 104 673 95 q 729 129 713 114 q 754 170 746 145 q 757 191 757 180 q 741 249 757 213 q 687 339 726 284 q 595 459 648 393 q 480 600 541 525 l 589 682 m 237 323 q 268 234 237 272 q 363 163 300 196 q 404 188 384 173 q 439 223 424 203 q 463 264 454 242 q 472 311 472 287 q 460 361 472 340 q 430 398 448 383 q 391 419 412 412 q 355 426 371 426 q 311 418 332 426 q 273 395 289 409 q 247 362 256 381 q 237 323 237 343 z "},"ﻬ":{"ha":808,"x_min":-13,"x_max":821,"o":"m 395 539 q 496 524 451 539 q 572 478 541 508 q 620 405 604 448 q 636 305 636 361 q 626 235 636 271 q 587 162 616 198 q 508 94 559 126 q 377 38 457 62 l 378 38 q 321 23 352 29 q 264 13 290 17 q 294 -58 272 -23 q 346 -125 316 -93 q 411 -182 376 -157 q 480 -224 446 -208 q 470 -200 475 -214 q 461 -171 465 -186 q 454 -140 456 -155 q 451 -113 451 -125 q 455 -72 451 -92 q 465 -33 458 -51 q 502 33 479 3 q 557 85 526 63 q 624 117 588 106 q 700 129 660 129 l 821 129 l 821 -9 l 695 -9 q 630 -29 658 -9 q 590 -81 602 -48 q 582 -123 582 -102 q 594 -189 582 -155 q 639 -253 607 -224 l 596 -357 q 423 -327 502 -357 q 285 -248 345 -297 q 187 -135 225 -199 q 135 -4 148 -72 q 59 -9 97 -8 q -13 -9 21 -9 l -13 129 q 51 130 14 129 q 130 134 88 131 q 143 268 134 210 q 169 372 152 326 q 216 458 189 425 q 273 509 243 491 q 335 533 304 527 q 395 539 367 539 m 395 402 q 352 394 374 402 q 312 361 330 386 q 280 286 294 335 q 261 152 266 236 q 301 159 280 155 q 338 169 323 164 q 432 207 396 187 q 485 247 467 228 q 510 281 504 266 q 516 306 516 297 q 506 350 516 332 q 479 380 496 369 q 440 396 462 391 q 395 402 418 402 z "},"ﻪ":{"ha":794,"x_min":39,"x_max":807,"o":"m 807 -9 l 779 -9 q 684 1 730 -9 q 600 32 638 11 q 531 83 561 52 q 484 154 501 114 q 444 105 469 126 q 386 71 419 85 q 302 50 343 53 q 277 49 289 49 q 215 56 248 49 q 149 85 182 64 q 92 136 116 105 q 53 207 67 167 q 39 295 39 247 q 65 416 39 362 q 135 511 92 470 q 234 581 178 552 q 350 629 290 610 q 344 660 347 646 q 338 689 341 674 l 471 721 l 583 267 q 618 194 595 222 q 670 152 642 167 q 727 133 698 138 q 779 129 756 129 l 807 129 l 807 -9 m 417 297 q 420 326 420 311 q 418 353 420 336 q 410 396 415 371 q 397 447 404 422 q 385 496 390 472 q 220 411 278 463 q 163 295 163 359 q 179 239 163 261 q 220 204 195 216 q 275 190 244 191 l 281 190 q 332 199 307 190 q 389 236 368 214 q 417 297 410 259 z "},"و":{"ha":665,"x_min":77,"x_max":586,"o":"m 130 -210 q 290 -196 228 -210 q 389 -153 353 -182 q 414 -127 403 -141 q 433 -96 426 -114 q 444 -58 440 -79 q 449 -9 448 -37 l 342 -9 q 249 3 296 -9 q 164 47 202 16 q 101 127 126 77 q 77 250 77 177 q 84 327 77 293 q 103 388 92 361 q 128 434 114 415 q 155 468 142 454 q 238 524 191 504 q 338 544 284 544 q 425 530 384 544 q 498 486 466 515 q 564 383 542 445 q 586 233 586 320 l 586 0 q 580 -84 586 -45 q 559 -154 573 -122 q 525 -212 545 -186 q 475 -261 504 -238 q 413 -300 447 -283 q 336 -327 379 -316 q 243 -343 294 -338 q 130 -348 193 -348 l 130 -210 m 338 406 q 247 366 280 406 q 215 250 215 326 q 227 189 215 212 q 260 151 238 165 q 283 140 271 144 q 307 133 295 136 q 327 130 318 131 q 342 129 336 129 l 449 129 l 449 233 q 443 307 449 277 q 426 356 436 337 q 404 385 416 375 q 379 400 391 396 q 356 405 367 405 q 338 406 345 406 z "},"ﻭ":{"ha":665,"x_min":77,"x_max":586,"o":"m 130 -210 q 290 -196 228 -210 q 389 -153 353 -182 q 414 -127 403 -141 q 433 -96 426 -114 q 444 -58 440 -79 q 449 -9 448 -37 l 342 -9 q 249 3 296 -9 q 164 47 202 16 q 101 127 126 77 q 77 250 77 177 q 84 327 77 293 q 103 388 92 361 q 128 434 114 415 q 155 468 142 454 q 238 524 191 504 q 338 544 284 544 q 425 530 384 544 q 498 486 466 515 q 564 383 542 445 q 586 233 586 320 l 586 0 q 580 -84 586 -45 q 559 -154 573 -122 q 525 -212 545 -186 q 475 -261 504 -238 q 413 -300 447 -283 q 336 -327 379 -316 q 243 -343 294 -338 q 130 -348 193 -348 l 130 -210 m 338 406 q 247 366 280 406 q 215 250 215 326 q 227 189 215 212 q 260 151 238 165 q 283 140 271 144 q 307 133 295 136 q 327 130 318 131 q 342 129 336 129 l 449 129 l 449 233 q 443 307 449 277 q 426 356 436 337 q 404 385 416 375 q 379 400 391 396 q 356 405 367 405 q 338 406 345 406 z "},"ﻮ":{"ha":690,"x_min":78,"x_max":703,"o":"m 131 -210 q 291 -196 229 -210 q 390 -153 354 -182 q 415 -127 404 -141 q 433 -96 426 -114 q 445 -58 441 -79 q 449 -9 449 -37 l 343 -9 q 250 3 297 -9 q 164 47 203 16 q 102 127 126 77 q 78 250 78 177 q 85 327 78 293 q 104 388 92 361 q 129 434 115 415 q 156 468 143 454 q 238 524 192 504 q 338 544 285 544 q 426 530 385 544 q 499 486 467 515 q 565 383 542 445 q 587 233 587 320 l 587 129 l 703 129 l 703 -9 l 587 -9 q 558 -157 586 -97 q 476 -261 531 -217 q 414 -300 448 -283 q 337 -327 379 -316 q 244 -343 295 -338 q 131 -348 193 -348 l 131 -210 m 338 406 q 248 366 280 406 q 216 250 216 326 q 227 189 216 212 q 261 151 239 165 q 284 140 271 144 q 307 133 296 136 q 328 130 319 131 q 343 129 337 129 l 449 129 l 449 233 q 443 307 449 277 q 427 356 437 337 q 404 385 417 375 q 380 400 392 396 q 356 405 367 405 q 338 406 345 406 z "},"ى":{"ha":1027,"x_min":57,"x_max":957,"o":"m 569 -218 q 674 -208 629 -218 q 746 -176 718 -198 q 788 -119 775 -154 q 802 -33 802 -83 q 688 -2 744 -18 q 638 11 664 4 q 586 26 612 18 q 534 39 559 33 q 488 51 509 45 q 460 173 463 112 q 458 202 458 188 q 471 295 458 247 q 514 391 483 344 q 591 473 545 439 q 698 528 637 508 q 831 548 758 548 q 892 544 862 548 q 957 530 922 539 l 922 397 q 873 408 896 405 q 828 412 851 412 q 732 395 777 412 q 656 347 688 378 q 608 271 624 316 q 595 198 595 237 q 597 172 595 185 q 648 159 623 165 q 700 145 673 152 q 757 131 727 138 q 824 114 787 123 q 907 66 882 100 q 932 -18 932 33 q 913 -167 932 -103 q 850 -273 893 -230 q 737 -336 806 -315 q 569 -358 668 -358 l 436 -358 q 339 -346 385 -358 q 252 -313 292 -335 q 178 -260 211 -291 q 118 -189 144 -229 q 57 42 57 -90 q 81 214 57 124 q 157 408 106 304 l 279 349 q 216 185 237 259 q 195 45 195 111 q 237 -115 195 -49 q 319 -192 267 -165 q 436 -218 372 -218 l 569 -218 z "},"ﻯ":{"ha":1027,"x_min":57,"x_max":957,"o":"m 569 -218 q 674 -208 629 -218 q 746 -176 718 -198 q 788 -119 775 -154 q 802 -33 802 -83 q 688 -2 744 -18 q 638 11 664 4 q 586 26 612 18 q 534 39 559 33 q 488 51 509 45 q 460 173 463 112 q 458 202 458 188 q 471 295 458 247 q 514 391 483 344 q 591 473 545 439 q 698 528 637 508 q 831 548 758 548 q 892 544 862 548 q 957 530 922 539 l 922 397 q 873 408 896 405 q 828 412 851 412 q 732 395 777 412 q 656 347 688 378 q 608 271 624 316 q 595 198 595 237 q 597 172 595 185 q 648 159 623 165 q 700 145 673 152 q 757 131 727 138 q 824 114 787 123 q 907 66 882 100 q 932 -18 932 33 q 913 -167 932 -103 q 850 -273 893 -230 q 737 -336 806 -315 q 569 -358 668 -358 l 436 -358 q 339 -346 385 -358 q 252 -313 292 -335 q 178 -260 211 -291 q 118 -189 144 -229 q 57 42 57 -90 q 81 214 57 124 q 157 408 106 304 l 279 349 q 216 185 237 259 q 195 45 195 111 q 237 -115 195 -49 q 319 -192 267 -165 q 436 -218 372 -218 l 569 -218 z "},"ﻰ":{"ha":1128,"x_min":57,"x_max":1140,"o":"m 945 -9 q 979 -60 968 -33 q 990 -110 990 -86 q 959 -212 990 -167 q 874 -290 927 -258 q 749 -340 820 -323 q 597 -358 677 -358 l 436 -358 q 339 -346 385 -358 q 252 -313 292 -335 q 178 -260 211 -291 q 118 -189 144 -229 q 57 42 57 -90 q 79 212 57 124 q 152 405 102 300 l 275 345 q 239 260 254 301 q 214 183 223 220 q 199 112 204 146 q 195 45 195 78 q 237 -115 195 -49 q 319 -192 267 -165 q 436 -218 372 -218 l 597 -218 q 693 -208 648 -218 q 771 -181 737 -198 q 825 -141 805 -164 q 847 -92 845 -118 q 799 -56 829 -71 q 731 -32 768 -41 q 650 -17 693 -22 q 563 -9 607 -11 l 568 129 l 1140 129 l 1140 -9 l 945 -9 z "},"ﻻ":{"ha":803,"x_min":78,"x_max":715,"o":"m 78 -8 l 78 130 l 339 130 q 462 143 415 130 q 534 186 509 156 q 568 264 560 215 q 577 383 577 312 l 577 900 l 715 900 l 715 383 q 712 308 715 347 q 703 232 710 270 q 681 160 695 194 q 641 97 666 126 l 642 97 q 523 17 597 43 q 339 -8 449 -8 l 78 -8 m 158 210 l 113 877 l 250 893 l 295 210 l 158 210 z "},"ﻼ":{"ha":842,"x_min":76,"x_max":857,"o":"m 76 -8 l 76 130 l 337 130 q 460 143 414 130 q 533 186 507 156 q 567 264 558 215 q 575 383 575 312 l 575 900 l 713 900 l 713 239 q 720 194 713 215 q 741 160 728 174 q 774 137 755 145 q 816 129 794 129 l 857 129 l 857 -9 l 816 -9 q 708 17 755 -9 q 627 86 661 43 q 511 16 581 40 q 337 -8 440 -8 l 76 -8 m 153 210 l 108 877 l 245 893 l 290 210 l 153 210 z "},"ـ":{"ha":271,"x_min":-16,"x_max":287,"o":"m 270 129 q 287 114 287 129 l 287 6 q 270 -9 287 -9 l 0 -9 q -16 6 -16 -9 l -16 114 q 0 129 -16 129 l 270 129 z "},"ٮ":{"ha":1258,"x_min":55,"x_max":1223,"o":"m 1188 473 q 1199 418 1193 449 q 1211 353 1205 386 q 1220 288 1216 319 q 1223 234 1223 256 q 1203 125 1223 171 q 1149 49 1182 79 q 1074 5 1116 20 q 991 -9 1032 -9 l 290 -9 q 203 6 244 -9 q 130 52 162 22 q 104 81 117 64 q 80 121 90 98 q 62 173 69 144 q 55 239 55 203 q 62 310 55 271 q 76 382 68 348 q 92 442 84 417 q 101 472 99 467 l 233 431 q 222 394 229 417 q 209 342 215 370 q 198 287 203 315 q 193 239 193 259 q 205 179 193 201 q 234 146 218 157 q 266 132 250 134 q 292 129 283 129 l 995 129 q 1019 131 1003 129 q 1051 144 1035 134 q 1079 176 1067 155 q 1090 234 1090 196 q 1087 275 1090 249 q 1079 329 1084 301 q 1068 386 1074 357 q 1057 437 1062 414 l 1188 473 z "},"ٯ":{"ha":1009,"x_min":57,"x_max":929,"o":"m 434 -348 q 338 -337 384 -348 q 252 -304 292 -326 q 178 -251 211 -282 q 119 -180 144 -220 q 73 -78 89 -131 q 57 41 57 -24 q 80 209 57 122 q 153 398 102 296 l 277 340 q 214 179 234 251 q 194 40 194 107 q 205 -40 194 -6 q 236 -107 215 -74 q 318 -183 266 -157 q 434 -210 370 -210 l 481 -210 q 635 -196 574 -210 q 732 -152 696 -181 q 757 -126 746 -140 q 776 -96 768 -112 q 787 -58 783 -79 q 792 -9 791 -37 l 692 -9 q 599 3 646 -9 q 514 46 552 16 q 451 125 475 76 q 427 248 427 175 q 443 358 427 305 q 493 452 460 411 q 575 519 526 494 q 688 544 624 544 q 798 517 752 544 q 873 448 843 491 q 916 348 902 404 q 929 231 929 292 l 929 0 q 922 -83 929 -45 q 902 -153 915 -121 q 867 -211 888 -184 q 818 -259 847 -237 q 757 -298 790 -282 q 683 -325 723 -314 q 594 -342 643 -336 q 487 -348 546 -348 l 434 -348 m 688 413 q 635 401 658 413 q 596 368 612 390 q 572 316 580 347 q 563 248 563 286 q 575 188 563 210 q 610 151 588 165 q 633 140 621 144 q 657 133 645 136 q 677 130 668 131 q 692 129 686 129 l 792 129 l 792 231 q 786 306 792 275 q 771 357 780 336 q 751 388 762 377 q 728 405 739 400 q 705 412 716 410 q 688 413 694 413 z "},"٠":{"ha":699,"x_min":104,"x_max":600,"o":"m 351 112 q 255 131 300 112 q 176 185 210 151 q 123 264 143 218 q 104 360 104 309 q 123 456 104 412 q 176 535 143 501 q 255 588 210 569 q 351 607 300 607 q 448 588 402 607 q 527 535 493 569 q 580 456 561 501 q 600 360 600 412 q 580 264 600 309 q 527 185 561 218 q 448 131 493 151 q 351 112 402 112 m 351 473 q 307 465 328 473 q 271 440 287 456 q 247 404 256 425 q 239 360 239 384 q 247 316 239 337 q 271 280 256 295 q 307 255 287 265 q 351 246 328 246 q 395 255 374 246 q 432 280 416 265 q 457 316 448 295 q 466 360 466 337 q 457 404 466 384 q 432 440 448 425 q 395 465 416 456 q 351 473 374 473 z "},"١":{"ha":397,"x_min":76,"x_max":296,"o":"m 155 -9 q 155 42 155 13 q 157 96 155 71 l 157 95 q 158 158 157 126 q 158 227 158 191 q 156 373 158 296 q 145 533 153 450 q 120 703 136 616 q 76 881 104 791 l 206 924 q 255 730 237 824 q 282 548 273 636 q 294 378 291 460 q 296 225 296 297 q 296 156 296 189 q 295 93 295 123 q 294 40 294 68 q 294 -9 294 12 l 155 -9 z "},"٢":{"ha":747,"x_min":72,"x_max":679,"o":"m 639 921 q 647 893 641 915 q 661 840 653 871 q 673 773 668 809 q 679 706 679 737 q 658 598 679 644 q 605 521 638 552 q 530 477 572 491 q 447 462 489 462 q 362 476 401 462 q 290 509 323 489 q 306 291 303 393 q 308 107 308 189 l 308 60 q 307 24 307 44 q 307 -10 307 4 l 170 -10 l 170 133 q 168 294 170 208 q 155 474 165 380 q 125 670 145 569 q 72 879 105 772 l 203 921 l 231 836 q 237 818 231 836 q 254 774 242 800 q 283 717 265 747 q 324 660 301 686 q 379 617 348 634 q 447 600 409 600 q 471 603 455 600 q 503 616 487 605 q 530 648 518 627 q 542 706 542 669 q 539 752 542 727 q 529 801 535 777 q 517 846 523 825 q 508 879 511 867 l 639 921 z "},"٣":{"ha":944,"x_min":41,"x_max":864,"o":"m 825 920 q 837 874 831 898 q 848 825 843 851 q 857 770 854 799 q 863 706 861 741 q 864 687 864 696 q 855 610 864 650 q 824 538 847 571 q 763 484 801 504 q 673 463 726 463 q 632 468 654 463 q 588 482 610 472 q 544 509 566 492 q 503 550 522 525 q 439 491 475 511 q 370 465 403 472 l 371 465 q 351 461 361 462 q 330 460 340 460 q 261 474 295 460 q 272 283 270 373 q 274 119 274 192 l 274 -9 l 136 -9 l 136 107 q 135 216 136 157 q 131 341 134 275 q 122 476 128 407 q 105 614 116 545 q 79 751 95 684 q 41 879 63 818 l 172 922 q 184 881 178 900 q 195 843 189 862 q 206 802 200 823 q 218 754 211 780 q 236 700 225 728 q 262 649 247 672 q 298 612 278 626 q 336 600 315 600 l 342 600 q 374 612 359 602 q 398 642 388 621 q 414 694 408 662 q 420 775 420 727 q 419 829 420 802 q 414 895 418 856 l 551 907 q 568 773 558 830 q 591 677 577 715 q 624 620 604 639 q 673 601 644 601 q 715 623 703 601 q 726 684 726 645 q 726 695 726 689 q 725 707 726 701 q 720 758 724 732 q 710 807 715 783 q 700 849 705 830 q 691 881 694 869 l 825 920 z "},"٤":{"ha":701,"x_min":52,"x_max":630,"o":"m 414 -10 q 236 28 307 -10 q 138 131 166 66 q 121 206 121 167 q 122 234 121 210 q 139 297 123 257 q 183 372 155 337 q 244 433 211 407 q 215 441 229 436 q 188 451 201 446 q 137 478 161 461 q 94 516 112 494 q 64 565 75 538 q 52 624 52 592 q 70 700 52 665 q 116 765 87 735 q 182 819 145 794 q 258 865 218 844 q 336 902 297 885 q 407 931 374 918 l 451 799 q 359 763 406 785 q 272 717 311 741 q 210 667 234 693 q 190 626 190 645 q 191 619 190 622 q 207 595 193 607 q 250 574 222 583 q 324 560 279 566 q 431 554 368 554 q 454 554 442 554 l 479 554 l 500 420 q 405 373 453 400 q 322 316 358 347 q 270 253 287 285 q 259 214 259 233 q 265 186 259 200 q 282 163 269 174 q 314 145 295 153 q 358 133 333 137 q 413 128 383 128 q 488 136 449 128 q 578 164 527 143 l 630 35 q 566 12 596 21 q 509 -1 536 4 q 459 -8 483 -6 q 414 -10 436 -10 z "},"٥":{"ha":836,"x_min":52,"x_max":784,"o":"m 412 -10 q 274 11 340 -10 q 159 75 209 32 q 81 181 109 118 q 52 323 52 243 q 72 436 52 378 q 123 553 91 493 q 196 676 155 613 q 281 804 237 738 l 335 883 l 388 857 q 555 747 480 812 q 684 603 629 683 q 759 461 733 530 q 784 323 784 391 q 759 179 784 242 q 686 74 733 117 q 573 10 639 32 q 434 -10 510 -10 l 412 -10 m 569 527 q 498 613 544 565 q 381 705 452 660 q 309 596 343 648 q 248 496 275 544 q 206 405 222 448 q 191 323 191 361 q 206 239 191 276 q 252 177 222 203 q 326 139 282 152 q 425 126 369 126 q 519 137 478 126 q 588 172 560 148 q 632 233 617 196 q 646 323 646 270 q 626 421 646 370 q 569 527 606 473 z "},"٦":{"ha":763,"x_min":35,"x_max":697,"o":"m 566 -33 q 520 154 540 55 q 487 361 500 254 q 476 500 480 432 q 472 636 472 567 q 473 700 472 671 q 475 763 473 729 q 390 752 438 757 q 285 747 341 747 q 165 754 226 747 q 35 780 104 760 l 74 913 q 184 891 131 896 q 289 886 237 886 q 372 890 332 886 q 445 898 412 893 q 500 907 477 903 q 532 914 523 912 q 535 914 533 914 q 537 914 536 914 l 540 914 l 621 844 q 613 741 616 792 q 610 641 610 691 q 617 464 610 551 q 636 295 624 376 q 663 140 648 213 q 697 6 679 67 l 566 -33 z "},"٧":{"ha":879,"x_min":54,"x_max":835,"o":"m 835 850 q 710 658 768 770 q 604 407 652 546 q 566 289 583 348 q 538 176 550 230 q 520 73 527 121 q 514 -11 514 25 l 376 -11 q 370 73 376 25 q 352 176 364 121 q 324 289 340 230 q 287 407 307 348 q 179 657 238 545 q 54 848 120 768 l 160 937 q 231 836 196 894 q 298 713 266 779 q 360 574 331 646 q 416 427 390 501 q 425 403 421 413 q 432 384 429 393 q 437 364 434 374 q 445 340 441 354 q 459 384 452 362 q 474 427 466 405 q 529 574 500 501 q 591 713 559 646 q 657 837 622 779 q 729 939 692 895 l 835 850 z "},"٨":{"ha":896,"x_min":54,"x_max":845,"o":"m 609 493 q 659 360 632 424 q 717 239 687 296 q 779 132 747 181 q 845 43 811 83 l 738 -45 q 667 57 702 -2 q 598 183 631 116 q 535 326 565 251 q 478 475 504 400 q 469 500 473 490 q 463 519 466 510 q 457 538 460 528 q 449 563 454 548 q 435 518 443 540 q 420 475 427 496 q 364 327 394 402 q 301 184 334 253 q 233 57 268 116 q 162 -45 198 -2 l 54 43 q 118 131 86 81 q 181 239 150 181 q 239 361 211 297 q 290 493 266 426 q 326 608 310 551 q 355 720 343 666 q 373 820 367 773 q 380 902 380 867 l 518 902 q 524 820 518 866 q 543 720 531 773 q 572 610 555 667 q 609 493 588 552 z "},"٩":{"ha":641,"x_min":51,"x_max":585,"o":"m 456 -44 q 435 40 444 -11 q 420 151 426 90 q 409 278 414 211 q 403 410 405 345 l 304 410 q 213 424 258 410 q 132 466 168 437 q 73 541 95 495 q 51 653 51 587 q 69 767 51 717 q 120 854 87 818 q 199 908 153 889 q 299 926 244 926 q 405 904 360 926 q 479 842 449 881 q 524 750 509 803 q 539 636 539 698 q 542 413 539 516 q 551 229 545 310 q 566 90 557 147 q 585 4 574 33 l 456 -44 m 402 549 q 400 596 400 574 q 400 636 400 617 q 395 698 400 672 q 380 741 389 724 q 359 769 371 759 q 336 785 348 780 q 315 793 325 791 q 299 794 306 794 q 251 785 273 794 q 213 757 229 775 q 188 713 197 739 q 179 653 179 687 q 191 605 179 625 q 222 573 203 586 q 262 555 241 561 q 304 549 284 549 l 402 549 z "},"۴":{"ha":876,"x_min":45,"x_max":813,"o":"m 634 574 q 708 578 672 574 q 782 588 744 581 l 813 463 q 753 448 783 455 q 690 437 723 441 q 621 430 658 432 q 539 427 583 427 q 399 439 470 427 q 265 480 328 450 q 272 385 270 428 q 277 304 275 342 q 279 231 278 266 q 280 159 280 196 q 279 81 280 122 q 279 -9 279 40 l 141 -9 q 141 176 141 90 q 137 339 140 262 q 127 485 133 415 q 110 619 121 554 q 83 749 99 685 q 45 879 67 813 l 178 922 q 205 820 194 871 q 232 715 217 770 q 248 670 238 689 q 271 638 258 651 q 299 616 283 624 q 333 600 314 607 q 319 648 324 622 q 314 707 314 675 q 336 807 314 763 q 393 883 358 852 q 471 931 427 914 q 560 948 515 948 q 624 939 596 948 q 678 918 653 931 q 728 889 704 905 q 780 857 753 872 l 715 741 q 659 773 682 760 q 618 795 636 787 q 587 806 600 803 q 560 809 573 809 q 519 802 540 809 q 480 782 498 795 q 451 750 463 769 q 439 707 439 731 q 457 642 439 668 q 503 602 475 617 q 565 580 530 586 q 634 574 600 574 z "},"۵":{"ha":888,"x_min":58,"x_max":822,"o":"m 365 961 q 390 941 369 958 q 444 894 412 924 q 518 823 477 864 q 601 732 559 782 q 682 626 643 682 q 753 507 722 569 q 803 380 784 446 q 822 249 822 315 q 814 173 822 206 q 794 115 806 140 q 766 72 781 90 q 735 42 751 54 l 736 42 q 668 4 706 17 q 592 -9 631 -9 l 588 -9 q 513 3 550 -9 q 444 42 475 16 q 359 -4 407 8 q 301 -11 330 -11 q 247 -5 282 -11 q 170 28 213 1 q 100 100 127 55 q 77 148 85 124 q 64 193 69 172 q 59 228 60 213 q 58 251 58 244 q 72 368 58 311 q 109 479 86 426 q 161 582 132 533 q 221 673 191 631 q 281 750 252 715 q 333 808 310 784 l 280 850 l 365 961 m 648 148 q 679 188 666 164 q 692 249 692 213 q 681 334 692 290 q 649 420 669 377 q 604 504 629 463 q 548 585 578 546 q 489 659 519 624 q 430 724 458 694 q 384 672 410 703 q 332 605 359 642 q 279 525 305 568 q 233 437 253 483 q 200 345 213 392 q 188 251 188 297 q 202 192 188 220 q 238 146 215 163 q 291 126 261 128 l 295 126 q 354 147 323 126 q 368 165 363 153 q 375 190 372 177 q 378 218 378 204 q 378 246 378 233 q 376 277 378 265 q 372 303 374 290 l 510 329 q 515 289 513 306 q 516 248 516 272 q 515 217 516 234 q 511 184 515 200 q 515 173 511 181 q 522 160 519 165 q 548 138 532 146 q 581 129 564 130 l 588 129 q 618 133 603 129 q 648 148 634 137 z "},"۶":{"ha":726,"x_min":68,"x_max":672,"o":"m 672 625 l 624 577 q 593 542 616 569 q 540 475 571 516 q 472 380 509 434 q 396 262 435 326 q 318 125 357 198 q 245 -25 278 52 l 119 30 q 171 140 142 85 q 232 247 201 195 q 294 347 263 299 q 350 434 324 395 q 340 433 345 433 q 330 433 336 433 q 277 437 304 433 q 223 449 249 440 q 172 470 196 457 q 129 504 148 484 q 81 585 95 540 q 68 661 68 622 q 70 696 68 669 q 91 767 71 723 q 146 848 111 812 q 192 880 168 867 q 243 903 215 893 q 302 920 270 912 q 371 937 334 928 l 401 802 q 354 792 378 797 q 309 781 330 787 q 270 766 287 775 q 241 747 252 758 q 217 714 226 734 q 205 674 207 694 q 203 657 203 665 q 207 627 203 644 q 225 592 211 609 q 239 580 230 586 q 261 570 248 574 q 290 563 274 565 q 310 561 300 561 q 326 562 318 561 q 421 594 370 564 q 528 677 472 624 l 579 726 l 672 625 z "},"ﮨ":{"ha":465,"x_min":-9,"x_max":394,"o":"m 307 -386 q 298 -420 306 -405 q 275 -446 289 -435 q 244 -464 261 -458 q 210 -470 227 -470 q 162 -460 182 -470 q 128 -432 141 -449 q 107 -390 114 -414 q 100 -342 100 -367 q 141 -212 100 -274 q 254 -102 182 -150 l 287 -152 q 252 -179 270 -164 q 219 -212 234 -195 q 194 -247 204 -230 q 184 -278 184 -265 l 184 -282 q 192 -303 184 -294 q 223 -314 201 -312 q 256 -321 242 -316 q 282 -334 271 -326 q 299 -355 292 -342 q 307 -386 305 -367 m 348 516 q 353 496 349 513 q 362 455 357 479 q 373 400 367 430 q 383 341 378 371 q 391 283 388 311 q 394 234 394 254 q 373 125 394 171 q 319 49 352 79 q 244 5 286 20 q 161 -9 203 -9 l -9 -9 l -9 129 l 165 129 q 190 131 174 129 q 222 144 206 134 q 249 176 237 155 q 261 234 261 196 q 258 268 261 247 q 252 313 256 289 q 243 362 248 337 q 233 410 238 388 q 224 449 229 432 q 217 477 220 467 l 348 516 z "},"ﮩ":{"ha":758,"x_min":-14,"x_max":771,"o":"m 270 14 q 283 -63 271 -21 q 315 -147 295 -105 q 360 -225 335 -189 q 417 -285 386 -262 q 407 -194 407 -241 l 407 -188 q 416 -99 407 -143 q 444 -14 425 -55 q 491 59 463 28 q 559 109 520 90 q 646 129 597 128 l 771 129 l 771 -9 l 648 -9 q 601 -40 622 -20 q 564 -87 580 -61 q 541 -145 549 -114 q 532 -209 532 -176 q 532 -241 532 -226 q 534 -272 532 -257 q 542 -302 537 -287 q 559 -333 548 -317 l 505 -437 q 398 -419 447 -437 q 310 -371 350 -402 q 240 -300 271 -341 q 188 -212 210 -259 q 152 -113 165 -165 q 133 -9 138 -61 l -14 -9 l -14 129 l 265 129 l 270 14 z "},"ھ":{"ha":997,"x_min":58,"x_max":982,"o":"m 637 677 q 770 537 709 602 q 821 481 795 509 q 870 427 847 453 q 909 381 892 402 q 934 348 926 360 q 970 276 958 310 q 982 203 982 241 q 977 163 982 186 q 968 120 973 140 q 933 52 956 83 q 878 -2 910 21 q 805 -37 845 -25 q 720 -50 765 -50 q 628 -39 676 -50 q 531 -3 580 -27 q 507 8 518 3 q 486 18 497 13 q 469 27 476 23 q 370 3 429 15 q 237 -9 310 -9 q 152 -4 198 -9 q 58 12 107 1 l 83 145 q 170 133 134 136 q 232 129 206 129 q 270 130 253 129 q 301 133 287 131 q 244 218 263 172 q 225 323 225 265 q 244 415 225 372 q 295 489 262 458 q 372 537 327 520 q 468 554 416 554 q 541 543 508 554 q 601 513 574 532 q 648 470 628 494 q 682 419 668 445 q 702 365 695 392 q 709 314 709 338 q 687 199 709 251 q 621 108 665 148 q 670 95 644 100 q 720 90 696 90 q 754 93 737 90 q 786 104 771 96 q 814 125 801 112 q 836 157 826 138 q 843 190 843 172 q 822 261 843 222 q 765 343 801 301 q 686 431 730 386 q 596 522 642 477 l 597 522 l 537 581 l 637 677 m 355 323 q 362 277 355 297 q 382 237 368 256 q 418 202 396 218 q 471 169 439 185 q 511 193 492 179 q 544 227 530 208 q 566 268 557 246 q 574 314 574 290 q 562 363 574 343 q 534 395 551 383 q 499 413 517 407 q 468 418 481 418 q 425 411 445 418 q 389 391 404 404 q 364 361 373 378 q 355 323 355 343 z "},"ﮪ":{"ha":997,"x_min":58,"x_max":982,"o":"m 637 677 q 770 537 709 602 q 821 481 795 509 q 870 427 847 453 q 909 381 892 402 q 934 348 926 360 q 970 276 958 310 q 982 203 982 241 q 977 163 982 186 q 968 120 973 140 q 933 52 956 83 q 878 -2 910 21 q 805 -37 845 -25 q 720 -50 765 -50 q 628 -39 676 -50 q 531 -3 580 -27 q 507 8 518 3 q 486 18 497 13 q 469 27 476 23 q 370 3 429 15 q 237 -9 310 -9 q 152 -4 198 -9 q 58 12 107 1 l 83 145 q 170 133 134 136 q 232 129 206 129 q 270 130 253 129 q 301 133 287 131 q 244 218 263 172 q 225 323 225 265 q 244 415 225 372 q 295 489 262 458 q 372 537 327 520 q 468 554 416 554 q 541 543 508 554 q 601 513 574 532 q 648 470 628 494 q 682 419 668 445 q 702 365 695 392 q 709 314 709 338 q 687 199 709 251 q 621 108 665 148 q 670 95 644 100 q 720 90 696 90 q 754 93 737 90 q 786 104 771 96 q 814 125 801 112 q 836 157 826 138 q 843 190 843 172 q 822 261 843 222 q 765 343 801 301 q 686 431 730 386 q 596 522 642 477 l 597 522 l 537 581 l 637 677 m 355 323 q 362 277 355 297 q 382 237 368 256 q 418 202 396 218 q 471 169 439 185 q 511 193 492 179 q 544 227 530 208 q 566 268 557 246 q 574 314 574 290 q 562 363 574 343 q 534 395 551 383 q 499 413 517 407 q 468 418 481 418 q 425 411 445 418 q 389 391 404 404 q 364 361 373 378 q 355 323 355 343 z "},"ے":{"ha":1061,"x_min":60,"x_max":1051,"o":"m 1051 -220 l 1051 -358 l 318 -358 q 216 -340 263 -358 q 134 -290 169 -323 q 80 -211 99 -258 q 60 -109 60 -165 q 81 -15 60 -59 q 139 60 103 28 q 221 110 174 92 q 318 129 268 129 l 582 129 l 582 -9 l 323 -9 q 273 -17 298 -9 q 229 -39 248 -25 q 197 -73 209 -54 q 185 -116 185 -93 q 197 -159 185 -140 q 228 -192 209 -178 q 271 -213 247 -205 q 318 -220 294 -220 l 1051 -220 z "},"ﮮ":{"ha":1061,"x_min":60,"x_max":1051,"o":"m 1051 -220 l 1051 -358 l 318 -358 q 216 -340 263 -358 q 134 -290 169 -323 q 80 -211 99 -258 q 60 -109 60 -165 q 81 -15 60 -59 q 139 60 103 28 q 221 110 174 92 q 318 129 268 129 l 582 129 l 582 -9 l 323 -9 q 273 -17 298 -9 q 229 -39 248 -25 q 197 -73 209 -54 q 185 -116 185 -93 q 197 -159 185 -140 q 228 -192 209 -178 q 271 -213 247 -205 q 318 -220 294 -220 l 1051 -220 z "},"ﮯ":{"ha":845,"x_min":57,"x_max":855,"o":"m 829 -220 l 829 -358 l 315 -358 q 213 -340 260 -358 q 131 -290 165 -323 q 76 -211 96 -258 q 57 -109 57 -165 q 78 -15 57 -59 q 135 60 100 28 q 218 110 171 92 q 315 129 265 129 l 855 129 l 855 -9 l 320 -9 q 271 -17 295 -9 q 229 -39 247 -25 q 199 -73 210 -54 q 188 -116 188 -93 q 199 -159 188 -140 q 228 -192 210 -178 q 268 -213 246 -205 q 315 -220 291 -220 l 829 -220 z "},"ک":{"ha":1270,"x_min":46,"x_max":1270,"o":"m 884 129 q 925 131 905 129 q 959 137 944 133 q 985 147 975 141 q 998 160 995 153 q 1003 184 1003 169 q 977 264 1003 216 q 899 371 952 313 q 785 485 840 437 q 689 562 731 532 q 623 606 648 592 q 597 621 598 621 l 600 744 l 1215 1011 l 1270 885 l 777 672 q 880 586 823 638 q 1001 462 937 533 q 1038 414 1021 439 q 1070 364 1056 389 q 1095 315 1084 338 q 1114 272 1106 291 q 1128 223 1124 246 q 1132 179 1132 199 q 1127 138 1132 157 q 1117 107 1122 119 q 1094 70 1110 90 q 1052 32 1079 50 q 984 3 1025 15 q 884 -9 943 -9 l 282 -9 q 194 6 235 -9 q 121 52 153 22 q 95 81 109 64 q 71 121 81 98 q 53 173 60 144 q 46 239 46 203 q 53 310 46 271 q 67 382 59 348 q 83 442 75 417 q 92 472 90 467 l 158 451 l 224 431 q 213 394 220 417 q 200 342 206 370 q 189 287 194 315 q 184 239 184 259 q 197 179 184 201 q 225 146 209 157 q 258 132 241 134 q 283 129 274 129 l 884 129 z "},"ﮎ":{"ha":1270,"x_min":46,"x_max":1270,"o":"m 884 129 q 925 131 905 129 q 959 137 944 133 q 985 147 975 141 q 998 160 995 153 q 1003 184 1003 169 q 977 264 1003 216 q 899 371 952 313 q 785 485 840 437 q 689 562 731 532 q 623 606 648 592 q 597 621 598 621 l 600 744 l 1215 1011 l 1270 885 l 777 672 q 880 586 823 638 q 1001 462 937 533 q 1038 414 1021 439 q 1070 364 1056 389 q 1095 315 1084 338 q 1114 272 1106 291 q 1128 223 1124 246 q 1132 179 1132 199 q 1127 138 1132 157 q 1117 107 1122 119 q 1094 70 1110 90 q 1052 32 1079 50 q 984 3 1025 15 q 884 -9 943 -9 l 282 -9 q 194 6 235 -9 q 121 52 153 22 q 95 81 109 64 q 71 121 81 98 q 53 173 60 144 q 46 239 46 203 q 53 310 46 271 q 67 382 59 348 q 83 442 75 417 q 92 472 90 467 l 158 451 l 224 431 q 213 394 220 417 q 200 342 206 370 q 189 287 194 315 q 184 239 184 259 q 197 179 184 201 q 225 146 209 157 q 258 132 241 134 q 283 129 274 129 l 884 129 z "},"ﮏ":{"ha":1378,"x_min":42,"x_max":1393,"o":"m 777 129 q 840 134 810 129 q 895 149 871 140 q 937 171 920 158 q 965 199 955 184 q 970 215 968 206 q 972 232 972 223 q 956 292 972 258 q 916 362 941 326 q 828 479 867 427 q 761 569 789 532 q 702 646 728 612 l 728 742 l 1316 1012 l 1372 886 l 866 653 q 903 599 885 626 q 945 542 922 573 q 999 469 968 510 q 1074 369 1030 427 q 1137 285 1110 321 q 1187 221 1164 248 q 1231 177 1210 194 q 1274 148 1252 159 q 1321 133 1295 138 q 1378 129 1346 129 l 1393 129 l 1393 -9 l 1378 -9 q 1280 1 1323 -9 q 1203 30 1237 11 q 1140 75 1169 49 q 1082 135 1110 102 q 1030 71 1064 101 q 953 23 996 42 q 869 -1 915 7 q 772 -9 822 -9 l 277 -9 q 190 6 231 -9 q 117 52 149 22 q 91 81 104 64 q 66 121 77 98 q 49 173 56 144 q 42 239 42 203 q 48 310 42 271 q 63 382 55 348 q 78 442 71 417 q 88 472 86 467 l 153 451 l 220 431 q 209 394 215 417 q 196 342 202 370 q 185 287 189 315 q 180 239 180 259 q 192 179 180 201 q 221 146 205 157 q 253 132 237 134 q 278 129 270 129 l 777 129 z "},"گ":{"ha":1270,"x_min":45,"x_max":1269,"o":"m 883 129 q 923 131 904 129 q 958 137 943 133 q 984 147 973 141 q 997 160 994 153 q 1001 184 1001 169 q 976 264 1001 216 q 898 371 951 313 q 784 485 838 437 q 688 562 730 532 q 622 606 646 592 q 596 621 597 621 l 599 744 l 1213 1011 l 1269 885 l 776 672 q 879 586 821 638 q 1000 462 936 533 q 1037 414 1020 439 q 1068 364 1054 389 q 1094 315 1083 338 q 1112 272 1105 291 q 1127 223 1122 246 q 1131 179 1131 199 q 1126 138 1131 157 q 1116 107 1121 119 q 1093 70 1109 90 q 1051 32 1078 50 q 982 3 1023 15 q 883 -9 941 -9 l 280 -9 q 193 6 234 -9 q 120 52 152 22 q 94 81 107 64 q 69 121 80 98 q 52 173 59 144 q 45 239 45 203 q 51 310 45 271 q 66 382 58 348 q 81 442 74 417 q 91 472 89 467 l 157 451 l 223 431 q 212 394 218 417 q 199 342 205 370 q 188 287 193 315 q 183 239 183 259 q 195 179 183 201 q 224 146 208 157 q 256 132 240 134 q 282 129 273 129 l 883 129 m 654 943 l 1148 1154 l 1179 1089 l 646 861 l 654 943 z "},"ﮒ":{"ha":1270,"x_min":45,"x_max":1269,"o":"m 883 129 q 923 131 904 129 q 958 137 943 133 q 984 147 973 141 q 997 160 994 153 q 1001 184 1001 169 q 976 264 1001 216 q 898 371 951 313 q 784 485 838 437 q 688 562 730 532 q 622 606 646 592 q 596 621 597 621 l 599 744 l 1213 1011 l 1269 885 l 776 672 q 879 586 821 638 q 1000 462 936 533 q 1037 414 1020 439 q 1068 364 1054 389 q 1094 315 1083 338 q 1112 272 1105 291 q 1127 223 1122 246 q 1131 179 1131 199 q 1126 138 1131 157 q 1116 107 1121 119 q 1093 70 1109 90 q 1051 32 1078 50 q 982 3 1023 15 q 883 -9 941 -9 l 280 -9 q 193 6 234 -9 q 120 52 152 22 q 94 81 107 64 q 69 121 80 98 q 52 173 59 144 q 45 239 45 203 q 51 310 45 271 q 66 382 58 348 q 81 442 74 417 q 91 472 89 467 l 157 451 l 223 431 q 212 394 218 417 q 199 342 205 370 q 188 287 193 315 q 183 239 183 259 q 195 179 183 201 q 224 146 208 157 q 256 132 240 134 q 282 129 273 129 l 883 129 m 654 943 l 1148 1154 l 1179 1089 l 646 861 l 654 943 z "},"ﮔ":{"ha":738,"x_min":-18,"x_max":732,"o":"m -18 -9 l -18 129 l 359 129 q 388 130 370 129 q 424 136 407 131 q 454 151 441 141 q 467 178 467 161 q 446 245 467 206 q 390 328 424 284 q 315 417 357 372 q 233 502 273 462 q 156 572 192 542 q 100 618 121 603 l 111 750 l 682 1002 l 732 882 l 248 669 q 301 616 271 646 q 364 553 331 586 q 429 482 396 519 q 490 409 461 446 q 541 338 519 373 q 576 272 564 303 q 590 223 586 246 q 595 179 595 199 q 590 137 595 155 q 580 107 585 119 q 557 70 573 90 q 515 32 542 50 q 448 3 489 15 q 348 -9 407 -9 l -18 -9 m 132 943 l 607 1149 l 636 1086 l 124 863 l 132 943 z "},"ﮕ":{"ha":785,"x_min":-15,"x_max":797,"o":"m 797 -9 l 778 -9 q 681 2 722 -9 q 607 33 640 13 q 547 80 574 52 q 490 140 519 107 q 467 106 481 123 q 437 74 454 89 q 402 46 421 59 q 361 23 382 33 q 277 -1 323 7 q 180 -9 230 -9 l -15 -9 l -15 129 l 189 129 q 253 134 222 129 q 309 149 284 140 q 353 171 335 158 q 381 199 372 184 q 386 215 384 206 q 388 233 388 224 q 375 281 388 252 q 340 344 362 309 q 289 417 318 379 q 231 493 261 455 q 171 565 201 530 q 118 626 142 599 l 143 745 l 711 1007 l 768 880 l 270 651 l 514 325 q 580 241 550 277 q 639 179 609 204 q 702 141 669 154 q 778 129 735 129 l 797 129 l 797 -9 m 163 937 l 638 1143 l 667 1080 l 155 857 l 163 937 z "},"ﮓ":{"ha":1378,"x_min":40,"x_max":1392,"o":"m 775 129 q 839 134 809 129 q 894 149 869 140 q 936 171 919 158 q 963 199 954 184 q 968 215 967 206 q 970 232 970 223 q 955 292 970 258 q 915 362 939 326 q 827 479 866 427 q 759 569 788 532 q 701 646 727 612 l 727 742 l 1314 1012 l 1371 886 l 864 653 q 902 599 884 626 q 943 542 920 573 q 997 469 967 510 q 1073 369 1028 427 q 1136 285 1109 321 q 1186 221 1163 248 q 1230 177 1209 194 q 1272 148 1251 159 q 1319 133 1294 138 q 1377 129 1345 129 l 1392 129 l 1392 -9 l 1377 -9 q 1279 1 1321 -9 q 1202 30 1236 11 q 1138 75 1167 49 q 1081 135 1109 102 q 1028 71 1063 101 q 952 23 994 42 q 867 -1 914 7 q 771 -9 821 -9 l 276 -9 q 189 6 230 -9 q 116 52 148 22 q 89 81 103 64 q 65 121 76 98 q 47 173 54 144 q 40 239 40 203 q 47 310 40 271 q 62 382 54 348 q 77 442 69 417 q 86 472 85 467 l 152 451 l 218 431 q 207 394 214 417 q 194 342 201 370 q 183 287 188 315 q 179 239 179 259 q 191 179 179 201 q 219 146 203 157 q 252 132 235 134 q 277 129 268 129 l 775 129 m 777 937 l 1251 1143 l 1280 1080 l 769 857 l 777 937 z "},"ں":{"ha":985,"x_min":56,"x_max":922,"o":"m 432 -349 q 337 -338 383 -349 q 251 -305 291 -326 q 177 -252 211 -283 q 117 -181 143 -220 q 72 -73 88 -132 q 56 50 56 -15 q 61 131 56 91 q 78 214 67 172 q 108 302 90 257 q 150 399 126 348 l 275 340 q 238 257 253 295 q 212 184 222 219 q 197 116 202 149 q 193 51 193 83 q 234 -108 193 -43 q 317 -184 266 -157 q 432 -211 367 -211 l 560 -211 q 674 -196 630 -211 q 742 -155 718 -182 q 775 -91 766 -128 q 784 -7 784 -53 l 784 429 l 922 429 l 922 -7 q 831 -263 922 -177 q 560 -349 740 -349 l 432 -349 z "},"ﮞ":{"ha":985,"x_min":56,"x_max":922,"o":"m 432 -349 q 337 -338 383 -349 q 251 -305 291 -326 q 177 -252 211 -283 q 117 -181 143 -220 q 72 -73 88 -132 q 56 50 56 -15 q 61 131 56 91 q 78 214 67 172 q 108 302 90 257 q 150 399 126 348 l 275 340 q 238 257 253 295 q 212 184 222 219 q 197 116 202 149 q 193 51 193 83 q 234 -108 193 -43 q 317 -184 266 -157 q 432 -211 367 -211 l 560 -211 q 674 -196 630 -211 q 742 -155 718 -182 q 775 -91 766 -128 q 784 -7 784 -53 l 784 429 l 922 429 l 922 -7 q 831 -263 922 -177 q 560 -349 740 -349 l 432 -349 z "},"ﮟ":{"ha":1061,"x_min":57,"x_max":1073,"o":"m 433 -349 q 338 -338 384 -349 q 252 -305 292 -326 q 178 -252 212 -283 q 119 -181 144 -220 q 73 -78 89 -132 q 57 40 57 -25 q 82 211 57 122 q 156 402 107 299 l 280 343 q 215 181 237 254 q 194 40 194 107 q 204 -40 194 -6 q 235 -108 215 -75 q 318 -184 267 -157 q 433 -211 369 -211 l 564 -211 q 678 -198 634 -211 q 746 -160 722 -185 q 779 -99 770 -135 q 788 -17 788 -63 l 788 427 l 926 427 l 926 221 q 955 152 927 175 q 1030 129 984 129 l 1073 129 l 1073 -9 l 1030 -9 q 976 -7 1003 -9 q 926 13 949 -4 l 926 -17 q 835 -268 926 -187 q 564 -349 744 -349 l 433 -349 z "},"٪":{"ha":741,"x_min":52,"x_max":706,"o":"m 490 991 l 626 991 l 251 -1 l 116 -1 l 490 991 m 578 4 l 450 132 l 578 259 l 706 131 l 578 4 m 180 711 l 52 839 l 179 966 l 307 838 l 180 711 z "},"؟":{"ha":684,"x_min":57,"x_max":628,"o":"m 372 486 q 403 451 390 473 q 426 401 417 429 q 441 341 436 373 q 446 276 446 309 l 446 193 l 313 193 l 313 276 q 297 352 313 316 q 249 416 280 388 q 186 468 219 443 q 123 520 152 493 q 72 600 87 554 q 57 700 57 646 q 83 803 57 756 q 150 884 109 850 q 244 939 192 919 q 348 958 296 958 q 468 937 415 958 q 557 875 521 915 q 612 780 593 835 q 628 670 628 730 l 628 658 l 496 658 q 459 786 496 747 q 348 825 422 825 q 296 816 323 825 q 248 790 270 806 q 213 751 227 773 q 199 701 199 728 q 215 628 199 661 q 261 571 230 595 l 372 486 m 381 -109 l 274 0 l 385 110 l 492 0 l 381 -109 z "},"،":{"ha":366,"x_min":64,"x_max":302,"o":"m 302 95 q 292 56 302 74 q 266 25 282 38 q 230 4 251 11 q 189 -4 210 -4 q 136 9 160 -4 q 97 41 113 21 q 72 88 81 62 q 64 144 64 115 q 99 283 64 220 q 212 401 134 346 l 268 350 q 182 265 208 307 q 154 179 155 222 q 179 189 163 184 q 211 194 194 194 q 247 187 230 194 q 276 166 263 179 q 295 134 288 153 q 302 95 302 116 z "},"؛":{"ha":355,"x_min":44,"x_max":282,"o":"m 249 79 q 242 48 249 62 q 223 21 235 33 q 197 3 212 10 q 165 -3 182 -3 q 133 3 148 -3 q 107 21 118 10 q 89 47 95 32 q 82 79 82 62 q 89 111 82 96 q 107 138 95 126 q 133 156 118 149 q 165 162 148 162 q 197 155 182 162 q 223 137 212 148 q 242 110 235 126 q 249 79 249 95 m 282 360 q 272 321 282 339 q 246 290 262 303 q 210 269 230 277 q 170 262 190 262 q 115 274 139 262 q 76 307 92 286 q 52 354 60 327 q 44 410 44 380 q 165 639 44 562 l 222 587 q 184 555 200 573 q 158 518 168 537 q 143 481 147 499 q 140 461 140 470 q 141 449 140 455 q 192 456 166 456 q 237 446 217 456 q 270 415 258 436 q 282 363 282 395 l 282 360 z "},"٫":{"ha":439,"x_min":-31,"x_max":377,"o":"m 277 539 l 377 539 l 69 -144 l -31 -144 l 277 539 z "},"٬":{"ha":324,"x_min":20,"x_max":273,"o":"m 182 1 q 135 -9 158 -9 q 117 -8 132 -9 q 81 6 102 -7 q 49 41 61 18 q 34 93 36 64 q 43 136 34 117 q 68 168 52 155 q 103 188 83 181 q 145 196 122 196 l 148 196 q 200 184 177 196 q 240 153 223 173 q 265 106 256 133 q 273 50 273 80 l 273 40 q 223 -115 273 -45 q 60 -241 172 -184 l 20 -167 q 140 -87 99 -129 q 182 1 181 -45 z "},"٭":{"ha":711,"x_min":52,"x_max":659,"o":"m 136 459 l 277 655 l 52 682 l 70 804 l 316 744 l 290 982 l 419 982 l 402 750 l 643 804 l 659 682 l 434 655 l 575 459 l 463 398 l 354 616 l 252 398 l 136 459 z "},"ً":{"ha":0,"x_min":-155,"x_max":155,"o":"m -155 1077 l 155 1192 l 155 1114 l -155 998 l -155 1077 m -155 1223 l 155 1338 l 155 1261 l -155 1145 l -155 1223 z "},"ٍ":{"ha":0,"x_min":-155,"x_max":155,"o":"m -155 -427 l 155 -312 l 155 -389 l -155 -506 l -155 -427 m -155 -281 l 155 -165 l 155 -243 l -155 -359 l -155 -281 z "},"َ":{"ha":0,"x_min":-155,"x_max":155,"o":"m -155 1077 l 155 1192 l 155 1114 l -155 998 l -155 1077 z "},"ُ":{"ha":0,"x_min":-182,"x_max":113,"o":"m -182 1029 q -137 1043 -161 1035 q -89 1061 -113 1051 q -42 1083 -65 1071 q -1 1110 -20 1095 q -55 1135 -31 1119 q -93 1173 -79 1152 q -111 1220 -108 1195 q -112 1232 -112 1226 q -104 1269 -112 1251 q -77 1307 -94 1289 q -39 1334 -59 1324 q 6 1345 -18 1344 l 10 1345 q 49 1335 30 1345 q 98 1288 83 1317 q 113 1225 113 1259 q 101 1156 113 1191 q 68 1092 88 1121 q 34 1056 54 1072 q -8 1027 15 1040 q -53 1003 -30 1013 q -97 985 -76 993 q -136 973 -118 978 q -164 964 -153 967 l -182 1029 m 10 1279 q -7 1277 3 1279 q -25 1271 -16 1275 q -41 1262 -33 1268 q -52 1247 -48 1256 q -55 1240 -55 1244 q -50 1224 -55 1234 q -32 1200 -45 1213 q 0 1176 -18 1186 q 39 1163 19 1165 q 47 1193 44 1174 q 51 1222 51 1208 q 50 1238 51 1227 q 40 1263 49 1249 q 10 1279 31 1277 z "},"ٌ":{"ha":0,"x_min":-268,"x_max":146,"o":"m -170 1051 q -160 1069 -166 1058 q -151 1094 -155 1081 q -148 1119 -148 1107 q -155 1142 -148 1132 q -172 1154 -162 1152 q -181 1155 -176 1155 q -194 1153 -186 1155 q -211 1146 -201 1152 q -227 1137 -221 1141 l -268 1177 q -259 1187 -266 1179 q -239 1201 -251 1194 q -211 1214 -227 1208 q -180 1218 -197 1218 l -176 1218 q -135 1206 -153 1217 q -106 1175 -117 1195 q -93 1128 -94 1153 l -93 1118 q -97 1080 -93 1098 q -65 1090 -81 1084 q -32 1103 -48 1096 q 0 1117 -15 1110 q 29 1133 16 1125 q 28 1134 28 1133 q -24 1160 -2 1143 q -60 1198 -47 1177 q -75 1242 -73 1218 q -76 1251 -76 1247 q -66 1289 -76 1270 q -40 1325 -57 1308 q -3 1351 -24 1342 q 40 1363 17 1361 l 47 1363 q 83 1355 65 1363 q 128 1313 114 1340 q 145 1254 143 1285 l 146 1243 q 137 1186 146 1216 q 110 1128 128 1155 q 74 1091 97 1108 q 26 1061 52 1074 q -26 1037 1 1047 q -76 1020 -53 1027 q -115 1009 -98 1013 q -136 1004 -131 1005 l -170 1051 m 45 1299 q 29 1296 38 1299 q 11 1289 20 1294 q -6 1278 2 1285 q -18 1265 -13 1272 l -18 1261 q -9 1235 -18 1247 q 14 1214 -1 1223 q 44 1198 28 1205 q 71 1186 59 1191 q 75 1207 73 1196 q 79 1229 78 1218 q 80 1244 80 1237 q 79 1256 80 1248 q 75 1273 79 1263 q 64 1290 72 1282 q 45 1299 56 1299 z "},"ِ":{"ha":0,"x_min":-155,"x_max":155,"o":"m -155 -281 l 155 -165 l 155 -243 l -155 -359 l -155 -281 z "},"ّ":{"ha":0,"x_min":-202,"x_max":196,"o":"m -82 1064 q -170 1096 -138 1064 q -202 1182 -202 1127 l -202 1246 l -138 1246 l -138 1182 q -125 1140 -138 1153 q -82 1128 -112 1128 q -70 1129 -78 1128 q -54 1136 -62 1131 q -40 1153 -46 1142 q -35 1182 -35 1164 l -35 1246 l 30 1246 l 30 1182 q 43 1140 30 1153 q 86 1127 56 1127 q 98 1129 91 1127 q 114 1137 106 1131 q 127 1153 121 1143 q 132 1182 132 1164 q 130 1205 132 1193 q 124 1229 128 1217 q 118 1253 121 1242 q 114 1270 116 1263 l 173 1290 q 177 1275 174 1287 q 185 1248 181 1264 q 193 1215 189 1232 q 196 1182 196 1198 q 186 1130 196 1152 q 160 1093 176 1107 q 125 1071 145 1078 q 85 1064 105 1064 q -3 1096 28 1064 q -40 1072 -20 1080 q -82 1064 -61 1064 z "},"ْ":{"ha":0,"x_min":-145,"x_max":146,"o":"m -1 1052 q -61 1061 -34 1052 q -106 1089 -87 1071 q -135 1133 -125 1107 q -145 1191 -145 1158 q -135 1250 -145 1223 q -106 1294 -125 1276 q -61 1322 -87 1313 q -1 1332 -34 1332 q 57 1322 30 1332 q 104 1294 84 1313 q 135 1250 124 1276 q 146 1192 146 1224 q 135 1134 146 1160 q 105 1089 124 1107 q 58 1061 85 1071 q 3 1052 33 1052 l -1 1052 m -1 1123 q 27 1128 13 1123 q 50 1140 40 1132 q 65 1162 59 1149 q 71 1191 71 1174 q 65 1220 71 1207 q 50 1242 59 1233 q 27 1256 40 1251 q -1 1261 13 1261 q -30 1256 -16 1261 q -53 1242 -44 1251 q -69 1220 -63 1233 q -75 1191 -75 1207 q -55 1140 -75 1157 q -1 1123 -35 1123 z "},"ٓ":{"ha":0,"x_min":-311,"x_max":268,"o":"m 268 1013 l -42 1013 q -107 1010 -80 1013 q -151 997 -133 1007 q -181 970 -169 988 q -202 922 -193 952 l -311 955 q -267 1045 -295 1008 q -201 1101 -239 1081 q -129 1122 -169 1117 q -42 1128 -89 1128 l 268 1128 l 268 1013 z "},"ٔ":{"ha":0,"x_min":-164,"x_max":136,"o":"m -164 946 l -164 1030 l -90 1052 q -125 1097 -111 1071 q -138 1151 -138 1122 q -131 1192 -138 1172 q -111 1230 -124 1213 q -81 1259 -98 1247 q -43 1277 -63 1271 l -44 1277 q -22 1282 -33 1280 q -1 1283 -12 1283 q 42 1277 23 1283 q 80 1263 62 1270 l 63 1194 q 31 1202 47 1198 q 0 1206 15 1206 q -19 1203 -9 1206 q -38 1193 -28 1199 q -53 1179 -47 1187 q -61 1160 -59 1170 q -62 1152 -62 1157 q -60 1138 -62 1145 q -34 1108 -54 1121 q 20 1096 -15 1096 q 34 1097 27 1096 q 55 1100 42 1097 q 85 1108 67 1103 q 131 1121 104 1112 l 136 1042 l -164 946 z "},"ٕ":{"ha":0,"x_min":-138,"x_max":162,"o":"m -138 -400 l -138 -316 l -64 -294 q -99 -249 -85 -275 q -112 -195 -112 -224 q -105 -154 -112 -174 q -85 -116 -98 -133 q -55 -87 -73 -99 q -17 -69 -37 -74 l -18 -69 q 3 -64 -7 -66 q 25 -62 14 -62 q 68 -69 49 -62 q 106 -83 88 -76 l 89 -152 q 57 -144 73 -148 q 26 -140 41 -140 q 7 -143 16 -140 q -12 -153 -3 -147 q -27 -167 -21 -159 q -35 -186 -33 -176 q -37 -194 -37 -189 q -34 -208 -37 -201 q -9 -238 -28 -225 q 46 -250 11 -250 q 60 -249 52 -250 q 80 -246 68 -249 q 111 -238 93 -243 q 157 -225 129 -234 l 162 -304 l -138 -400 z "},"ٰ":{"ha":0,"x_min":-40,"x_max":39,"o":"m -40 1302 l 39 1302 l 39 1045 l -40 1045 l -40 1302 z "},"ٖ":{"ha":0,"x_min":-40,"x_max":39,"o":"m -40 -246 l 39 -246 l 39 -504 l -40 -504 l -40 -246 z "},"ؕ":{"ha":0,"x_min":-218,"x_max":164,"o":"m -218 758 l -218 818 l -153 818 q -139 840 -146 830 q -125 862 -132 850 l -125 1170 l -66 1170 l -66 947 q -14 992 -42 974 q 49 1009 14 1009 q 90 1002 69 1009 q 127 977 111 994 q 153 936 143 961 q 164 876 164 910 q 152 821 164 843 q 124 784 141 798 q 86 764 107 770 q 45 758 66 758 l -218 758 m 49 949 q 13 937 30 949 q -22 906 -5 925 q -54 864 -39 887 q -82 818 -69 840 l 45 818 q 86 832 70 818 q 103 876 103 846 q 89 931 103 912 q 49 949 75 949 z "},"ﺪ":{"ha":782,"x_min":35,"x_max":795,"o":"m 795 129 l 795 -9 l 779 -9 q 606 65 686 -9 q 556 24 586 41 q 441 -11 509 -2 q 392 -17 417 -15 q 342 -18 367 -18 q 266 -15 303 -18 q 227 -9 248 -13 q 183 -1 206 -6 q 138 14 160 5 q 95 33 116 22 l 35 68 l 104 188 l 164 153 q 199 138 179 145 q 243 128 220 132 q 292 122 266 124 q 342 120 317 120 q 424 124 388 120 q 481 140 460 128 q 504 172 502 151 l 504 176 q 485 227 504 196 q 395 365 435 304 q 328 466 355 426 q 289 525 301 506 q 278 540 278 539 l 279 539 l 241 597 l 357 673 l 395 615 l 410 592 q 451 530 425 569 q 512 437 477 491 q 590 321 548 383 q 631 260 608 294 q 678 198 653 227 q 729 149 703 169 q 779 129 755 129 l 795 129 z "},"ﮧ":{"ha":820,"x_min":70,"x_max":831,"o":"m 831 -9 l 785 -9 q 687 3 738 -9 q 591 44 636 16 q 511 118 546 73 q 460 230 475 164 q 438 313 448 276 q 419 385 429 350 q 399 459 409 421 q 377 545 388 497 l 311 532 q 227 477 248 515 q 212 437 217 460 q 208 389 208 415 q 213 336 208 368 q 228 264 218 304 q 251 176 238 223 q 279 78 264 129 l 146 40 q 116 147 130 97 q 92 241 102 198 q 76 322 82 285 q 70 389 70 359 q 79 472 70 432 q 107 545 87 511 q 176 621 134 591 q 278 665 219 652 q 314 674 291 669 q 360 683 337 679 q 401 691 383 688 q 420 694 419 694 l 496 645 q 523 535 510 585 q 547 441 535 485 q 570 354 559 397 q 593 265 581 312 q 629 196 605 222 q 680 154 652 169 q 736 134 708 140 q 785 129 764 129 l 831 129 l 831 -9 z "},"چ":{"ha":931,"x_min":52,"x_max":863,"o":"m 863 368 l 456 219 q 321 162 373 188 q 239 109 268 135 q 199 55 210 83 q 189 -6 189 27 q 190 -41 189 -23 q 195 -80 192 -59 q 228 -202 205 -152 q 287 -282 251 -251 q 373 -326 324 -312 q 485 -340 423 -340 l 801 -340 l 801 -479 l 485 -479 q 319 -457 392 -479 q 192 -390 246 -436 q 105 -272 139 -345 q 58 -98 71 -200 q 52 -15 52 -54 q 79 116 52 61 q 152 215 105 172 q 265 289 199 258 q 409 348 331 321 l 693 434 q 580 475 638 455 q 472 510 522 494 q 384 536 422 525 q 331 549 346 546 q 312 549 321 549 q 293 540 302 548 q 273 512 283 532 q 254 456 264 493 l 120 492 q 199 641 146 595 q 333 687 251 687 q 344 687 338 687 q 363 683 350 686 q 395 675 375 681 q 447 658 415 669 q 524 630 479 646 q 632 588 569 613 l 862 491 l 863 368 m 370 14 l 466 110 l 561 13 l 466 -83 l 370 14 m 620 13 l 717 109 l 812 12 l 717 -84 l 620 13 m 500 -155 l 589 -66 l 679 -156 l 590 -245 l 500 -155 z "},"ﭺ":{"ha":931,"x_min":52,"x_max":863,"o":"m 863 368 l 456 219 q 321 162 373 188 q 239 109 268 135 q 199 55 210 83 q 189 -6 189 27 q 190 -41 189 -23 q 195 -80 192 -59 q 228 -202 205 -152 q 287 -282 251 -251 q 373 -326 324 -312 q 485 -340 423 -340 l 801 -340 l 801 -479 l 485 -479 q 319 -457 392 -479 q 192 -390 246 -436 q 105 -272 139 -345 q 58 -98 71 -200 q 52 -15 52 -54 q 79 116 52 61 q 152 215 105 172 q 265 289 199 258 q 409 348 331 321 l 693 434 q 580 475 638 455 q 472 510 522 494 q 384 536 422 525 q 331 549 346 546 q 312 549 321 549 q 293 540 302 548 q 273 512 283 532 q 254 456 264 493 l 120 492 q 199 641 146 595 q 333 687 251 687 q 344 687 338 687 q 363 683 350 686 q 395 675 375 681 q 447 658 415 669 q 524 630 479 646 q 632 588 569 613 l 862 491 l 863 368 m 370 14 l 466 110 l 561 13 l 466 -83 l 370 14 m 620 13 l 717 109 l 812 12 l 717 -84 l 620 13 m 500 -155 l 589 -66 l 679 -156 l 590 -245 l 500 -155 z "},"ﭻ":{"ha":988,"x_min":34,"x_max":1000,"o":"m 747 301 q 754 214 747 247 q 772 161 760 180 q 802 135 785 142 q 843 129 820 129 l 1000 129 l 1000 -9 l 843 -9 q 756 3 797 -9 q 683 47 715 16 q 634 130 652 78 q 616 255 616 181 l 438 193 q 302 135 355 162 q 221 82 250 109 q 181 28 191 56 q 170 -33 170 1 q 172 -68 170 -49 q 177 -107 174 -86 q 209 -228 186 -179 q 269 -308 232 -278 q 355 -353 306 -339 q 467 -367 405 -367 l 782 -367 l 782 -505 l 467 -505 q 301 -484 374 -505 q 174 -417 227 -463 q 87 -299 121 -371 q 40 -125 53 -227 q 34 -41 34 -81 q 60 90 34 34 q 134 188 86 146 q 247 263 181 231 q 391 321 313 295 l 669 408 q 557 449 614 429 q 451 484 501 468 q 365 509 402 499 q 313 523 328 520 q 293 522 303 523 q 273 514 283 522 q 253 487 263 506 q 234 431 243 468 l 99 467 q 179 615 126 569 q 315 660 232 660 q 326 660 319 660 q 344 657 332 660 q 377 648 357 654 q 429 631 397 642 q 506 603 460 620 q 614 562 551 586 l 845 465 l 850 337 l 747 301 m 282 -64 l 375 29 l 469 -65 l 375 -159 l 282 -64 m 525 -65 l 620 28 l 713 -66 l 620 -160 l 525 -65 m 409 -229 l 496 -142 l 583 -230 l 497 -316 l 409 -229 z "},"أ":{"ha":378,"x_min":33,"x_max":333,"o":"m 261 -9 l 123 -9 l 123 806 l 261 806 l 261 -9 m 33 863 l 33 947 l 108 969 q 73 1014 86 989 q 59 1068 59 1039 q 67 1110 59 1089 q 86 1147 74 1130 q 117 1176 99 1164 q 155 1194 134 1189 l 154 1194 q 175 1199 165 1198 q 196 1201 186 1201 q 240 1194 220 1201 q 278 1181 259 1188 l 261 1111 q 229 1119 244 1115 q 198 1123 213 1123 q 179 1120 188 1123 q 160 1110 169 1116 q 145 1096 151 1104 q 136 1078 138 1088 q 135 1069 135 1074 q 138 1056 135 1063 q 163 1026 143 1038 q 218 1013 183 1013 q 232 1014 224 1013 q 252 1017 240 1015 q 283 1025 265 1020 q 328 1039 301 1030 l 333 959 l 33 863 z "},"ﺃ":{"ha":378,"x_min":33,"x_max":333,"o":"m 261 -9 l 123 -9 l 123 806 l 261 806 l 261 -9 m 33 863 l 33 947 l 108 969 q 73 1014 86 989 q 59 1068 59 1039 q 67 1110 59 1089 q 86 1147 74 1130 q 117 1176 99 1164 q 155 1194 134 1189 l 154 1194 q 175 1199 165 1198 q 196 1201 186 1201 q 240 1194 220 1201 q 278 1181 259 1188 l 261 1111 q 229 1119 244 1115 q 198 1123 213 1123 q 179 1120 188 1123 q 160 1110 169 1116 q 145 1096 151 1104 q 136 1078 138 1088 q 135 1069 135 1074 q 138 1056 135 1063 q 163 1026 143 1038 q 218 1013 183 1013 q 232 1014 224 1013 q 252 1017 240 1015 q 283 1025 265 1020 q 328 1039 301 1030 l 333 959 l 33 863 z "},"ﺄ":{"ha":427,"x_min":45,"x_max":437,"o":"m 437 -9 q 281 10 343 -9 q 182 74 220 30 q 150 123 162 97 q 131 179 138 150 q 123 236 125 207 q 121 294 121 266 l 121 806 l 259 806 l 259 294 q 265 210 259 240 q 286 163 271 179 q 339 137 302 145 q 437 129 376 129 l 437 -9 m 45 867 l 45 951 l 119 973 q 84 1018 98 992 q 71 1072 71 1043 q 78 1113 71 1093 q 98 1151 85 1134 q 128 1180 110 1168 q 166 1198 146 1193 l 165 1198 q 187 1203 176 1201 q 208 1205 197 1205 q 251 1198 232 1205 q 289 1184 271 1191 l 272 1115 q 240 1123 256 1119 q 209 1127 224 1127 q 190 1124 199 1127 q 171 1114 181 1120 q 156 1100 162 1108 q 148 1081 150 1092 q 146 1073 146 1078 q 149 1059 146 1066 q 175 1029 155 1042 q 229 1017 194 1017 q 243 1018 235 1017 q 264 1021 251 1018 q 294 1029 276 1024 q 340 1042 313 1033 l 345 963 l 45 867 z "},"إ":{"ha":378,"x_min":44,"x_max":343,"o":"m 249 -9 l 111 -9 l 111 901 l 249 901 l 249 -9 m 44 -432 l 44 -348 l 118 -326 q 83 -281 97 -306 q 69 -227 69 -256 q 77 -185 69 -206 q 97 -148 84 -165 q 127 -118 109 -131 q 165 -100 145 -106 l 164 -100 q 185 -96 175 -97 q 206 -94 196 -94 q 250 -101 230 -94 q 288 -114 270 -107 l 271 -184 q 239 -176 254 -180 q 208 -172 223 -172 q 189 -175 198 -172 q 170 -185 179 -179 q 155 -199 161 -191 q 146 -217 148 -207 q 145 -225 145 -221 q 148 -239 145 -232 q 173 -269 153 -257 q 228 -282 193 -282 q 242 -281 234 -282 q 262 -277 250 -280 q 293 -270 275 -275 q 338 -256 311 -265 l 343 -336 l 44 -432 z "},"ﺇ":{"ha":378,"x_min":44,"x_max":343,"o":"m 249 -9 l 111 -9 l 111 901 l 249 901 l 249 -9 m 44 -432 l 44 -348 l 118 -326 q 83 -281 97 -306 q 69 -227 69 -256 q 77 -185 69 -206 q 97 -148 84 -165 q 127 -118 109 -131 q 165 -100 145 -106 l 164 -100 q 185 -96 175 -97 q 206 -94 196 -94 q 250 -101 230 -94 q 288 -114 270 -107 l 271 -184 q 239 -176 254 -180 q 208 -172 223 -172 q 189 -175 198 -172 q 170 -185 179 -179 q 155 -199 161 -191 q 146 -217 148 -207 q 145 -225 145 -221 q 148 -239 145 -232 q 173 -269 153 -257 q 228 -282 193 -282 q 242 -281 234 -282 q 262 -277 250 -280 q 293 -270 275 -275 q 338 -256 311 -265 l 343 -336 l 44 -432 z "},"ﺈ":{"ha":396,"x_min":90,"x_max":404,"o":"m 404 -9 q 292 -1 338 -9 q 213 23 245 7 q 162 65 181 40 q 133 123 143 90 q 119 199 122 157 q 116 294 116 242 l 116 901 l 254 901 l 254 294 q 258 208 254 241 q 276 158 261 176 q 321 134 291 140 q 404 129 351 129 l 404 -9 m 90 -426 l 90 -342 l 165 -320 q 130 -275 143 -301 q 116 -221 116 -250 q 123 -180 116 -200 q 143 -142 131 -159 q 174 -113 156 -125 q 211 -95 191 -100 l 211 -95 q 232 -90 222 -92 q 253 -88 242 -88 q 297 -95 277 -88 q 335 -109 316 -102 l 318 -178 q 285 -170 301 -174 q 254 -166 270 -166 q 235 -169 245 -166 q 217 -179 226 -173 q 201 -193 208 -185 q 193 -211 195 -201 q 192 -220 192 -215 q 194 -234 192 -227 q 220 -264 200 -251 q 275 -276 240 -276 q 289 -275 281 -276 q 309 -272 297 -275 q 340 -264 321 -269 q 385 -251 358 -259 l 390 -330 l 90 -426 z "},"آ":{"ha":578,"x_min":0,"x_max":578,"o":"m 371 -9 l 232 -9 l 232 806 l 371 806 l 371 -9 m 578 903 l 269 903 q 204 900 230 903 q 159 888 177 897 q 129 860 141 878 q 109 813 117 842 l 0 845 q 44 935 16 898 q 109 991 71 971 q 182 1013 142 1008 q 269 1018 222 1018 l 578 1018 l 578 903 z "},"ﺁ":{"ha":578,"x_min":0,"x_max":578,"o":"m 371 -9 l 232 -9 l 232 806 l 371 806 l 371 -9 m 578 903 l 269 903 q 204 900 230 903 q 159 888 177 897 q 129 860 141 878 q 109 813 117 842 l 0 845 q 44 935 16 898 q 109 991 71 971 q 182 1013 142 1008 q 269 1018 222 1018 l 578 1018 l 578 903 z "},"ﺂ":{"ha":522,"x_min":-2,"x_max":576,"o":"m 526 -9 q 370 10 431 -9 q 270 74 308 30 q 238 123 250 97 q 220 179 226 150 q 211 236 213 207 q 210 294 210 266 l 210 806 l 348 806 l 348 294 q 354 210 348 240 q 374 163 360 179 q 427 137 390 145 q 526 129 464 129 l 526 -9 m 576 903 l 267 903 q 202 900 229 903 q 158 887 176 896 q 128 860 140 878 q 107 812 116 842 l -2 844 q 42 934 14 898 q 107 991 69 970 q 180 1012 140 1007 q 267 1017 220 1017 l 576 1017 l 576 903 z "},"ٱ":{"ha":378,"x_min":-13,"x_max":400,"o":"m 249 -9 l 110 -9 l 110 806 l 249 806 l 249 -9 m -13 902 l 1 961 l 83 961 l 112 1006 l 164 1083 q 217 1134 186 1116 q 285 1153 248 1153 q 326 1145 306 1153 q 363 1121 347 1137 q 390 1079 379 1104 q 400 1020 400 1054 q 389 964 400 987 q 360 927 378 941 q 323 908 343 914 q 282 902 302 902 l -13 902 m 285 1093 q 248 1080 266 1093 q 214 1049 230 1068 q 182 1007 198 1030 q 154 961 167 984 l 282 961 q 323 975 306 961 q 339 1020 339 989 q 325 1074 339 1055 q 285 1093 311 1093 z "},"ﭐ":{"ha":378,"x_min":-13,"x_max":400,"o":"m 249 -9 l 110 -9 l 110 806 l 249 806 l 249 -9 m -13 902 l 1 961 l 83 961 l 112 1006 l 164 1083 q 217 1134 186 1116 q 285 1153 248 1153 q 326 1145 306 1153 q 363 1121 347 1137 q 390 1079 379 1104 q 400 1020 400 1054 q 389 964 400 987 q 360 927 378 941 q 323 908 343 914 q 282 902 302 902 l -13 902 m 285 1093 q 248 1080 266 1093 q 214 1049 230 1068 q 182 1007 198 1030 q 154 961 167 984 l 282 961 q 323 975 306 961 q 339 1020 339 989 q 325 1074 339 1055 q 285 1093 311 1093 z "},"ﭑ":{"ha":427,"x_min":6,"x_max":437,"o":"m 437 -9 q 281 10 343 -9 q 182 74 220 30 q 150 123 162 97 q 131 179 138 150 q 123 236 125 207 q 121 294 121 266 l 121 806 l 259 806 l 259 294 q 265 210 259 240 q 286 163 271 179 q 339 137 302 145 q 437 129 376 129 l 437 -9 m 6 902 l 20 961 l 102 961 l 131 1006 l 183 1083 q 236 1134 205 1116 q 304 1153 267 1153 q 345 1145 324 1153 q 382 1121 366 1137 q 408 1079 398 1104 q 419 1020 419 1054 q 408 964 419 987 q 379 927 396 941 q 342 908 362 914 q 301 902 321 902 l 6 902 m 304 1093 q 267 1080 285 1093 q 233 1049 249 1068 q 201 1007 217 1030 q 173 961 186 984 l 301 961 q 342 975 325 961 q 358 1020 358 989 q 344 1074 358 1055 q 304 1093 330 1093 z "},"ب":{"ha":1258,"x_min":40,"x_max":1208,"o":"m 1172 473 q 1184 418 1177 449 q 1195 353 1190 386 q 1205 288 1201 319 q 1208 234 1208 256 q 1188 125 1208 171 q 1134 49 1167 79 q 1059 5 1100 20 q 975 -9 1017 -9 l 275 -9 q 188 6 229 -9 q 115 52 147 22 q 89 81 102 64 q 64 121 75 98 q 47 173 54 144 q 40 239 40 203 q 46 310 40 271 q 61 382 53 348 q 76 442 69 417 q 86 472 84 467 l 218 431 q 207 394 213 417 q 194 342 200 370 q 183 287 188 315 q 178 239 178 259 q 190 179 178 201 q 219 146 203 157 q 251 132 235 134 q 277 129 268 129 l 980 129 q 1004 131 988 129 q 1036 144 1020 134 q 1063 176 1052 155 q 1075 234 1075 196 q 1072 275 1075 249 q 1064 329 1069 301 q 1053 386 1059 357 q 1042 437 1047 414 l 1172 473 m 532 -220 l 636 -114 l 744 -222 l 638 -328 l 532 -220 z "},"ﺏ":{"ha":1258,"x_min":40,"x_max":1208,"o":"m 1172 473 q 1184 418 1177 449 q 1195 353 1190 386 q 1205 288 1201 319 q 1208 234 1208 256 q 1188 125 1208 171 q 1134 49 1167 79 q 1059 5 1100 20 q 975 -9 1017 -9 l 275 -9 q 188 6 229 -9 q 115 52 147 22 q 89 81 102 64 q 64 121 75 98 q 47 173 54 144 q 40 239 40 203 q 46 310 40 271 q 61 382 53 348 q 76 442 69 417 q 86 472 84 467 l 218 431 q 207 394 213 417 q 194 342 200 370 q 183 287 188 315 q 178 239 178 259 q 190 179 178 201 q 219 146 203 157 q 251 132 235 134 q 277 129 268 129 l 980 129 q 1004 131 988 129 q 1036 144 1020 134 q 1063 176 1052 155 q 1075 234 1075 196 q 1072 275 1075 249 q 1064 329 1069 301 q 1053 386 1059 357 q 1042 437 1047 414 l 1172 473 m 532 -220 l 636 -114 l 744 -222 l 638 -328 l 532 -220 z "},"ﺑ":{"ha":429,"x_min":-16,"x_max":388,"o":"m 342 516 q 347 496 343 513 q 356 455 350 479 q 366 400 361 430 q 377 341 372 371 q 384 283 381 311 q 388 234 388 254 q 367 125 388 171 q 313 49 346 79 q 238 5 280 20 q 155 -9 196 -9 l -16 -9 l -16 129 l 159 129 q 183 131 167 129 q 215 144 199 134 q 243 176 231 155 q 254 234 254 196 q 252 268 254 247 q 246 313 249 289 q 237 362 242 337 q 227 410 232 388 q 218 449 222 432 q 211 477 213 467 l 342 516 m 117 -229 l 222 -123 l 330 -230 l 223 -336 l 117 -229 z "},"ﺒ":{"ha":503,"x_min":-13,"x_max":515,"o":"m 515 129 l 515 -9 l 468 -9 q 369 6 413 -9 q 296 52 324 21 q 213 6 262 22 q 102 -9 164 -9 l -13 -9 l -13 129 l 102 129 q 169 137 144 129 q 206 158 194 145 q 223 185 219 170 q 227 213 227 199 l 227 427 l 364 427 l 364 218 q 371 182 364 196 q 388 157 378 167 q 410 141 398 147 q 433 133 422 136 q 455 129 445 130 q 468 129 464 129 l 515 129 m 132 -236 l 237 -130 l 344 -237 l 238 -343 l 132 -236 z "},"ﺐ":{"ha":1364,"x_min":52,"x_max":1379,"o":"m 1379 129 l 1379 -9 l 1333 -9 q 1286 -6 1310 -9 q 1239 6 1262 -2 q 1195 25 1216 13 q 1157 54 1174 37 q 963 -9 1088 -9 l 288 -9 q 201 6 242 -9 q 128 52 160 22 q 101 81 115 64 q 77 121 88 98 q 59 173 66 144 q 52 239 52 203 q 59 310 52 271 q 74 382 66 348 q 89 442 81 417 q 98 472 97 467 l 164 451 l 230 431 q 219 394 226 417 q 206 342 213 370 q 195 287 200 315 q 191 239 191 259 q 203 179 191 201 q 231 146 215 157 q 264 132 247 134 q 289 129 280 129 l 959 129 q 1033 139 1007 129 q 1071 163 1059 149 q 1085 193 1083 177 q 1087 218 1087 208 l 1087 427 l 1225 427 l 1225 221 q 1239 170 1225 189 q 1270 143 1252 152 q 1305 131 1287 134 q 1333 129 1323 129 l 1379 129 m 564 -229 l 669 -122 l 776 -230 l 670 -336 l 564 -229 z "},"پ":{"ha":1258,"x_min":33,"x_max":1202,"o":"m 1166 473 q 1177 418 1171 449 q 1189 353 1184 386 q 1198 288 1194 319 q 1202 234 1202 256 q 1181 125 1202 171 q 1127 49 1160 79 q 1052 5 1094 20 q 969 -9 1011 -9 l 269 -9 q 182 6 223 -9 q 109 52 141 22 q 82 81 96 64 q 58 121 69 98 q 40 173 47 144 q 33 239 33 203 q 40 310 33 271 q 55 382 47 348 q 70 442 62 417 q 80 472 78 467 l 211 431 q 200 394 207 417 q 188 342 194 370 q 176 287 181 315 q 172 239 172 259 q 184 179 172 201 q 212 146 196 157 q 245 132 229 134 q 270 129 261 129 l 973 129 q 998 131 982 129 q 1030 144 1014 134 q 1057 176 1045 155 q 1069 234 1069 196 q 1066 275 1069 249 q 1057 329 1063 301 q 1046 386 1052 357 q 1035 437 1040 414 l 1166 473 m 393 -199 l 494 -98 l 595 -200 l 494 -301 l 393 -199 m 656 -200 l 758 -99 l 859 -201 l 758 -302 l 656 -200 m 530 -377 l 624 -283 l 718 -378 l 625 -472 l 530 -377 z "},"ﭖ":{"ha":1258,"x_min":33,"x_max":1202,"o":"m 1166 473 q 1177 418 1171 449 q 1189 353 1184 386 q 1198 288 1194 319 q 1202 234 1202 256 q 1181 125 1202 171 q 1127 49 1160 79 q 1052 5 1094 20 q 969 -9 1011 -9 l 269 -9 q 182 6 223 -9 q 109 52 141 22 q 82 81 96 64 q 58 121 69 98 q 40 173 47 144 q 33 239 33 203 q 40 310 33 271 q 55 382 47 348 q 70 442 62 417 q 80 472 78 467 l 211 431 q 200 394 207 417 q 188 342 194 370 q 176 287 181 315 q 172 239 172 259 q 184 179 172 201 q 212 146 196 157 q 245 132 229 134 q 270 129 261 129 l 973 129 q 998 131 982 129 q 1030 144 1014 134 q 1057 176 1045 155 q 1069 234 1069 196 q 1066 275 1069 249 q 1057 329 1063 301 q 1046 386 1052 357 q 1035 437 1040 414 l 1166 473 m 393 -199 l 494 -98 l 595 -200 l 494 -301 l 393 -199 m 656 -200 l 758 -99 l 859 -201 l 758 -302 l 656 -200 m 530 -377 l 624 -283 l 718 -378 l 625 -472 l 530 -377 z "},"ﭗ":{"ha":1364,"x_min":52,"x_max":1379,"o":"m 1379 129 l 1379 -9 l 1333 -9 q 1286 -6 1310 -9 q 1239 6 1262 -2 q 1195 25 1216 13 q 1157 54 1174 37 q 963 -9 1088 -9 l 288 -9 q 201 6 242 -9 q 128 52 160 22 q 101 81 115 64 q 77 121 88 98 q 59 173 66 144 q 52 239 52 203 q 59 310 52 271 q 74 382 66 348 q 89 442 81 417 q 98 472 97 467 l 164 451 l 230 431 q 219 394 226 417 q 206 342 213 370 q 195 287 200 315 q 191 239 191 259 q 203 179 191 201 q 231 146 215 157 q 264 132 247 134 q 289 129 280 129 l 959 129 q 1033 139 1007 129 q 1071 163 1059 149 q 1085 193 1083 177 q 1087 218 1087 208 l 1087 427 l 1225 427 l 1225 221 q 1239 170 1225 189 q 1270 143 1252 152 q 1305 131 1287 134 q 1333 129 1323 129 l 1379 129 m 439 -209 l 540 -108 l 641 -210 l 540 -311 l 439 -209 m 703 -210 l 805 -109 l 906 -211 l 805 -312 l 703 -210 m 577 -387 l 670 -294 l 765 -388 l 672 -482 l 577 -387 z "},"ﭘ":{"ha":563,"x_min":-13,"x_max":505,"o":"m 455 516 q 460 496 456 513 q 469 455 464 479 q 480 400 475 430 q 490 341 485 371 q 498 283 495 311 q 501 234 501 254 q 480 125 501 171 q 426 49 460 79 q 352 5 393 20 q 268 -9 310 -9 l -13 -9 l -13 129 l 273 129 q 297 131 281 129 q 329 144 313 134 q 356 176 345 155 q 368 234 368 196 q 366 268 368 247 q 359 313 363 289 q 350 362 355 337 q 341 410 345 388 q 331 449 336 432 q 324 477 327 467 l 455 516 m 39 -217 l 140 -116 l 241 -218 l 140 -319 l 39 -217 m 302 -218 l 404 -117 l 505 -220 l 404 -321 l 302 -218 m 176 -395 l 270 -302 l 364 -396 l 271 -490 l 176 -395 z "},"ﭙ":{"ha":670,"x_min":-11,"x_max":684,"o":"m 684 129 l 684 -9 l 583 -9 q 483 6 527 -9 q 410 52 439 21 q 327 6 376 22 q 217 -9 278 -9 l -11 -9 l -11 129 l 217 129 q 283 137 258 129 q 321 158 308 145 q 337 185 333 170 q 341 213 341 199 l 341 427 l 479 427 l 479 218 q 485 182 479 196 q 502 157 492 167 q 524 141 512 147 q 548 133 536 136 q 569 129 559 130 q 583 129 578 129 l 684 129 m 63 -220 l 164 -119 l 265 -222 l 164 -323 l 63 -220 m 326 -222 l 429 -121 l 530 -223 l 429 -324 l 326 -222 m 201 -398 l 294 -305 l 389 -400 l 295 -493 l 201 -398 z "},"ت":{"ha":1258,"x_min":33,"x_max":1202,"o":"m 1166 473 q 1177 418 1171 449 q 1189 353 1184 386 q 1198 288 1194 319 q 1202 234 1202 256 q 1181 125 1202 171 q 1127 49 1160 79 q 1052 5 1094 20 q 969 -9 1011 -9 l 269 -9 q 182 6 223 -9 q 109 52 141 22 q 82 81 96 64 q 58 121 69 98 q 40 173 47 144 q 33 239 33 203 q 40 310 33 271 q 55 382 47 348 q 70 442 62 417 q 80 472 78 467 l 211 431 q 200 394 207 417 q 188 342 194 370 q 176 287 181 315 q 172 239 172 259 q 184 179 172 201 q 212 146 196 157 q 245 132 229 134 q 270 129 261 129 l 973 129 q 998 131 982 129 q 1030 144 1014 134 q 1057 176 1045 155 q 1069 234 1069 196 q 1066 275 1069 249 q 1057 329 1063 301 q 1046 386 1052 357 q 1035 437 1040 414 l 1166 473 m 764 484 l 664 585 l 763 688 l 865 585 l 764 484 m 510 485 l 410 586 l 508 689 l 610 586 l 510 485 z "},"ﺕ":{"ha":1258,"x_min":33,"x_max":1202,"o":"m 1166 473 q 1177 418 1171 449 q 1189 353 1184 386 q 1198 288 1194 319 q 1202 234 1202 256 q 1181 125 1202 171 q 1127 49 1160 79 q 1052 5 1094 20 q 969 -9 1011 -9 l 269 -9 q 182 6 223 -9 q 109 52 141 22 q 82 81 96 64 q 58 121 69 98 q 40 173 47 144 q 33 239 33 203 q 40 310 33 271 q 55 382 47 348 q 70 442 62 417 q 80 472 78 467 l 211 431 q 200 394 207 417 q 188 342 194 370 q 176 287 181 315 q 172 239 172 259 q 184 179 172 201 q 212 146 196 157 q 245 132 229 134 q 270 129 261 129 l 973 129 q 998 131 982 129 q 1030 144 1014 134 q 1057 176 1045 155 q 1069 234 1069 196 q 1066 275 1069 249 q 1057 329 1063 301 q 1046 386 1052 357 q 1035 437 1040 414 l 1166 473 m 764 484 l 664 585 l 763 688 l 865 585 l 764 484 m 510 485 l 410 586 l 508 689 l 610 586 l 510 485 z "},"ﺗ":{"ha":563,"x_min":-13,"x_max":543,"o":"m 455 516 q 460 496 456 513 q 469 455 464 479 q 480 400 475 430 q 490 341 485 371 q 498 283 495 311 q 501 234 501 254 q 480 125 501 171 q 426 49 460 79 q 352 5 393 20 q 268 -9 310 -9 l -13 -9 l -13 129 l 273 129 q 297 131 281 129 q 329 144 313 134 q 356 176 345 155 q 368 234 368 196 q 366 268 368 247 q 359 313 363 289 q 350 362 355 337 q 341 410 345 388 q 331 449 336 432 q 324 477 327 467 l 455 516 m 442 648 l 342 749 l 441 852 l 543 749 l 442 648 m 188 650 l 88 751 l 186 853 l 289 751 l 188 650 z "},"ﺘ":{"ha":670,"x_min":-11,"x_max":684,"o":"m 460 600 l 360 701 l 459 803 l 561 701 l 460 600 m 206 601 l 107 702 l 205 804 l 307 702 l 206 601 m 684 129 l 684 -9 l 583 -9 q 483 6 527 -9 q 410 52 439 21 q 327 6 376 22 q 217 -9 278 -9 l -11 -9 l -11 129 l 217 129 q 283 137 258 129 q 321 158 308 145 q 337 185 333 170 q 341 213 341 199 l 341 427 l 479 427 l 479 218 q 485 182 479 196 q 502 157 492 167 q 524 141 512 147 q 548 133 536 136 q 569 129 559 130 q 583 129 578 129 l 684 129 z "},"ﺖ":{"ha":1364,"x_min":46,"x_max":1373,"o":"m 1373 129 l 1373 -9 l 1326 -9 q 1280 -6 1304 -9 q 1233 6 1256 -2 q 1189 25 1210 13 q 1151 54 1168 37 q 957 -9 1082 -9 l 282 -9 q 194 6 235 -9 q 121 52 153 22 q 95 81 109 64 q 71 121 81 98 q 53 173 60 144 q 46 239 46 203 q 53 310 46 271 q 67 382 59 348 q 83 442 75 417 q 92 472 90 467 l 158 451 l 224 431 q 213 394 220 417 q 200 342 206 370 q 189 287 194 315 q 184 239 184 259 q 197 179 184 201 q 225 146 209 157 q 258 132 241 134 q 283 129 274 129 l 953 129 q 1027 139 1001 129 q 1065 163 1053 149 q 1079 193 1077 177 q 1081 218 1081 208 l 1081 427 l 1219 427 l 1219 221 q 1232 170 1219 189 q 1263 143 1246 152 q 1299 131 1281 134 q 1326 129 1317 129 l 1373 129 m 777 484 l 677 585 l 775 688 l 878 585 l 777 484 m 523 485 l 423 586 l 521 689 l 623 586 l 523 485 z "},"ث":{"ha":1258,"x_min":33,"x_max":1202,"o":"m 1166 473 q 1177 418 1171 449 q 1189 353 1184 386 q 1198 288 1194 319 q 1202 234 1202 256 q 1181 125 1202 171 q 1127 49 1160 79 q 1052 5 1094 20 q 969 -9 1011 -9 l 269 -9 q 182 6 223 -9 q 109 52 141 22 q 82 81 96 64 q 58 121 69 98 q 40 173 47 144 q 33 239 33 203 q 40 310 33 271 q 55 382 47 348 q 70 442 62 417 q 80 472 78 467 l 211 431 q 200 394 207 417 q 188 342 194 370 q 176 287 181 315 q 172 239 172 259 q 184 179 172 201 q 212 146 196 157 q 245 132 229 134 q 270 129 261 129 l 973 129 q 998 131 982 129 q 1030 144 1014 134 q 1057 176 1045 155 q 1069 234 1069 196 q 1066 275 1069 249 q 1057 329 1063 301 q 1046 386 1052 357 q 1035 437 1040 414 l 1166 473 m 603 560 l 502 458 l 401 559 l 502 661 l 603 560 m 874 563 l 774 461 l 670 561 l 772 664 l 874 563 m 734 741 l 640 646 l 546 739 l 641 834 l 734 741 z "},"ﺙ":{"ha":1258,"x_min":33,"x_max":1202,"o":"m 1166 473 q 1177 418 1171 449 q 1189 353 1184 386 q 1198 288 1194 319 q 1202 234 1202 256 q 1181 125 1202 171 q 1127 49 1160 79 q 1052 5 1094 20 q 969 -9 1011 -9 l 269 -9 q 182 6 223 -9 q 109 52 141 22 q 82 81 96 64 q 58 121 69 98 q 40 173 47 144 q 33 239 33 203 q 40 310 33 271 q 55 382 47 348 q 70 442 62 417 q 80 472 78 467 l 211 431 q 200 394 207 417 q 188 342 194 370 q 176 287 181 315 q 172 239 172 259 q 184 179 172 201 q 212 146 196 157 q 245 132 229 134 q 270 129 261 129 l 973 129 q 998 131 982 129 q 1030 144 1014 134 q 1057 176 1045 155 q 1069 234 1069 196 q 1066 275 1069 249 q 1057 329 1063 301 q 1046 386 1052 357 q 1035 437 1040 414 l 1166 473 m 603 560 l 502 458 l 401 559 l 502 661 l 603 560 m 874 563 l 774 461 l 670 561 l 772 664 l 874 563 m 734 741 l 640 646 l 546 739 l 641 834 l 734 741 z "},"ﺛ":{"ha":563,"x_min":-13,"x_max":535,"o":"m 455 516 q 460 496 456 513 q 469 455 464 479 q 480 400 475 430 q 490 341 485 371 q 498 283 495 311 q 501 234 501 254 q 480 125 501 171 q 426 49 460 79 q 352 5 393 20 q 268 -9 310 -9 l -13 -9 l -13 129 l 273 129 q 297 131 281 129 q 329 144 313 134 q 356 176 345 155 q 368 234 368 196 q 366 268 368 247 q 359 313 363 289 q 350 362 355 337 q 341 410 345 388 q 331 449 336 432 q 324 477 327 467 l 455 516 m 265 734 l 164 632 l 62 733 l 164 835 l 265 734 m 535 737 l 436 636 l 331 735 l 434 838 l 535 737 m 396 915 l 301 820 l 208 914 l 302 1008 l 396 915 z "},"ﺜ":{"ha":670,"x_min":-11,"x_max":684,"o":"m 684 129 l 684 -9 l 583 -9 q 483 6 527 -9 q 410 52 439 21 q 327 6 376 22 q 217 -9 278 -9 l -11 -9 l -11 129 l 217 129 q 283 137 258 129 q 321 158 308 145 q 337 185 333 170 q 341 213 341 199 l 341 427 l 479 427 l 479 218 q 485 182 479 196 q 502 157 492 167 q 524 141 512 147 q 548 133 536 136 q 569 129 559 130 q 583 129 578 129 l 684 129 m 308 695 l 207 593 l 106 694 l 207 796 l 308 695 m 579 698 l 479 597 l 375 696 l 477 799 l 579 698 m 439 876 l 345 781 l 251 874 l 346 969 l 439 876 z "},"ﺚ":{"ha":1364,"x_min":46,"x_max":1373,"o":"m 1373 129 l 1373 -9 l 1326 -9 q 1280 -6 1304 -9 q 1233 6 1256 -2 q 1189 25 1210 13 q 1151 54 1168 37 q 957 -9 1082 -9 l 282 -9 q 194 6 235 -9 q 121 52 153 22 q 95 81 109 64 q 71 121 81 98 q 53 173 60 144 q 46 239 46 203 q 53 310 46 271 q 67 382 59 348 q 83 442 75 417 q 92 472 90 467 l 158 451 l 224 431 q 213 394 220 417 q 200 342 206 370 q 189 287 194 315 q 184 239 184 259 q 197 179 184 201 q 225 146 209 157 q 258 132 241 134 q 283 129 274 129 l 953 129 q 1027 139 1001 129 q 1065 163 1053 149 q 1079 193 1077 177 q 1081 218 1081 208 l 1081 427 l 1219 427 l 1219 221 q 1232 170 1219 189 q 1263 143 1246 152 q 1299 131 1281 134 q 1326 129 1317 129 l 1373 129 m 616 560 l 515 458 l 414 559 l 515 661 l 616 560 m 886 563 l 787 461 l 682 561 l 785 664 l 886 563 m 747 741 l 652 646 l 559 739 l 653 834 l 747 741 z "},"ٹ":{"ha":1258,"x_min":33,"x_max":1202,"o":"m 1166 473 q 1177 418 1171 449 q 1189 353 1184 386 q 1198 288 1194 319 q 1202 234 1202 256 q 1181 125 1202 171 q 1127 49 1160 79 q 1052 5 1094 20 q 969 -9 1011 -9 l 269 -9 q 182 6 223 -9 q 109 52 141 22 q 82 81 96 64 q 58 121 69 98 q 40 173 47 144 q 33 239 33 203 q 40 310 33 271 q 55 382 47 348 q 70 442 62 417 q 80 472 78 467 l 211 431 q 200 394 207 417 q 188 342 194 370 q 176 287 181 315 q 172 239 172 259 q 184 179 172 201 q 212 146 196 157 q 245 132 229 134 q 270 129 261 129 l 973 129 q 998 131 982 129 q 1030 144 1014 134 q 1057 176 1045 155 q 1069 234 1069 196 q 1066 275 1069 249 q 1057 329 1063 301 q 1046 386 1052 357 q 1035 437 1040 414 l 1166 473 m 444 420 l 444 480 l 508 480 q 522 502 515 491 q 537 523 530 512 l 537 832 l 595 832 l 595 609 q 647 653 619 636 q 710 671 676 671 q 752 663 731 671 q 789 639 773 655 q 815 597 805 622 q 825 538 825 572 q 814 482 825 505 q 786 446 803 460 q 748 426 769 432 q 707 420 727 420 l 444 420 m 710 611 q 674 599 692 611 q 640 568 657 586 q 608 525 623 549 q 580 480 593 502 l 707 480 q 748 494 732 480 q 765 538 765 508 q 751 592 765 573 q 710 611 737 611 z "},"ﭦ":{"ha":1258,"x_min":33,"x_max":1202,"o":"m 1166 473 q 1177 418 1171 449 q 1189 353 1184 386 q 1198 288 1194 319 q 1202 234 1202 256 q 1181 125 1202 171 q 1127 49 1160 79 q 1052 5 1094 20 q 969 -9 1011 -9 l 269 -9 q 182 6 223 -9 q 109 52 141 22 q 82 81 96 64 q 58 121 69 98 q 40 173 47 144 q 33 239 33 203 q 40 310 33 271 q 55 382 47 348 q 70 442 62 417 q 80 472 78 467 l 211 431 q 200 394 207 417 q 188 342 194 370 q 176 287 181 315 q 172 239 172 259 q 184 179 172 201 q 212 146 196 157 q 245 132 229 134 q 270 129 261 129 l 973 129 q 998 131 982 129 q 1030 144 1014 134 q 1057 176 1045 155 q 1069 234 1069 196 q 1066 275 1069 249 q 1057 329 1063 301 q 1046 386 1052 357 q 1035 437 1040 414 l 1166 473 m 444 420 l 444 480 l 508 480 q 522 502 515 491 q 537 523 530 512 l 537 832 l 595 832 l 595 609 q 647 653 619 636 q 710 671 676 671 q 752 663 731 671 q 789 639 773 655 q 815 597 805 622 q 825 538 825 572 q 814 482 825 505 q 786 446 803 460 q 748 426 769 432 q 707 420 727 420 l 444 420 m 710 611 q 674 599 692 611 q 640 568 657 586 q 608 525 623 549 q 580 480 593 502 l 707 480 q 748 494 732 480 q 765 538 765 508 q 751 592 765 573 q 710 611 737 611 z "},"ﭨ":{"ha":563,"x_min":-13,"x_max":501,"o":"m 455 516 q 460 496 456 513 q 469 455 464 479 q 480 400 475 430 q 490 341 485 371 q 498 283 495 311 q 501 234 501 254 q 480 125 501 171 q 426 49 460 79 q 352 5 393 20 q 268 -9 310 -9 l -13 -9 l -13 129 l 273 129 q 297 131 281 129 q 329 144 313 134 q 356 176 345 155 q 368 234 368 196 q 366 268 368 247 q 359 313 363 289 q 350 362 355 337 q 341 410 345 388 q 331 449 336 432 q 324 477 327 467 l 455 516 m 111 622 l 111 682 l 176 682 q 190 704 182 693 q 204 725 197 714 l 204 1034 l 263 1034 l 263 811 q 315 855 287 838 q 378 873 343 873 q 419 865 398 873 q 456 841 440 857 q 482 799 472 824 q 492 740 492 774 q 481 684 492 707 q 453 648 470 662 q 415 628 436 634 q 374 622 395 622 l 111 622 m 378 813 q 342 801 359 813 q 307 770 324 789 q 275 727 290 751 q 247 682 260 704 l 374 682 q 415 696 399 682 q 432 740 432 710 q 418 794 432 775 q 378 813 404 813 z "},"ﭩ":{"ha":670,"x_min":-11,"x_max":684,"o":"m 684 129 l 684 -9 l 583 -9 q 483 6 527 -9 q 410 52 439 21 q 327 6 376 22 q 217 -9 278 -9 l -11 -9 l -11 129 l 217 129 q 283 137 258 129 q 321 158 308 145 q 337 185 333 170 q 341 213 341 199 l 341 427 l 479 427 l 479 218 q 485 182 479 196 q 502 157 492 167 q 524 141 512 147 q 548 133 536 136 q 569 129 559 130 q 583 129 578 129 l 684 129 m 89 537 l 89 597 l 153 597 q 168 619 160 609 q 182 641 175 629 l 182 949 l 241 949 l 241 726 q 293 771 265 753 q 355 789 321 789 q 397 781 376 789 q 434 756 418 773 q 460 715 450 740 q 470 655 470 689 q 459 600 470 622 q 431 563 448 577 q 393 543 414 549 q 352 537 372 537 l 89 537 m 355 729 q 319 716 337 729 q 285 685 302 704 q 253 643 268 666 q 225 597 238 619 l 352 597 q 393 611 377 597 q 410 655 410 625 q 396 710 410 691 q 355 729 382 729 z "},"ﭧ":{"ha":1364,"x_min":52,"x_max":1379,"o":"m 1379 129 l 1379 -9 l 1333 -9 q 1286 -6 1310 -9 q 1239 6 1262 -2 q 1195 25 1216 13 q 1157 54 1174 37 q 963 -9 1088 -9 l 288 -9 q 201 6 242 -9 q 128 52 160 22 q 101 81 115 64 q 77 121 88 98 q 59 173 66 144 q 52 239 52 203 q 59 310 52 271 q 74 382 66 348 q 89 442 81 417 q 98 472 97 467 l 164 451 l 230 431 q 219 394 226 417 q 206 342 213 370 q 195 287 200 315 q 191 239 191 259 q 203 179 191 201 q 231 146 215 157 q 264 132 247 134 q 289 129 280 129 l 959 129 q 1033 139 1007 129 q 1071 163 1059 149 q 1085 193 1083 177 q 1087 218 1087 208 l 1087 427 l 1225 427 l 1225 221 q 1239 170 1225 189 q 1270 143 1252 152 q 1305 131 1287 134 q 1333 129 1323 129 l 1379 129 m 496 426 l 496 486 l 560 486 q 574 508 567 497 q 588 530 581 518 l 588 838 l 647 838 l 647 615 q 699 660 671 642 q 762 677 727 677 q 804 670 783 677 q 841 645 824 662 q 867 604 857 629 q 877 544 877 578 q 866 489 877 511 q 838 452 855 466 q 800 432 821 438 q 759 426 779 426 l 496 426 m 762 617 q 726 605 744 617 q 692 574 708 593 q 660 532 675 555 q 631 486 645 508 l 759 486 q 800 500 783 486 q 816 544 816 514 q 802 598 816 580 q 762 617 789 617 z "},"ة":{"ha":636,"x_min":54,"x_max":588,"o":"m 321 -9 q 213 9 262 -9 q 128 58 164 27 q 73 134 93 90 q 54 229 54 177 q 67 325 54 282 q 104 407 81 369 q 158 481 128 446 q 222 552 189 516 l 182 596 l 285 689 q 317 653 299 672 q 350 617 335 634 q 438 522 395 569 q 515 428 481 475 q 568 334 548 381 q 588 241 588 287 l 588 238 q 567 139 587 184 q 506 57 546 93 q 423 8 470 25 q 321 -9 376 -9 m 313 466 q 265 410 287 437 q 227 354 243 383 q 201 295 210 326 q 192 229 192 265 q 203 184 192 203 q 231 153 213 165 q 273 135 249 141 q 321 129 296 129 q 415 159 381 129 q 449 238 449 189 q 438 297 449 268 q 408 354 427 326 q 364 411 389 383 q 313 466 340 439 m 440 767 l 340 868 l 439 970 l 541 868 l 440 767 m 186 768 l 86 869 l 184 972 l 287 869 l 186 768 z "},"ﺓ":{"ha":636,"x_min":54,"x_max":588,"o":"m 321 -9 q 213 9 262 -9 q 128 58 164 27 q 73 134 93 90 q 54 229 54 177 q 67 325 54 282 q 104 407 81 369 q 158 481 128 446 q 222 552 189 516 l 182 596 l 285 689 q 317 653 299 672 q 350 617 335 634 q 438 522 395 569 q 515 428 481 475 q 568 334 548 381 q 588 241 588 287 l 588 238 q 567 139 587 184 q 506 57 546 93 q 423 8 470 25 q 321 -9 376 -9 m 313 466 q 265 410 287 437 q 227 354 243 383 q 201 295 210 326 q 192 229 192 265 q 203 184 192 203 q 231 153 213 165 q 273 135 249 141 q 321 129 296 129 q 415 159 381 129 q 449 238 449 189 q 438 297 449 268 q 408 354 427 326 q 364 411 389 383 q 313 466 340 439 m 440 767 l 340 868 l 439 970 l 541 868 l 440 767 m 186 768 l 86 869 l 184 972 l 287 869 l 186 768 z "},"ﺔ":{"ha":794,"x_min":37,"x_max":804,"o":"m 804 -9 l 777 -9 q 682 1 727 -9 q 597 32 636 11 q 529 83 559 52 q 482 154 499 114 q 442 105 467 126 q 383 71 417 85 q 299 50 341 53 q 274 49 287 49 q 213 56 246 49 q 147 85 180 64 q 89 136 114 105 q 51 207 64 167 q 37 295 37 247 q 63 416 37 362 q 132 511 89 470 q 232 581 176 552 q 348 629 288 610 q 342 660 345 646 q 336 689 338 674 l 468 721 l 581 267 q 616 194 592 222 q 668 152 640 167 q 725 133 696 138 q 777 129 754 129 l 804 129 l 804 -9 m 415 297 q 417 326 417 311 q 415 353 417 336 q 407 396 413 371 q 395 447 402 422 q 383 496 388 472 q 218 411 275 463 q 160 295 160 359 q 176 239 160 261 q 217 204 193 216 q 272 190 242 191 l 278 190 q 330 199 305 190 q 387 236 366 214 q 415 297 408 259 m 532 824 l 432 925 l 531 1027 l 633 925 l 532 824 m 278 825 l 179 926 l 277 1028 l 379 926 l 278 825 z "},"ﭼ":{"ha":895,"x_min":-16,"x_max":854,"o":"m 854 239 q 821 217 850 237 q 742 170 791 198 q 627 111 693 143 q 486 53 561 80 q 329 8 411 26 q 166 -9 247 -9 l -16 -9 l -16 129 l 166 129 q 258 135 210 129 q 352 152 305 141 q 445 178 399 164 q 534 209 491 193 q 614 243 576 225 q 681 277 651 260 l 366 388 q 315 396 337 396 q 276 388 293 396 q 246 362 259 380 q 223 318 234 345 l 96 356 q 132 437 109 398 q 188 502 155 475 q 266 537 222 528 q 295 539 280 539 q 369 527 329 539 q 433 505 404 515 q 489 485 461 496 q 548 463 517 475 q 618 436 578 451 q 711 401 658 421 q 837 355 765 381 l 854 239 m 201 -223 l 302 -122 l 403 -225 l 302 -326 l 201 -223 m 465 -225 l 567 -124 l 668 -226 l 567 -327 l 465 -225 m 339 -402 l 432 -308 l 527 -403 l 434 -496 l 339 -402 z "},"ﭽ":{"ha":965,"x_min":-17,"x_max":975,"o":"m 757 180 q 778 150 764 160 q 807 135 792 140 q 835 129 822 130 q 854 129 848 129 l 975 129 l 975 -9 l 854 -9 q 764 5 806 -9 q 689 46 722 19 l 689 47 q 635 116 655 74 q 626 111 631 114 q 485 53 560 80 q 328 8 410 26 q 165 -9 246 -9 l -17 -9 l -17 129 l 165 129 q 256 135 209 129 q 351 152 304 141 q 444 178 398 164 q 533 209 490 193 q 612 243 575 225 q 679 277 650 260 l 364 388 q 314 396 336 396 q 275 388 292 396 q 245 362 258 380 q 222 318 232 345 l 95 356 q 131 437 108 398 q 187 502 153 475 q 265 537 220 528 q 294 539 279 539 q 367 527 328 539 q 432 505 403 515 q 488 485 460 496 q 546 463 516 475 q 617 436 577 451 q 710 401 657 421 q 836 355 763 381 l 853 239 q 819 218 849 237 q 757 180 795 201 m 207 -224 l 308 -123 l 409 -225 l 308 -326 l 207 -224 m 470 -225 l 573 -124 l 674 -227 l 573 -328 l 470 -225 m 345 -402 l 438 -309 l 533 -403 l 439 -497 l 345 -402 z "},"ج":{"ha":922,"x_min":57,"x_max":858,"o":"m 858 368 l 473 217 q 336 163 390 186 q 249 118 281 140 q 205 69 217 95 q 192 5 192 43 q 215 -108 192 -66 q 280 -173 239 -150 q 378 -203 321 -196 q 502 -210 434 -210 l 801 -210 l 801 -348 l 502 -348 q 322 -330 404 -348 q 182 -270 241 -311 q 90 -162 123 -229 q 57 2 57 -95 q 87 131 57 77 q 167 224 116 184 q 284 291 217 263 q 426 343 351 319 l 699 427 l 382 537 q 331 546 354 545 q 292 538 309 546 q 263 512 275 530 q 240 467 250 494 l 112 506 q 148 586 126 548 q 205 651 171 625 q 283 686 238 677 q 312 689 297 689 q 385 676 345 689 q 449 654 420 665 q 506 633 478 644 q 564 609 533 622 q 635 580 595 597 q 728 544 675 564 q 854 497 781 523 l 858 368 m 430 27 l 535 133 l 642 25 l 536 -81 l 430 27 z "},"ﺝ":{"ha":922,"x_min":57,"x_max":858,"o":"m 858 368 l 473 217 q 336 163 390 186 q 249 118 281 140 q 205 69 217 95 q 192 5 192 43 q 215 -108 192 -66 q 280 -173 239 -150 q 378 -203 321 -196 q 502 -210 434 -210 l 801 -210 l 801 -348 l 502 -348 q 322 -330 404 -348 q 182 -270 241 -311 q 90 -162 123 -229 q 57 2 57 -95 q 87 131 57 77 q 167 224 116 184 q 284 291 217 263 q 426 343 351 319 l 699 427 l 382 537 q 331 546 354 545 q 292 538 309 546 q 263 512 275 530 q 240 467 250 494 l 112 506 q 148 586 126 548 q 205 651 171 625 q 283 686 238 677 q 312 689 297 689 q 385 676 345 689 q 449 654 420 665 q 506 633 478 644 q 564 609 533 622 q 635 580 595 597 q 728 544 675 564 q 854 497 781 523 l 858 368 m 430 27 l 535 133 l 642 25 l 536 -81 l 430 27 z "},"ﺟ":{"ha":895,"x_min":-16,"x_max":854,"o":"m 854 239 q 821 217 850 237 q 742 170 791 198 q 627 111 693 143 q 486 53 561 80 q 329 8 411 26 q 166 -9 247 -9 l -16 -9 l -16 129 l 166 129 q 258 135 210 129 q 352 152 305 141 q 445 178 399 164 q 534 209 491 193 q 614 243 576 225 q 681 277 651 260 l 366 388 q 315 396 337 396 q 276 388 293 396 q 246 362 259 380 q 223 318 234 345 l 96 356 q 132 437 109 398 q 188 502 155 475 q 266 537 222 528 q 295 539 280 539 q 369 527 329 539 q 433 505 404 515 q 489 485 461 496 q 548 463 517 475 q 618 436 578 451 q 711 401 658 421 q 837 355 765 381 l 854 239 m 320 -226 l 425 -120 l 532 -227 l 426 -333 l 320 -226 z "},"ﺠ":{"ha":965,"x_min":-11,"x_max":981,"o":"m 763 180 q 784 150 770 160 q 813 135 798 140 q 842 129 828 130 q 860 129 855 129 l 981 129 l 981 -9 l 860 -9 q 770 5 812 -9 q 696 46 729 19 l 696 47 q 641 116 662 74 q 632 111 637 114 q 491 53 566 80 q 334 8 416 26 q 171 -9 253 -9 l -11 -9 l -11 129 l 171 129 q 263 135 215 129 q 357 152 310 141 q 450 178 404 164 q 539 209 496 193 q 619 243 581 225 q 686 277 656 260 l 371 388 q 320 396 342 396 q 281 388 298 396 q 251 362 264 380 q 229 318 239 345 l 101 356 q 137 437 114 398 q 193 502 160 475 q 271 537 227 528 q 301 539 285 539 q 374 527 334 539 q 438 505 409 515 q 494 485 467 496 q 553 463 522 475 q 623 436 583 451 q 717 401 664 421 q 842 355 770 381 l 859 239 q 826 218 855 237 q 763 180 801 201 m 331 -226 l 436 -120 l 543 -227 l 437 -333 l 331 -226 z "},"ﺞ":{"ha":985,"x_min":53,"x_max":997,"o":"m 755 199 q 774 172 764 184 q 798 148 785 157 q 822 134 810 138 q 844 129 835 129 l 997 129 l 997 -9 l 844 -9 q 764 2 800 -9 q 700 35 728 14 q 652 85 672 56 q 621 146 633 112 l 469 86 q 331 32 386 55 q 245 -13 277 9 q 200 -62 213 -35 q 188 -126 188 -88 q 211 -239 188 -196 q 275 -304 234 -281 q 373 -334 316 -326 q 497 -341 430 -341 l 797 -341 l 797 -479 l 497 -479 q 318 -461 400 -479 q 177 -401 236 -442 q 86 -292 119 -359 q 53 -129 53 -225 q 82 0 53 -54 q 162 93 112 54 q 279 161 212 133 q 422 212 347 189 l 694 296 l 378 407 q 327 415 349 415 q 288 407 305 415 q 258 381 271 399 q 235 336 246 364 l 108 375 q 144 456 121 417 q 200 521 167 494 q 278 556 234 547 q 307 558 292 558 q 381 545 341 558 q 445 524 416 534 q 501 502 473 513 q 560 479 529 491 q 630 450 590 466 q 723 413 670 434 q 849 367 777 393 l 854 237 l 755 199 m 400 -125 l 505 -19 l 612 -126 l 506 -232 l 400 -125 z "},"خ":{"ha":922,"x_min":64,"x_max":864,"o":"m 864 368 l 480 217 q 342 163 396 186 q 255 118 287 140 q 211 69 223 95 q 198 5 198 43 q 222 -108 198 -66 q 286 -173 245 -150 q 384 -203 327 -196 q 508 -210 441 -210 l 807 -210 l 807 -348 l 508 -348 q 329 -330 410 -348 q 188 -270 247 -311 q 97 -162 129 -229 q 64 2 64 -95 q 93 131 64 77 q 173 224 122 184 q 290 291 223 263 q 432 343 357 319 l 705 427 l 388 537 q 338 546 360 545 q 299 538 316 546 q 269 512 282 530 q 246 467 256 494 l 119 506 q 155 586 132 548 q 211 651 177 625 q 289 686 244 677 q 318 689 303 689 q 391 676 352 689 q 455 654 427 665 q 512 633 484 644 q 570 609 540 622 q 641 580 601 597 q 734 544 681 564 q 860 497 787 523 l 864 368 m 206 926 l 311 1032 l 418 924 l 312 818 l 206 926 z "},"ﺥ":{"ha":922,"x_min":64,"x_max":864,"o":"m 864 368 l 480 217 q 342 163 396 186 q 255 118 287 140 q 211 69 223 95 q 198 5 198 43 q 222 -108 198 -66 q 286 -173 245 -150 q 384 -203 327 -196 q 508 -210 441 -210 l 807 -210 l 807 -348 l 508 -348 q 329 -330 410 -348 q 188 -270 247 -311 q 97 -162 129 -229 q 64 2 64 -95 q 93 131 64 77 q 173 224 122 184 q 290 291 223 263 q 432 343 357 319 l 705 427 l 388 537 q 338 546 360 545 q 299 538 316 546 q 269 512 282 530 q 246 467 256 494 l 119 506 q 155 586 132 548 q 211 651 177 625 q 289 686 244 677 q 318 689 303 689 q 391 676 352 689 q 455 654 427 665 q 512 633 484 644 q 570 609 540 622 q 641 580 601 597 q 734 544 681 564 q 860 497 787 523 l 864 368 m 206 926 l 311 1032 l 418 924 l 312 818 l 206 926 z "},"ﺧ":{"ha":895,"x_min":-16,"x_max":854,"o":"m 854 239 q 821 217 850 237 q 742 170 791 198 q 627 111 693 143 q 486 53 561 80 q 329 8 411 26 q 166 -9 247 -9 l -16 -9 l -16 129 l 166 129 q 258 135 210 129 q 352 152 305 141 q 445 178 399 164 q 534 209 491 193 q 614 243 576 225 q 681 277 651 260 l 366 388 q 315 396 337 396 q 276 388 293 396 q 246 362 259 380 q 223 318 234 345 l 96 356 q 132 437 109 398 q 188 502 155 475 q 266 537 222 528 q 295 539 280 539 q 369 527 329 539 q 433 505 404 515 q 489 485 461 496 q 548 463 517 475 q 618 436 578 451 q 711 401 658 421 q 837 355 765 381 l 854 239 m 170 796 l 275 902 l 383 795 l 277 689 l 170 796 z "},"ﺨ":{"ha":965,"x_min":-11,"x_max":981,"o":"m 763 180 q 784 150 770 160 q 813 135 798 140 q 842 129 828 130 q 860 129 855 129 l 981 129 l 981 -9 l 860 -9 q 770 5 812 -9 q 696 46 729 19 l 696 47 q 641 116 662 74 q 632 111 637 114 q 491 53 566 80 q 334 8 416 26 q 171 -9 253 -9 l -11 -9 l -11 129 l 171 129 q 263 135 215 129 q 357 152 310 141 q 450 178 404 164 q 539 209 496 193 q 619 243 581 225 q 686 277 656 260 l 371 388 q 320 396 342 396 q 281 388 298 396 q 251 362 264 380 q 229 318 239 345 l 101 356 q 137 437 114 398 q 193 502 160 475 q 271 537 227 528 q 301 539 285 539 q 374 527 334 539 q 438 505 409 515 q 494 485 467 496 q 553 463 522 475 q 623 436 583 451 q 717 401 664 421 q 842 355 770 381 l 859 239 q 826 218 855 237 q 763 180 801 201 m 174 796 l 278 902 l 386 795 l 280 689 l 174 796 z "},"ﺦ":{"ha":985,"x_min":59,"x_max":1003,"o":"m 761 199 q 780 172 770 184 q 804 148 792 157 q 829 134 816 138 q 850 129 841 129 l 1003 129 l 1003 -9 l 850 -9 q 770 2 806 -9 q 706 35 734 14 q 658 85 678 56 q 627 146 639 112 l 475 86 q 337 32 392 55 q 251 -13 283 9 q 206 -62 219 -35 q 194 -126 194 -88 q 217 -239 194 -196 q 282 -304 241 -281 q 379 -334 323 -326 q 504 -341 436 -341 l 803 -341 l 803 -479 l 504 -479 q 324 -461 406 -479 q 184 -401 242 -442 q 92 -292 125 -359 q 59 -129 59 -225 q 89 0 59 -54 q 168 93 118 54 q 286 161 218 133 q 428 212 353 189 l 701 296 l 384 407 q 333 415 355 415 q 294 407 311 415 q 265 381 277 399 q 242 336 252 364 l 114 375 q 150 456 128 417 q 206 521 173 494 q 285 556 240 547 q 314 558 299 558 q 387 545 347 558 q 451 524 422 534 q 508 502 480 513 q 566 479 535 491 q 637 450 597 466 q 730 413 677 434 q 855 367 783 393 l 860 237 l 761 199 m 219 795 l 324 901 l 431 794 l 325 688 l 219 795 z "},"ذ":{"ha":702,"x_min":45,"x_max":653,"o":"m 351 -15 q 276 -11 313 -15 q 236 -6 258 -9 q 192 3 215 -3 q 147 17 170 8 q 105 37 125 25 l 45 71 l 114 191 l 174 157 q 226 136 195 144 q 293 126 258 129 q 352 123 322 123 q 379 123 358 123 q 430 128 400 124 q 490 144 470 134 q 513 163 510 154 q 515 172 515 167 q 511 197 515 181 q 484 247 506 213 q 385 396 423 339 q 326 485 347 453 q 297 530 304 518 q 289 542 289 542 l 251 600 l 366 676 l 404 618 l 412 606 q 441 562 420 594 q 501 472 463 530 q 599 324 539 415 q 648 219 635 270 q 653 172 653 195 q 640 107 653 138 q 564 27 617 56 q 450 -8 518 1 q 402 -14 426 -12 q 351 -15 377 -15 m 233 888 l 338 994 l 445 886 l 339 780 l 233 888 z "},"ﺫ":{"ha":702,"x_min":45,"x_max":653,"o":"m 351 -15 q 276 -11 313 -15 q 236 -6 258 -9 q 192 3 215 -3 q 147 17 170 8 q 105 37 125 25 l 45 71 l 114 191 l 174 157 q 226 136 195 144 q 293 126 258 129 q 352 123 322 123 q 379 123 358 123 q 430 128 400 124 q 490 144 470 134 q 513 163 510 154 q 515 172 515 167 q 511 197 515 181 q 484 247 506 213 q 385 396 423 339 q 326 485 347 453 q 297 530 304 518 q 289 542 289 542 l 251 600 l 366 676 l 404 618 l 412 606 q 441 562 420 594 q 501 472 463 530 q 599 324 539 415 q 648 219 635 270 q 653 172 653 195 q 640 107 653 138 q 564 27 617 56 q 450 -8 518 1 q 402 -14 426 -12 q 351 -15 377 -15 m 233 888 l 338 994 l 445 886 l 339 780 l 233 888 z "},"ﺬ":{"ha":782,"x_min":33,"x_max":792,"o":"m 792 129 l 792 -9 l 777 -9 q 604 65 684 -9 q 553 24 583 41 q 438 -11 507 -2 q 390 -17 415 -15 q 339 -18 365 -18 q 264 -15 301 -18 q 224 -9 246 -13 q 181 -1 203 -6 q 135 14 158 5 q 93 33 113 22 l 33 68 l 102 188 l 162 153 q 197 138 177 145 q 241 128 217 132 q 289 122 264 124 q 340 120 314 120 q 421 124 385 120 q 479 140 458 128 q 502 172 499 151 l 502 176 q 483 227 502 196 q 393 365 432 304 q 326 466 353 426 q 286 525 299 506 q 276 540 276 539 l 277 539 l 239 597 l 354 673 l 393 615 l 408 592 q 448 530 422 569 q 510 437 474 491 q 587 321 545 383 q 628 260 605 294 q 676 198 651 227 q 727 149 701 169 q 777 129 753 129 l 792 129 m 249 895 l 354 1001 l 461 894 l 355 788 l 249 895 z "},"ڈ":{"ha":702,"x_min":45,"x_max":653,"o":"m 351 -15 q 276 -11 313 -15 q 236 -6 258 -9 q 192 3 215 -3 q 147 17 170 8 q 105 37 125 25 l 45 71 l 114 191 l 174 157 q 226 136 195 144 q 293 126 258 129 q 352 123 322 123 q 379 123 358 123 q 430 128 400 124 q 490 144 470 134 q 513 163 510 154 q 515 172 515 167 q 511 197 515 181 q 484 247 506 213 q 385 396 423 339 q 326 485 347 453 q 297 530 304 518 q 289 542 289 542 l 251 600 l 366 676 l 404 618 l 412 606 q 441 562 420 594 q 501 472 463 530 q 599 324 539 415 q 648 219 635 270 q 653 172 653 195 q 640 107 653 138 q 564 27 617 56 q 450 -8 518 1 q 402 -14 426 -12 q 351 -15 377 -15 m 162 767 l 162 827 l 227 827 q 241 849 234 838 q 255 871 248 859 l 255 1179 l 314 1179 l 314 956 q 366 1001 338 983 q 429 1018 394 1018 q 470 1010 449 1018 q 507 986 491 1003 q 533 944 523 970 q 544 885 544 919 q 533 830 544 852 q 504 793 521 807 q 467 773 487 779 q 426 767 446 767 l 162 767 m 429 958 q 393 946 410 958 q 358 915 375 934 q 326 872 342 896 q 298 827 311 849 l 426 827 q 467 841 450 827 q 483 885 483 855 q 469 939 483 920 q 429 958 455 958 z "},"ﮈ":{"ha":702,"x_min":45,"x_max":653,"o":"m 351 -15 q 276 -11 313 -15 q 236 -6 258 -9 q 192 3 215 -3 q 147 17 170 8 q 105 37 125 25 l 45 71 l 114 191 l 174 157 q 226 136 195 144 q 293 126 258 129 q 352 123 322 123 q 379 123 358 123 q 430 128 400 124 q 490 144 470 134 q 513 163 510 154 q 515 172 515 167 q 511 197 515 181 q 484 247 506 213 q 385 396 423 339 q 326 485 347 453 q 297 530 304 518 q 289 542 289 542 l 251 600 l 366 676 l 404 618 l 412 606 q 441 562 420 594 q 501 472 463 530 q 599 324 539 415 q 648 219 635 270 q 653 172 653 195 q 640 107 653 138 q 564 27 617 56 q 450 -8 518 1 q 402 -14 426 -12 q 351 -15 377 -15 m 162 767 l 162 827 l 227 827 q 241 849 234 838 q 255 871 248 859 l 255 1179 l 314 1179 l 314 956 q 366 1001 338 983 q 429 1018 394 1018 q 470 1010 449 1018 q 507 986 491 1003 q 533 944 523 970 q 544 885 544 919 q 533 830 544 852 q 504 793 521 807 q 467 773 487 779 q 426 767 446 767 l 162 767 m 429 958 q 393 946 410 958 q 358 915 375 934 q 326 872 342 896 q 298 827 311 849 l 426 827 q 467 841 450 827 q 483 885 483 855 q 469 939 483 920 q 429 958 455 958 z "},"ﮉ":{"ha":782,"x_min":33,"x_max":792,"o":"m 792 129 l 792 -9 l 777 -9 q 604 65 684 -9 q 553 24 583 41 q 438 -11 507 -2 q 390 -17 415 -15 q 339 -18 365 -18 q 264 -15 301 -18 q 224 -9 246 -13 q 181 -1 203 -6 q 135 14 158 5 q 93 33 113 22 l 33 68 l 102 188 l 162 153 q 197 138 177 145 q 241 128 217 132 q 289 122 264 124 q 340 120 314 120 q 421 124 385 120 q 479 140 458 128 q 502 172 499 151 l 502 176 q 483 227 502 196 q 393 365 432 304 q 326 466 353 426 q 286 525 299 506 q 276 540 276 539 l 277 539 l 239 597 l 354 673 l 393 615 l 408 592 q 448 530 422 569 q 510 437 474 491 q 587 321 545 383 q 628 260 605 294 q 676 198 651 227 q 727 149 701 169 q 777 129 753 129 l 792 129 m 162 785 l 162 845 l 227 845 q 241 866 234 856 q 255 888 248 877 l 255 1197 l 314 1197 l 314 973 q 366 1018 338 1001 q 429 1036 394 1036 q 470 1028 449 1036 q 507 1004 491 1020 q 533 962 523 987 q 544 903 544 937 q 533 847 544 870 q 504 811 521 824 q 467 791 487 797 q 426 785 446 785 l 162 785 m 429 976 q 393 964 410 976 q 358 932 375 951 q 326 890 342 914 q 298 845 311 867 l 426 845 q 467 859 450 845 q 483 903 483 872 q 469 957 483 938 q 429 976 455 976 z "},"ز":{"ha":506,"x_min":0,"x_max":503,"o":"m 468 20 q 437 -133 465 -64 q 361 -249 410 -201 q 243 -323 312 -297 q 87 -348 174 -348 l 0 -348 l 0 -210 l 87 -210 q 196 -197 150 -210 q 271 -155 242 -184 q 316 -80 301 -126 q 330 33 330 -33 l 330 427 l 468 427 l 468 20 m 291 700 l 396 806 l 503 699 l 397 593 l 291 700 z "},"ﺯ":{"ha":506,"x_min":0,"x_max":503,"o":"m 468 20 q 437 -133 465 -64 q 361 -249 410 -201 q 243 -323 312 -297 q 87 -348 174 -348 l 0 -348 l 0 -210 l 87 -210 q 196 -197 150 -210 q 271 -155 242 -184 q 316 -80 301 -126 q 330 33 330 -33 l 330 427 l 468 427 l 468 20 m 291 700 l 396 806 l 503 699 l 397 593 l 291 700 z "},"ﺰ":{"ha":574,"x_min":0,"x_max":584,"o":"m 584 -9 l 571 -9 q 518 -5 543 -9 q 468 20 494 -1 q 437 -133 465 -64 q 361 -249 410 -201 q 243 -323 312 -297 q 87 -348 174 -348 l 0 -348 l 0 -210 l 87 -210 q 196 -197 150 -210 q 271 -155 242 -184 q 316 -80 301 -126 q 330 33 330 -33 l 330 427 l 468 427 l 468 229 q 482 177 468 196 q 513 146 496 157 q 548 132 531 136 q 571 129 564 129 l 584 129 l 584 -9 m 292 682 l 397 789 l 504 681 l 398 575 l 292 682 z "},"ڑ":{"ha":506,"x_min":0,"x_max":501,"o":"m 468 20 q 437 -133 465 -64 q 361 -249 410 -201 q 243 -323 312 -297 q 87 -348 174 -348 l 0 -348 l 0 -210 l 87 -210 q 196 -197 150 -210 q 271 -155 242 -184 q 316 -80 301 -126 q 330 33 330 -33 l 330 427 l 468 427 l 468 20 m 120 561 l 120 621 l 184 621 q 199 642 191 632 q 213 664 206 653 l 213 973 l 271 973 l 271 749 q 324 794 295 777 q 386 812 352 812 q 428 804 407 812 q 465 780 449 796 q 491 738 481 763 q 501 679 501 713 q 490 623 501 646 q 462 586 479 600 q 424 567 445 573 q 383 561 403 561 l 120 561 m 386 752 q 350 740 368 752 q 316 708 333 727 q 284 666 299 689 q 256 621 269 643 l 383 621 q 424 634 408 621 q 441 679 441 648 q 427 733 441 714 q 386 752 413 752 z "},"ﮌ":{"ha":506,"x_min":0,"x_max":501,"o":"m 468 20 q 437 -133 465 -64 q 361 -249 410 -201 q 243 -323 312 -297 q 87 -348 174 -348 l 0 -348 l 0 -210 l 87 -210 q 196 -197 150 -210 q 271 -155 242 -184 q 316 -80 301 -126 q 330 33 330 -33 l 330 427 l 468 427 l 468 20 m 120 561 l 120 621 l 184 621 q 199 642 191 632 q 213 664 206 653 l 213 973 l 271 973 l 271 749 q 324 794 295 777 q 386 812 352 812 q 428 804 407 812 q 465 780 449 796 q 491 738 481 763 q 501 679 501 713 q 490 623 501 646 q 462 586 479 600 q 424 567 445 573 q 383 561 403 561 l 120 561 m 386 752 q 350 740 368 752 q 316 708 333 727 q 284 666 299 689 q 256 621 269 643 l 383 621 q 424 634 408 621 q 441 679 441 648 q 427 733 441 714 q 386 752 413 752 z "},"ﮍ":{"ha":574,"x_min":0,"x_max":584,"o":"m 584 -9 l 571 -9 q 518 -5 543 -9 q 468 20 494 -1 q 437 -133 465 -64 q 361 -249 410 -201 q 243 -323 312 -297 q 87 -348 174 -348 l 0 -348 l 0 -210 l 87 -210 q 196 -197 150 -210 q 271 -155 242 -184 q 316 -80 301 -126 q 330 33 330 -33 l 330 427 l 468 427 l 468 229 q 482 177 468 196 q 513 146 496 157 q 548 132 531 136 q 571 129 564 129 l 584 129 l 584 -9 m 193 557 l 193 617 l 258 617 q 272 639 265 628 q 286 660 279 649 l 286 969 l 345 969 l 345 746 q 397 790 369 773 q 460 808 425 808 q 501 800 480 808 q 538 776 522 792 q 564 734 554 759 q 574 675 574 709 q 563 619 574 642 q 535 583 552 597 q 497 563 518 569 q 456 557 477 557 l 193 557 m 460 748 q 424 736 441 748 q 389 705 406 723 q 357 662 372 686 q 329 617 342 639 l 456 617 q 497 631 481 617 q 514 675 514 645 q 500 729 514 710 q 460 748 486 748 z "},"ژ":{"ha":640,"x_min":0,"x_max":621,"o":"m 468 20 q 437 -133 465 -64 q 361 -249 410 -201 q 243 -323 312 -297 q 87 -348 174 -348 l 0 -348 l 0 -210 l 87 -210 q 196 -197 150 -210 q 271 -155 242 -184 q 316 -80 301 -126 q 330 33 330 -33 l 330 427 l 468 427 l 468 20 m 350 681 l 249 578 l 148 679 l 249 782 l 350 681 m 621 683 l 521 582 l 417 682 l 520 784 l 621 683 m 482 861 l 387 766 l 294 860 l 388 955 l 482 861 z "},"ﮊ":{"ha":640,"x_min":0,"x_max":621,"o":"m 468 20 q 437 -133 465 -64 q 361 -249 410 -201 q 243 -323 312 -297 q 87 -348 174 -348 l 0 -348 l 0 -210 l 87 -210 q 196 -197 150 -210 q 271 -155 242 -184 q 316 -80 301 -126 q 330 33 330 -33 l 330 427 l 468 427 l 468 20 m 350 681 l 249 578 l 148 679 l 249 782 l 350 681 m 621 683 l 521 582 l 417 682 l 520 784 l 621 683 m 482 861 l 387 766 l 294 860 l 388 955 l 482 861 z "},"ﮋ":{"ha":574,"x_min":0,"x_max":589,"o":"m 584 -9 l 571 -9 q 518 -5 543 -9 q 468 20 494 -1 q 437 -133 465 -64 q 361 -249 410 -201 q 243 -323 312 -297 q 87 -348 174 -348 l 0 -348 l 0 -210 l 87 -210 q 196 -197 150 -210 q 271 -155 242 -184 q 316 -80 301 -126 q 330 33 330 -33 l 330 427 l 468 427 l 468 229 q 482 177 468 196 q 513 146 496 157 q 548 132 531 136 q 571 129 564 129 l 584 129 l 584 -9 m 318 683 l 217 581 l 116 682 l 217 784 l 318 683 m 589 686 l 489 585 l 385 684 l 487 787 l 589 686 m 449 864 l 355 769 l 261 862 l 356 957 l 449 864 z "},"ش":{"ha":1699,"x_min":59,"x_max":1636,"o":"m 1407 -9 q 1299 8 1347 -9 q 1219 57 1252 25 q 1180 26 1201 39 q 1137 5 1159 13 q 1092 -6 1114 -3 q 1047 -9 1069 -9 q 1012 -8 1029 -9 q 979 -3 995 -7 q 949 8 963 1 q 920 28 934 16 l 920 -18 q 829 -268 920 -187 q 558 -348 738 -348 l 435 -348 q 283 -321 352 -348 q 164 -244 215 -294 q 86 -123 114 -194 q 59 37 59 -52 q 84 209 59 120 q 158 402 109 299 l 282 342 q 213 179 239 253 q 188 39 188 106 q 206 -59 188 -13 q 257 -138 224 -104 q 335 -191 290 -172 q 432 -210 379 -210 l 558 -210 q 672 -197 628 -210 q 740 -160 716 -184 q 773 -99 765 -135 q 782 -18 782 -63 l 782 427 l 920 427 l 920 304 q 931 212 920 246 q 960 159 942 177 q 1001 134 978 140 q 1047 128 1023 128 q 1080 133 1062 128 q 1116 151 1099 138 q 1143 184 1132 164 q 1154 237 1154 205 l 1154 427 l 1292 427 l 1292 230 q 1320 153 1293 177 q 1406 128 1347 128 q 1432 133 1416 129 q 1464 148 1448 136 q 1490 180 1479 159 q 1501 237 1501 201 q 1499 271 1501 251 q 1492 314 1496 291 q 1484 362 1489 338 q 1474 408 1479 386 q 1465 447 1470 430 q 1458 474 1461 465 l 1590 514 q 1595 494 1591 510 q 1604 454 1599 478 q 1615 402 1609 431 q 1625 343 1621 372 q 1633 285 1630 313 q 1636 237 1636 258 q 1616 129 1636 175 q 1563 52 1596 83 q 1490 7 1531 22 q 1407 -9 1449 -9 m 1199 700 l 1098 598 l 997 699 l 1098 801 l 1199 700 m 1470 703 l 1370 602 l 1266 701 l 1368 804 l 1470 703 m 1330 881 l 1235 786 l 1142 879 l 1237 974 l 1330 881 z "},"ﺵ":{"ha":1699,"x_min":59,"x_max":1636,"o":"m 1407 -9 q 1299 8 1347 -9 q 1219 57 1252 25 q 1180 26 1201 39 q 1137 5 1159 13 q 1092 -6 1114 -3 q 1047 -9 1069 -9 q 1012 -8 1029 -9 q 979 -3 995 -7 q 949 8 963 1 q 920 28 934 16 l 920 -18 q 829 -268 920 -187 q 558 -348 738 -348 l 435 -348 q 283 -321 352 -348 q 164 -244 215 -294 q 86 -123 114 -194 q 59 37 59 -52 q 84 209 59 120 q 158 402 109 299 l 282 342 q 213 179 239 253 q 188 39 188 106 q 206 -59 188 -13 q 257 -138 224 -104 q 335 -191 290 -172 q 432 -210 379 -210 l 558 -210 q 672 -197 628 -210 q 740 -160 716 -184 q 773 -99 765 -135 q 782 -18 782 -63 l 782 427 l 920 427 l 920 304 q 931 212 920 246 q 960 159 942 177 q 1001 134 978 140 q 1047 128 1023 128 q 1080 133 1062 128 q 1116 151 1099 138 q 1143 184 1132 164 q 1154 237 1154 205 l 1154 427 l 1292 427 l 1292 230 q 1320 153 1293 177 q 1406 128 1347 128 q 1432 133 1416 129 q 1464 148 1448 136 q 1490 180 1479 159 q 1501 237 1501 201 q 1499 271 1501 251 q 1492 314 1496 291 q 1484 362 1489 338 q 1474 408 1479 386 q 1465 447 1470 430 q 1458 474 1461 465 l 1590 514 q 1595 494 1591 510 q 1604 454 1599 478 q 1615 402 1609 431 q 1625 343 1621 372 q 1633 285 1630 313 q 1636 237 1636 258 q 1616 129 1636 175 q 1563 52 1596 83 q 1490 7 1531 22 q 1407 -9 1449 -9 m 1199 700 l 1098 598 l 997 699 l 1098 801 l 1199 700 m 1470 703 l 1370 602 l 1266 701 l 1368 804 l 1470 703 m 1330 881 l 1235 786 l 1142 879 l 1237 974 l 1330 881 z "},"ﺷ":{"ha":1104,"x_min":-22,"x_max":1044,"o":"m 465 -8 q 360 8 406 -8 q 282 56 314 24 q 204 7 247 23 q 117 -9 161 -9 l -22 -9 l -22 129 l 117 129 q 142 132 126 129 q 174 145 158 134 q 201 177 189 156 q 213 235 213 198 l 213 427 l 351 427 l 351 238 q 378 155 351 181 q 465 129 404 129 q 489 133 473 129 q 521 147 505 136 q 548 179 537 158 q 560 238 560 201 l 560 427 l 698 427 l 698 238 q 725 155 698 181 q 813 128 752 128 q 838 132 823 128 q 869 147 854 136 q 896 180 884 158 q 907 238 907 202 q 905 272 907 252 q 898 316 902 293 q 890 364 895 340 q 880 410 885 388 q 871 449 876 432 q 864 475 867 466 l 995 516 q 1000 496 996 513 q 1010 456 1004 480 q 1021 403 1015 432 q 1032 344 1027 374 q 1040 287 1037 314 q 1044 238 1044 259 q 1023 129 1044 176 q 970 52 1003 83 q 896 6 937 21 q 813 -9 855 -9 q 708 8 754 -9 q 628 56 661 25 q 551 8 593 23 q 465 -8 508 -8 m 607 706 l 506 604 l 405 705 l 506 807 l 607 706 m 878 708 l 778 607 l 674 707 l 776 809 l 878 708 m 738 886 l 643 792 l 550 885 l 645 980 l 738 886 z "},"ﺸ":{"ha":1198,"x_min":-18,"x_max":1206,"o":"m -18 129 l 61 129 q 127 136 102 129 q 165 156 152 143 q 184 189 179 170 q 189 234 189 209 l 189 427 l 327 427 l 327 237 q 354 155 327 181 q 439 129 381 129 q 465 133 449 129 q 495 147 480 136 q 519 179 509 158 q 529 234 529 199 l 529 427 l 667 427 l 667 237 q 694 154 667 180 q 781 129 721 129 q 814 134 798 129 q 844 152 831 140 q 866 183 857 164 q 876 230 874 202 l 876 427 l 1014 427 l 1014 230 q 1046 153 1015 177 q 1140 129 1077 129 l 1206 129 l 1206 -9 l 1140 -9 q 1027 7 1076 -9 q 944 56 978 23 q 871 7 914 23 q 781 -9 828 -9 q 677 7 722 -9 q 598 55 632 23 q 524 8 566 25 q 442 -9 483 -9 l 437 -9 q 336 7 380 -9 q 259 52 292 24 q 175 6 223 21 q 61 -9 126 -9 l -18 -9 l -18 129 m 556 688 l 455 586 l 354 687 l 455 789 l 556 688 m 827 691 l 727 590 l 623 689 l 725 792 l 827 691 m 688 869 l 593 774 l 499 867 l 594 962 l 688 869 z "},"ﺶ":{"ha":1837,"x_min":63,"x_max":1857,"o":"m 1797 -9 q 1598 58 1664 -9 q 1594 53 1596 56 q 1590 49 1592 51 q 1515 6 1557 22 q 1427 -9 1472 -9 q 1239 58 1305 -9 q 1235 53 1237 56 q 1231 49 1233 51 q 1156 6 1199 22 q 1068 -9 1113 -9 q 941 19 996 -9 l 941 -18 q 850 -268 941 -187 q 579 -349 759 -349 l 439 -349 q 345 -337 391 -349 q 259 -303 299 -325 q 184 -251 218 -282 q 125 -182 150 -220 q 79 -79 95 -134 q 63 40 63 -25 q 88 213 63 123 q 162 407 113 304 l 287 347 q 222 183 243 258 q 200 42 200 109 q 211 -40 200 -4 q 242 -108 221 -75 q 324 -184 273 -157 q 439 -211 375 -211 l 579 -211 q 693 -198 649 -211 q 761 -160 737 -185 q 794 -99 785 -135 q 803 -18 803 -63 l 803 427 l 941 427 l 941 295 q 952 204 941 237 q 981 154 963 171 q 1021 133 999 137 q 1068 128 1044 128 q 1101 133 1083 128 q 1136 151 1120 138 q 1164 184 1153 164 q 1175 237 1175 205 l 1175 427 l 1313 427 l 1313 230 q 1341 153 1314 177 q 1428 128 1368 128 q 1461 134 1443 128 q 1495 151 1479 139 q 1522 184 1511 164 q 1533 237 1533 205 l 1533 427 l 1671 427 l 1671 230 q 1702 153 1672 177 q 1797 129 1732 129 l 1857 129 l 1857 -9 l 1797 -9 m 1207 686 l 1106 583 l 1005 684 l 1106 787 l 1207 686 m 1478 688 l 1378 587 l 1274 687 l 1376 789 l 1478 688 m 1338 866 l 1244 771 l 1150 865 l 1245 960 l 1338 866 z "},"ض":{"ha":1731,"x_min":52,"x_max":1676,"o":"m 429 -348 q 334 -337 380 -348 q 247 -304 288 -326 q 173 -251 207 -282 q 114 -180 139 -220 q 68 -76 84 -131 q 52 44 52 -21 q 77 212 52 125 q 150 402 102 300 l 275 342 q 211 182 233 254 q 190 44 190 109 q 200 -39 190 -3 q 232 -107 210 -74 q 314 -183 262 -157 q 429 -210 366 -210 l 568 -210 q 681 -197 637 -210 q 748 -158 724 -184 q 782 -97 773 -133 q 790 -15 790 -61 l 790 427 l 928 427 l 928 216 q 933 189 928 202 q 946 167 938 177 q 963 152 953 157 q 982 146 972 146 q 1045 246 1013 197 q 1109 339 1076 295 q 1176 420 1141 383 q 1250 485 1211 458 q 1330 527 1288 512 q 1419 542 1371 542 q 1513 526 1467 542 q 1595 475 1559 510 q 1654 385 1631 440 q 1676 254 1676 331 q 1652 131 1676 181 q 1590 50 1628 81 q 1505 4 1552 18 q 1413 -9 1458 -9 l 1051 -9 q 1021 -9 1038 -9 q 987 -6 1004 -9 q 954 3 970 -3 q 928 21 938 9 l 928 -15 q 838 -267 928 -185 q 568 -348 747 -348 l 429 -348 m 1413 129 q 1427 129 1418 129 q 1447 132 1436 130 q 1470 138 1458 134 q 1493 150 1482 142 q 1515 167 1504 157 q 1535 190 1527 177 q 1549 219 1544 203 q 1554 254 1554 235 q 1544 320 1554 292 q 1515 366 1533 348 q 1472 395 1496 385 q 1419 404 1447 404 q 1338 379 1378 404 q 1261 315 1299 355 q 1188 227 1223 276 q 1124 129 1154 178 l 1413 129 m 1307 776 l 1412 882 l 1520 775 l 1414 669 l 1307 776 z "},"ﺽ":{"ha":1731,"x_min":52,"x_max":1676,"o":"m 429 -348 q 334 -337 380 -348 q 247 -304 288 -326 q 173 -251 207 -282 q 114 -180 139 -220 q 68 -76 84 -131 q 52 44 52 -21 q 77 212 52 125 q 150 402 102 300 l 275 342 q 211 182 233 254 q 190 44 190 109 q 200 -39 190 -3 q 232 -107 210 -74 q 314 -183 262 -157 q 429 -210 366 -210 l 568 -210 q 681 -197 637 -210 q 748 -158 724 -184 q 782 -97 773 -133 q 790 -15 790 -61 l 790 427 l 928 427 l 928 216 q 933 189 928 202 q 946 167 938 177 q 963 152 953 157 q 982 146 972 146 q 1045 246 1013 197 q 1109 339 1076 295 q 1176 420 1141 383 q 1250 485 1211 458 q 1330 527 1288 512 q 1419 542 1371 542 q 1513 526 1467 542 q 1595 475 1559 510 q 1654 385 1631 440 q 1676 254 1676 331 q 1652 131 1676 181 q 1590 50 1628 81 q 1505 4 1552 18 q 1413 -9 1458 -9 l 1051 -9 q 1021 -9 1038 -9 q 987 -6 1004 -9 q 954 3 970 -3 q 928 21 938 9 l 928 -15 q 838 -267 928 -185 q 568 -348 747 -348 l 429 -348 m 1413 129 q 1427 129 1418 129 q 1447 132 1436 130 q 1470 138 1458 134 q 1493 150 1482 142 q 1515 167 1504 157 q 1535 190 1527 177 q 1549 219 1544 203 q 1554 254 1554 235 q 1544 320 1554 292 q 1515 366 1533 348 q 1472 395 1496 385 q 1419 404 1447 404 q 1338 379 1378 404 q 1261 315 1299 355 q 1188 227 1223 276 q 1124 129 1154 178 l 1413 129 m 1307 776 l 1412 882 l 1520 775 l 1414 669 l 1307 776 z "},"ﺿ":{"ha":1142,"x_min":-19,"x_max":1098,"o":"m -19 -9 l -19 129 l 79 129 q 145 137 121 129 q 182 157 169 145 q 199 184 195 169 q 203 213 203 199 l 203 427 l 341 427 l 341 218 q 347 191 341 203 q 362 168 352 178 q 383 152 371 158 q 405 146 394 146 q 460 235 431 189 q 519 325 488 281 q 586 408 551 369 q 661 478 621 448 q 746 525 701 508 q 842 542 790 542 q 936 526 890 542 q 1018 476 982 510 q 1076 387 1054 441 q 1098 254 1098 332 q 1087 167 1098 206 q 1057 99 1076 129 q 1012 50 1038 70 q 957 16 987 29 q 896 -3 928 3 q 835 -9 865 -9 l 473 -9 q 424 -6 451 -9 q 372 5 398 -2 q 322 22 345 13 q 283 44 299 32 l 273 52 q 193 6 239 20 q 83 -9 146 -8 l -19 -9 m 842 405 q 761 380 801 405 q 684 316 722 355 q 611 227 646 277 q 546 129 576 178 l 835 129 q 850 129 840 129 q 870 132 859 130 q 893 139 881 134 q 917 150 905 143 l 917 150 q 938 167 928 157 q 957 190 949 177 q 970 219 965 203 q 975 254 975 235 q 964 320 975 292 q 936 367 954 348 q 894 396 918 386 q 842 405 870 405 m 713 782 l 818 888 l 925 780 l 819 674 l 713 782 z "},"ﻀ":{"ha":1209,"x_min":-13,"x_max":1217,"o":"m 412 146 q 466 235 437 189 q 526 325 494 281 q 592 408 557 369 q 667 478 628 448 q 752 525 707 508 q 848 542 797 542 q 943 526 896 542 q 1025 476 989 510 q 1083 387 1061 441 q 1105 254 1105 332 q 1098 186 1105 217 q 1080 129 1092 155 l 1217 129 l 1217 -9 l 480 -9 q 431 -6 457 -9 q 378 5 404 -2 q 328 22 352 13 q 289 44 305 32 l 280 52 q 199 6 246 20 q 90 -9 153 -8 l -13 -9 l -13 129 l 85 129 q 151 137 127 129 q 188 157 176 145 q 205 184 201 169 q 210 213 210 199 l 210 427 l 347 427 l 347 218 q 353 191 347 203 q 368 168 359 178 q 389 152 378 158 q 412 146 400 146 m 848 405 q 768 380 807 405 q 690 316 728 355 q 617 227 652 277 q 552 129 583 178 l 841 129 q 856 129 847 129 q 877 132 866 130 q 900 139 888 134 q 923 150 912 143 l 923 150 q 945 167 934 157 q 963 190 955 177 q 976 219 971 203 q 981 254 981 235 q 971 320 981 292 q 942 367 960 348 q 900 396 924 386 q 848 405 876 405 m 730 785 l 835 891 l 942 783 l 836 677 l 730 785 z "},"ﺾ":{"ha":1791,"x_min":65,"x_max":1809,"o":"m 442 -348 q 347 -337 393 -348 q 260 -304 301 -326 q 186 -251 220 -282 q 126 -180 152 -220 q 81 -76 97 -131 q 65 44 65 -21 q 90 212 65 125 q 163 402 114 300 l 288 342 q 224 182 246 254 q 203 44 203 109 q 213 -39 203 -3 q 244 -107 223 -74 q 326 -183 275 -157 q 442 -210 378 -210 l 580 -210 q 693 -197 650 -210 q 761 -158 737 -184 q 794 -97 785 -133 q 803 -15 803 -61 l 803 427 l 941 427 l 941 216 q 946 189 941 202 q 960 167 951 177 q 979 152 968 157 q 999 146 989 146 q 1062 246 1031 197 q 1126 339 1093 295 q 1194 420 1159 383 q 1267 485 1229 458 q 1347 527 1306 512 q 1436 542 1389 542 q 1530 526 1484 542 q 1613 475 1576 510 q 1671 385 1649 440 q 1694 254 1694 331 q 1687 185 1694 216 q 1669 129 1681 155 l 1809 129 l 1809 -9 l 1069 -9 q 1038 -9 1056 -9 q 1002 -6 1020 -9 q 967 3 984 -3 q 941 21 951 9 l 941 -15 q 850 -267 941 -185 q 580 -348 760 -348 l 442 -348 m 1431 129 q 1445 129 1436 129 q 1465 132 1454 130 q 1488 138 1476 134 q 1511 150 1500 142 q 1533 167 1522 157 q 1553 190 1544 177 q 1567 219 1561 203 q 1572 254 1572 235 q 1562 320 1572 292 q 1533 366 1551 348 q 1489 395 1514 385 q 1436 404 1465 404 q 1358 379 1396 404 q 1283 315 1319 355 q 1215 227 1247 276 q 1152 129 1182 178 l 1431 129 m 1347 785 l 1452 891 l 1559 783 l 1453 677 l 1347 785 z "},"ظ":{"ha":963,"x_min":45,"x_max":897,"o":"m 45 -9 l 45 129 l 192 129 q 199 140 196 134 q 210 155 203 146 q 225 178 216 164 q 249 217 235 193 l 249 900 l 387 900 l 387 408 q 442 461 413 437 q 502 504 470 486 q 567 533 533 522 q 639 543 602 543 q 733 526 687 543 q 816 472 780 508 q 875 381 852 436 q 897 248 897 325 q 873 125 897 175 q 810 46 848 76 q 725 3 772 16 q 632 -9 677 -9 l 45 -9 m 639 405 q 558 381 599 405 q 479 316 518 356 q 404 227 440 277 q 339 129 369 178 l 632 129 q 646 130 637 129 q 667 133 656 131 q 691 139 679 135 q 714 150 703 143 q 736 167 725 158 q 756 187 747 176 q 770 214 765 199 q 775 248 775 229 q 765 315 775 286 q 735 364 754 344 q 692 395 717 384 q 639 405 667 405 m 551 813 l 656 919 l 763 811 l 657 705 l 551 813 z "},"ﻅ":{"ha":963,"x_min":45,"x_max":897,"o":"m 45 -9 l 45 129 l 192 129 q 199 140 196 134 q 210 155 203 146 q 225 178 216 164 q 249 217 235 193 l 249 900 l 387 900 l 387 408 q 442 461 413 437 q 502 504 470 486 q 567 533 533 522 q 639 543 602 543 q 733 526 687 543 q 816 472 780 508 q 875 381 852 436 q 897 248 897 325 q 873 125 897 175 q 810 46 848 76 q 725 3 772 16 q 632 -9 677 -9 l 45 -9 m 639 405 q 558 381 599 405 q 479 316 518 356 q 404 227 440 277 q 339 129 369 178 l 632 129 q 646 130 637 129 q 667 133 656 131 q 691 139 679 135 q 714 150 703 143 q 736 167 725 158 q 756 187 747 176 q 770 214 765 199 q 775 248 775 229 q 765 315 775 286 q 735 364 754 344 q 692 395 717 384 q 639 405 667 405 m 551 813 l 656 919 l 763 811 l 657 705 l 551 813 z "},"ﻇ":{"ha":867,"x_min":-7,"x_max":827,"o":"m -7 -9 l -7 129 l 122 129 q 129 140 126 134 q 140 155 133 146 q 155 178 146 164 q 179 217 165 193 l 179 900 l 317 900 l 317 408 q 372 461 343 437 q 432 504 400 486 q 497 533 463 522 q 569 543 532 543 q 663 526 617 543 q 746 472 710 508 q 805 381 782 436 q 827 248 827 325 q 803 125 827 175 q 740 46 778 76 q 655 3 702 16 q 562 -9 607 -9 l -7 -9 m 569 405 q 488 381 529 405 q 409 316 448 356 q 334 227 370 277 q 269 129 299 178 l 562 129 q 576 130 567 129 q 597 133 586 131 q 621 139 609 135 q 644 150 633 143 q 666 167 655 158 q 686 187 677 176 q 700 214 694 199 q 705 248 705 229 q 694 315 705 286 q 665 364 684 344 q 622 395 647 384 q 569 405 597 405 m 480 809 l 585 915 l 693 808 l 586 702 l 480 809 z "},"ﻈ":{"ha":926,"x_min":-20,"x_max":937,"o":"m -20 -9 l -20 129 l 101 129 q 109 140 105 134 q 119 155 112 146 q 134 178 125 164 q 158 217 144 193 l 158 900 l 296 900 l 296 408 q 351 461 322 437 q 411 504 379 486 q 476 533 442 522 q 548 543 511 543 q 642 526 596 543 q 725 472 689 508 q 784 381 761 436 q 806 248 806 325 q 800 182 806 212 q 783 128 794 153 l 937 128 l 937 -9 l -20 -9 m 548 405 q 467 381 508 405 q 388 316 427 356 q 313 227 349 277 q 248 129 278 178 l 541 129 q 556 130 546 129 q 576 133 565 131 q 600 139 588 135 q 623 150 612 143 q 645 167 634 158 q 665 187 656 176 q 679 214 674 199 q 684 248 684 229 q 674 315 684 286 q 645 364 663 344 q 601 395 626 384 q 548 405 576 405 m 468 810 l 573 916 l 681 809 l 574 703 l 468 810 z "},"ﻆ":{"ha":1002,"x_min":62,"x_max":1020,"o":"m 62 -9 l 62 129 l 208 129 l 266 217 l 266 900 l 403 900 l 403 408 q 458 461 429 437 q 518 504 487 486 q 584 533 549 522 q 655 543 618 543 q 750 526 703 543 q 832 472 796 508 q 891 381 869 436 q 914 248 914 325 q 906 182 914 212 q 887 128 898 153 l 1020 128 l 1020 -9 l 62 -9 m 655 405 q 575 381 616 405 q 495 316 534 356 q 421 227 456 277 q 355 129 385 178 l 648 129 q 700 137 674 129 q 746 160 725 145 q 779 198 766 176 q 792 248 792 220 q 781 315 792 286 q 752 364 770 344 q 709 395 734 384 q 655 405 684 405 m 576 811 l 681 917 l 789 809 l 682 703 l 576 811 z "},"غ":{"ha":867,"x_min":57,"x_max":791,"o":"m 766 -349 l 473 -349 q 321 -328 395 -349 q 188 -264 246 -307 q 93 -153 129 -220 q 57 8 57 -86 q 88 153 57 86 q 177 268 119 219 q 250 317 211 297 q 331 347 289 337 q 296 396 309 372 q 276 443 283 420 q 267 485 269 465 q 265 520 265 504 q 286 620 265 573 q 344 702 307 667 q 429 757 381 737 q 530 777 477 777 q 595 769 564 777 q 657 747 627 760 q 715 715 686 733 q 771 679 743 698 l 708 568 q 644 604 670 590 q 598 625 617 617 q 562 636 578 633 q 530 639 546 639 q 484 631 507 639 q 443 607 461 622 q 414 569 425 592 q 402 520 402 547 q 404 500 402 511 q 412 476 406 489 q 427 449 417 463 q 454 422 437 436 q 559 374 494 391 q 711 357 624 357 l 791 357 l 791 218 l 409 218 q 338 206 377 218 q 266 168 299 194 q 210 103 232 143 q 188 8 188 62 q 205 -82 188 -45 q 251 -143 223 -119 q 313 -181 279 -167 q 378 -201 347 -195 q 436 -209 410 -208 q 473 -211 461 -211 l 766 -211 l 766 -349 m 420 1004 l 525 1110 l 632 1003 l 526 896 l 420 1004 z "},"ﻍ":{"ha":867,"x_min":57,"x_max":791,"o":"m 766 -349 l 473 -349 q 321 -328 395 -349 q 188 -264 246 -307 q 93 -153 129 -220 q 57 8 57 -86 q 88 153 57 86 q 177 268 119 219 q 250 317 211 297 q 331 347 289 337 q 296 396 309 372 q 276 443 283 420 q 267 485 269 465 q 265 520 265 504 q 286 620 265 573 q 344 702 307 667 q 429 757 381 737 q 530 777 477 777 q 595 769 564 777 q 657 747 627 760 q 715 715 686 733 q 771 679 743 698 l 708 568 q 644 604 670 590 q 598 625 617 617 q 562 636 578 633 q 530 639 546 639 q 484 631 507 639 q 443 607 461 622 q 414 569 425 592 q 402 520 402 547 q 404 500 402 511 q 412 476 406 489 q 427 449 417 463 q 454 422 437 436 q 559 374 494 391 q 711 357 624 357 l 791 357 l 791 218 l 409 218 q 338 206 377 218 q 266 168 299 194 q 210 103 232 143 q 188 8 188 62 q 205 -82 188 -45 q 251 -143 223 -119 q 313 -181 279 -167 q 378 -201 347 -195 q 436 -209 410 -208 q 473 -211 461 -211 l 766 -211 l 766 -349 m 420 1004 l 525 1110 l 632 1003 l 526 896 l 420 1004 z "},"ﻏ":{"ha":745,"x_min":-23,"x_max":641,"o":"m -23 -9 l -23 129 l 174 129 q 144 174 155 152 q 128 218 133 197 q 121 257 122 239 q 120 290 120 275 q 141 390 120 343 q 197 470 162 436 q 280 524 232 504 q 380 544 327 544 q 438 537 410 544 q 495 518 466 530 q 555 487 523 505 q 624 447 586 469 l 555 329 q 517 352 539 339 q 472 378 496 366 q 424 397 448 390 q 380 405 400 405 q 334 398 357 405 q 291 376 311 391 q 260 340 272 361 q 248 290 248 318 q 250 271 248 282 q 259 246 253 259 q 276 218 265 233 q 305 189 287 204 l 304 189 q 409 143 344 157 q 562 129 475 129 l 641 129 l 641 -9 l -23 -9 m 283 798 l 388 904 l 496 797 l 390 691 l 283 798 z "},"ﻐ":{"ha":810,"x_min":-8,"x_max":828,"o":"m 232 414 q 270 375 250 397 q 313 327 290 353 q 365 274 337 302 q 427 217 393 246 q 460 246 442 229 q 497 285 478 264 q 536 328 517 306 q 573 371 556 350 q 582 391 581 381 l 583 396 q 579 411 583 403 q 565 423 575 418 q 542 428 556 428 l 292 428 q 265 427 276 428 q 247 424 254 426 q 237 420 241 422 q 232 414 234 417 m 828 -9 l 581 -9 q 556 -7 570 -9 q 523 4 542 -4 q 479 27 504 12 q 422 66 454 41 q 336 33 384 47 q 231 9 287 19 q 115 -5 176 0 q -8 -9 54 -9 l -8 129 q 80 131 36 129 q 166 138 125 133 q 241 148 206 142 q 300 163 275 155 q 236 221 266 192 q 181 274 206 249 q 137 318 155 299 q 108 347 118 337 l 108 377 q 109 404 108 390 q 115 435 110 419 q 127 468 119 451 q 148 499 135 484 q 212 542 174 528 q 305 556 250 556 l 526 556 q 578 549 553 556 q 625 528 604 542 q 664 497 647 515 q 691 455 681 478 q 702 421 698 439 q 706 388 706 403 q 700 355 706 372 q 676 310 694 337 q 627 245 659 283 q 542 150 595 206 q 569 135 559 140 q 584 129 579 131 l 828 129 l 828 -9 m 324 803 l 429 909 l 536 802 l 430 696 l 324 803 z "},"ﻎ":{"ha":869,"x_min":50,"x_max":887,"o":"m 767 -479 l 465 -479 q 301 -461 376 -479 q 169 -402 225 -442 q 81 -299 113 -362 q 50 -148 50 -236 q 79 -29 50 -85 q 168 81 109 27 q 250 145 206 116 q 340 203 294 175 l 164 388 q 166 418 164 401 q 175 453 169 435 q 190 490 181 472 q 212 523 199 508 q 278 566 239 552 q 373 580 317 580 l 581 580 q 633 573 608 580 q 680 553 658 566 q 718 522 701 540 q 745 480 734 504 q 756 447 753 464 q 759 413 759 430 q 742 345 759 378 q 697 283 725 313 q 636 228 670 254 q 569 181 602 202 q 601 156 587 165 q 623 140 614 146 q 638 132 633 134 q 646 129 643 129 l 887 129 l 887 -9 l 643 -9 q 606 -5 623 -9 q 567 11 588 -1 q 516 46 545 23 q 445 105 487 68 q 350 46 396 76 q 266 -15 303 16 q 207 -79 230 -46 q 185 -148 185 -112 q 199 -224 185 -193 q 235 -277 212 -256 q 287 -311 258 -299 q 347 -330 316 -324 q 408 -339 378 -337 q 465 -341 439 -341 l 767 -341 l 767 -479 m 299 434 q 326 404 309 423 q 367 362 344 385 q 415 312 390 338 q 467 261 441 286 q 558 330 518 297 q 631 396 598 364 q 643 415 641 405 q 644 422 644 419 q 642 432 644 427 l 642 432 q 627 446 638 441 q 603 451 616 451 l 360 451 q 313 449 328 451 q 299 436 299 447 l 299 434 m 346 818 l 451 924 l 558 817 l 452 711 l 346 818 z "},"ﮐ":{"ha":738,"x_min":-18,"x_max":732,"o":"m -18 -9 l -18 129 l 359 129 q 388 130 370 129 q 424 136 407 131 q 454 151 441 141 q 467 178 467 161 q 446 245 467 206 q 390 328 424 284 q 315 417 357 372 q 233 502 273 462 q 156 572 192 542 q 100 618 121 603 l 111 750 l 682 1002 l 732 882 l 248 669 q 301 616 271 646 q 364 553 331 586 q 429 482 396 519 q 490 409 461 446 q 541 338 519 373 q 576 272 564 303 q 590 223 586 246 q 595 179 595 199 q 590 137 595 155 q 580 107 585 119 q 557 70 573 90 q 515 32 542 50 q 448 3 489 15 q 348 -9 407 -9 l -18 -9 z "},"ﮑ":{"ha":785,"x_min":-15,"x_max":797,"o":"m 797 -9 l 778 -9 q 681 2 722 -9 q 607 33 640 13 q 547 80 574 52 q 490 140 519 107 q 467 106 481 123 q 437 74 454 89 q 402 46 421 59 q 361 23 382 33 q 277 -1 323 7 q 180 -9 230 -9 l -15 -9 l -15 129 l 189 129 q 253 134 222 129 q 309 149 284 140 q 353 171 335 158 q 381 199 372 184 q 386 215 384 206 q 388 233 388 224 q 375 281 388 252 q 340 344 362 309 q 289 417 318 379 q 231 493 261 455 q 171 565 201 530 q 118 626 142 599 l 143 745 l 711 1007 l 768 880 l 270 651 l 514 325 q 580 241 550 277 q 639 179 609 204 q 702 141 669 154 q 778 129 735 129 l 797 129 l 797 -9 z "},"ف":{"ha":1309,"x_min":40,"x_max":1243,"o":"m 891 129 q 993 136 953 129 q 1057 156 1033 144 q 1091 183 1081 169 q 1104 213 1101 198 l 1019 213 q 956 216 988 213 q 893 229 924 220 q 836 255 862 239 q 789 296 809 271 q 757 357 768 321 q 745 441 745 393 q 763 539 745 494 q 813 616 781 583 q 890 667 846 648 q 988 686 935 686 q 1074 672 1037 686 q 1140 634 1112 658 q 1188 576 1169 610 q 1220 503 1208 543 q 1237 420 1232 464 q 1243 331 1243 376 l 1243 244 q 1214 121 1243 170 q 1136 43 1184 72 q 1023 2 1087 13 q 898 -9 963 -9 l 276 -9 q 189 6 230 -9 q 116 52 148 22 q 89 81 103 64 q 65 121 76 98 q 47 173 54 144 q 40 239 40 203 q 47 310 40 271 q 62 382 54 348 q 77 442 69 417 q 86 472 85 467 l 152 451 l 218 431 q 207 394 214 417 q 194 342 201 370 q 183 287 188 315 q 179 239 179 259 q 191 179 179 201 q 219 146 203 157 q 252 132 235 134 q 277 129 268 129 l 891 129 m 988 547 q 948 542 968 547 q 910 524 927 537 q 882 491 893 511 q 871 441 871 470 q 884 385 871 404 q 917 359 896 367 q 965 351 938 352 q 1019 351 991 351 l 1106 351 q 1098 424 1103 389 q 1081 487 1093 460 q 1047 531 1069 515 q 988 547 1025 547 m 886 929 l 991 1035 l 1098 928 l 992 822 l 886 929 z "},"ﻑ":{"ha":1309,"x_min":40,"x_max":1243,"o":"m 891 129 q 993 136 953 129 q 1057 156 1033 144 q 1091 183 1081 169 q 1104 213 1101 198 l 1019 213 q 956 216 988 213 q 893 229 924 220 q 836 255 862 239 q 789 296 809 271 q 757 357 768 321 q 745 441 745 393 q 763 539 745 494 q 813 616 781 583 q 890 667 846 648 q 988 686 935 686 q 1074 672 1037 686 q 1140 634 1112 658 q 1188 576 1169 610 q 1220 503 1208 543 q 1237 420 1232 464 q 1243 331 1243 376 l 1243 244 q 1214 121 1243 170 q 1136 43 1184 72 q 1023 2 1087 13 q 898 -9 963 -9 l 276 -9 q 189 6 230 -9 q 116 52 148 22 q 89 81 103 64 q 65 121 76 98 q 47 173 54 144 q 40 239 40 203 q 47 310 40 271 q 62 382 54 348 q 77 442 69 417 q 86 472 85 467 l 152 451 l 218 431 q 207 394 214 417 q 194 342 201 370 q 183 287 188 315 q 179 239 179 259 q 191 179 179 201 q 219 146 203 157 q 252 132 235 134 q 277 129 268 129 l 891 129 m 988 547 q 948 542 968 547 q 910 524 927 537 q 882 491 893 511 q 871 441 871 470 q 884 385 871 404 q 917 359 896 367 q 965 351 938 352 q 1019 351 991 351 l 1106 351 q 1098 424 1103 389 q 1081 487 1093 460 q 1047 531 1069 515 q 988 547 1025 547 m 886 929 l 991 1035 l 1098 928 l 992 822 l 886 929 z "},"ﻓ":{"ha":630,"x_min":-17,"x_max":582,"o":"m -17 -9 l -17 129 l 235 129 q 336 137 297 129 q 398 157 376 145 q 431 184 421 169 q 443 213 440 199 l 363 213 q 252 224 304 213 q 163 262 201 235 q 103 331 124 288 q 81 439 81 374 q 100 536 81 490 q 152 617 119 582 q 232 671 186 652 q 320 688 273 688 l 332 688 q 419 670 381 686 q 484 628 456 654 q 530 567 511 602 q 560 493 549 532 q 576 410 571 453 q 582 325 581 367 l 582 238 q 568 154 582 191 q 531 90 555 117 q 475 43 508 62 q 403 13 442 25 q 322 -4 364 1 q 235 -9 279 -9 l -17 -9 m 332 550 q 317 551 324 551 q 281 546 300 551 q 246 527 263 541 q 219 491 229 513 q 210 440 210 470 q 224 391 210 410 q 260 362 238 372 q 310 349 282 352 q 363 345 337 345 l 446 345 q 442 408 444 374 q 430 472 440 441 q 396 524 419 502 q 332 550 374 546 m 225 936 l 330 1042 l 437 934 l 331 828 l 225 936 z "},"ﻔ":{"ha":696,"x_min":-14,"x_max":707,"o":"m 355 545 q 456 525 412 545 q 532 471 501 504 q 579 394 563 437 q 595 305 595 350 q 580 209 595 249 q 535 131 565 169 q 561 130 545 131 q 593 129 576 129 q 627 129 610 129 q 654 129 643 129 l 707 129 l 707 -9 l 654 -9 q 571 -7 614 -9 q 489 1 529 -4 q 413 12 449 6 q 349 27 377 19 q 221 1 292 11 q 57 -9 150 -9 l -14 -9 l -14 129 l 57 129 q 87 129 74 129 q 112 129 100 129 q 136 130 124 129 q 161 131 148 130 q 133 169 145 150 q 113 209 121 188 q 101 253 105 230 q 97 305 97 277 q 117 397 97 353 q 173 473 138 441 q 254 526 208 506 q 355 545 301 545 m 227 304 l 227 297 q 235 251 227 272 q 260 212 244 230 q 300 182 277 194 q 350 158 323 169 q 398 181 376 169 q 437 211 420 194 q 462 252 453 229 q 471 305 471 275 q 461 340 471 322 q 434 373 451 358 q 397 398 418 388 q 355 407 376 407 q 307 399 330 407 q 266 376 284 390 q 238 342 249 361 q 227 304 227 324 m 250 792 l 355 898 l 462 791 l 356 685 l 250 792 z "},"ﻒ":{"ha":1335,"x_min":52,"x_max":1350,"o":"m 288 -9 q 201 6 242 -9 q 128 52 160 22 q 101 81 115 64 q 77 121 88 98 q 59 173 66 144 q 52 239 52 203 q 59 310 52 271 q 74 382 66 348 q 89 442 81 417 q 98 472 97 467 l 164 451 l 230 431 q 219 394 226 417 q 206 342 213 370 q 195 287 200 315 q 191 239 191 259 q 203 179 191 201 q 231 146 215 157 q 264 132 247 134 q 289 129 280 129 l 732 129 q 762 129 749 129 q 787 129 775 129 q 811 130 799 129 q 836 131 823 130 q 808 170 820 150 q 788 211 796 189 q 776 256 780 232 q 772 308 772 280 q 792 400 772 356 q 848 476 813 443 q 929 527 883 508 q 1030 547 976 547 q 1131 527 1086 547 q 1206 473 1176 506 q 1254 396 1237 439 q 1270 308 1270 354 q 1255 210 1270 252 q 1210 131 1240 169 q 1253 129 1230 130 q 1298 129 1275 129 l 1350 129 l 1350 -9 l 1298 -9 q 1148 -2 1217 -9 q 1024 21 1080 5 q 896 -2 967 5 q 732 -9 824 -9 l 288 -9 m 905 307 l 905 300 q 913 255 905 275 q 937 217 920 234 q 975 188 953 201 q 1025 165 997 176 q 1072 188 1051 176 q 1108 216 1093 199 q 1131 255 1123 233 q 1140 308 1140 278 q 1130 343 1140 325 q 1106 375 1121 360 q 1071 399 1091 390 q 1030 408 1051 408 q 982 400 1005 408 q 943 378 960 392 q 915 345 926 364 q 905 307 905 327 m 914 792 l 1018 898 l 1126 790 l 1020 684 l 914 792 z "},"ﭪ":{"ha":1309,"x_min":40,"x_max":1243,"o":"m 891 129 q 993 136 953 129 q 1057 156 1033 144 q 1091 183 1081 169 q 1104 213 1101 198 l 1019 213 q 956 216 988 213 q 893 229 924 220 q 836 255 862 239 q 789 296 809 271 q 757 357 768 321 q 745 441 745 393 q 763 539 745 494 q 813 616 781 583 q 890 667 846 648 q 988 686 935 686 q 1074 672 1037 686 q 1140 634 1112 658 q 1188 576 1169 610 q 1220 503 1208 543 q 1237 420 1232 464 q 1243 331 1243 376 l 1243 244 q 1214 121 1243 170 q 1136 43 1184 72 q 1023 2 1087 13 q 898 -9 963 -9 l 276 -9 q 189 6 230 -9 q 116 52 148 22 q 89 81 103 64 q 65 121 76 98 q 47 173 54 144 q 40 239 40 203 q 47 310 40 271 q 62 382 54 348 q 77 442 69 417 q 86 472 85 467 l 152 451 l 218 431 q 207 394 214 417 q 194 342 201 370 q 183 287 188 315 q 179 239 179 259 q 191 179 179 201 q 219 146 203 157 q 252 132 235 134 q 277 129 268 129 l 891 129 m 988 547 q 948 542 968 547 q 910 524 927 537 q 882 491 893 511 q 871 441 871 470 q 884 385 871 404 q 917 359 896 367 q 965 351 938 352 q 1019 351 991 351 l 1106 351 q 1098 424 1103 389 q 1081 487 1093 460 q 1047 531 1069 515 q 988 547 1025 547 m 942 860 l 841 758 l 740 859 l 841 961 l 942 860 m 1213 862 l 1113 761 l 1009 861 l 1111 963 l 1213 862 m 1073 1040 l 979 946 l 885 1039 l 980 1134 l 1073 1040 z "},"ﭬ":{"ha":630,"x_min":-17,"x_max":582,"o":"m -17 -9 l -17 129 l 235 129 q 336 137 297 129 q 398 157 376 145 q 431 184 421 169 q 443 213 440 199 l 363 213 q 252 224 304 213 q 163 262 201 235 q 103 331 124 288 q 81 439 81 374 q 100 536 81 490 q 152 617 119 582 q 232 671 186 652 q 320 688 273 688 l 332 688 q 419 670 381 686 q 484 628 456 654 q 530 567 511 602 q 560 493 549 532 q 576 410 571 453 q 582 325 581 367 l 582 238 q 568 154 582 191 q 531 90 555 117 q 475 43 508 62 q 403 13 442 25 q 322 -4 364 1 q 235 -9 279 -9 l -17 -9 m 332 550 q 317 551 324 551 q 281 546 300 551 q 246 527 263 541 q 219 491 229 513 q 210 440 210 470 q 224 391 210 410 q 260 362 238 372 q 310 349 282 352 q 363 345 337 345 l 446 345 q 442 408 444 374 q 430 472 440 441 q 396 524 419 502 q 332 550 374 546 m 299 872 l 198 770 l 97 871 l 198 973 l 299 872 m 569 874 l 470 773 l 366 873 l 468 975 l 569 874 m 430 1052 l 335 958 l 242 1051 l 336 1146 l 430 1052 z "},"ﭭ":{"ha":696,"x_min":-14,"x_max":707,"o":"m 355 545 q 456 525 412 545 q 532 471 501 504 q 579 394 563 437 q 595 305 595 350 q 580 209 595 249 q 535 131 565 169 q 561 130 545 131 q 593 129 576 129 q 627 129 610 129 q 654 129 643 129 l 707 129 l 707 -9 l 654 -9 q 571 -7 614 -9 q 489 1 529 -4 q 413 12 449 6 q 349 27 377 19 q 221 1 292 11 q 57 -9 150 -9 l -14 -9 l -14 129 l 57 129 q 87 129 74 129 q 112 129 100 129 q 136 130 124 129 q 161 131 148 130 q 133 169 145 150 q 113 209 121 188 q 101 253 105 230 q 97 305 97 277 q 117 397 97 353 q 173 473 138 441 q 254 526 208 506 q 355 545 301 545 m 227 304 l 227 297 q 235 251 227 272 q 260 212 244 230 q 300 182 277 194 q 350 158 323 169 q 398 181 376 169 q 437 211 420 194 q 462 252 453 229 q 471 305 471 275 q 461 340 471 322 q 434 373 451 358 q 397 398 418 388 q 355 407 376 407 q 307 399 330 407 q 266 376 284 390 q 238 342 249 361 q 227 304 227 324 m 315 744 l 214 641 l 113 742 l 214 845 l 315 744 m 586 746 l 486 645 l 382 745 l 484 847 l 586 746 m 446 924 l 352 830 l 258 923 l 353 1018 l 446 924 z "},"ﭫ":{"ha":1335,"x_min":52,"x_max":1350,"o":"m 288 -9 q 201 6 242 -9 q 128 52 160 22 q 101 81 115 64 q 77 121 88 98 q 59 173 66 144 q 52 239 52 203 q 59 310 52 271 q 74 382 66 348 q 89 442 81 417 q 98 472 97 467 l 164 451 l 230 431 q 219 394 226 417 q 206 342 213 370 q 195 287 200 315 q 191 239 191 259 q 203 179 191 201 q 231 146 215 157 q 264 132 247 134 q 289 129 280 129 l 732 129 q 762 129 749 129 q 787 129 775 129 q 811 130 799 129 q 836 131 823 130 q 808 170 820 150 q 788 211 796 189 q 776 256 780 232 q 772 308 772 280 q 792 400 772 356 q 848 476 813 443 q 929 527 883 508 q 1030 547 976 547 q 1131 527 1086 547 q 1206 473 1176 506 q 1254 396 1237 439 q 1270 308 1270 354 q 1255 210 1270 252 q 1210 131 1240 169 q 1253 129 1230 130 q 1298 129 1275 129 l 1350 129 l 1350 -9 l 1298 -9 q 1148 -2 1217 -9 q 1024 21 1080 5 q 896 -2 967 5 q 732 -9 824 -9 l 288 -9 m 905 307 l 905 300 q 913 255 905 275 q 937 217 920 234 q 975 188 953 201 q 1025 165 997 176 q 1072 188 1051 176 q 1108 216 1093 199 q 1131 255 1123 233 q 1140 308 1140 278 q 1130 343 1140 325 q 1106 375 1121 360 q 1071 399 1091 390 q 1030 408 1051 408 q 982 400 1005 408 q 943 378 960 392 q 915 345 926 364 q 905 307 905 327 m 981 744 l 880 642 l 779 743 l 880 845 l 981 744 m 1252 747 l 1152 646 l 1048 746 l 1150 848 l 1252 747 m 1112 925 l 1018 830 l 924 924 l 1019 1018 l 1112 925 z "},"ﻗ":{"ha":630,"x_min":-17,"x_max":582,"o":"m -17 -9 l -17 129 l 235 129 q 336 137 297 129 q 398 157 376 145 q 431 184 421 169 q 443 213 440 199 l 363 213 q 252 224 304 213 q 163 262 201 235 q 103 331 124 288 q 81 439 81 374 q 100 536 81 490 q 152 617 119 582 q 232 671 186 652 q 320 688 273 688 l 332 688 q 419 670 381 686 q 484 628 456 654 q 530 567 511 602 q 560 493 549 532 q 576 410 571 453 q 582 325 581 367 l 582 238 q 568 154 582 191 q 531 90 555 117 q 475 43 508 62 q 403 13 442 25 q 322 -4 364 1 q 235 -9 279 -9 l -17 -9 m 332 550 q 317 551 324 551 q 281 546 300 551 q 246 527 263 541 q 219 491 229 513 q 210 440 210 470 q 224 391 210 410 q 260 362 238 372 q 310 349 282 352 q 363 345 337 345 l 446 345 q 442 408 444 374 q 430 472 440 441 q 396 524 419 502 q 332 550 374 546 m 439 802 l 340 903 l 438 1006 l 540 903 l 439 802 m 186 804 l 86 905 l 184 1007 l 286 905 l 186 804 z "},"ﻘ":{"ha":696,"x_min":-14,"x_max":707,"o":"m 355 545 q 456 525 412 545 q 532 471 501 504 q 579 394 563 437 q 595 305 595 350 q 580 209 595 249 q 535 131 565 169 q 561 130 545 131 q 593 129 576 129 q 627 129 610 129 q 654 129 643 129 l 707 129 l 707 -9 l 654 -9 q 571 -7 614 -9 q 489 1 529 -4 q 413 12 449 6 q 349 27 377 19 q 221 1 292 11 q 57 -9 150 -9 l -14 -9 l -14 129 l 57 129 q 87 129 74 129 q 112 129 100 129 q 136 130 124 129 q 161 131 148 130 q 133 169 145 150 q 113 209 121 188 q 101 253 105 230 q 97 305 97 277 q 117 397 97 353 q 173 473 138 441 q 254 526 208 506 q 355 545 301 545 m 227 304 l 227 297 q 235 251 227 272 q 260 212 244 230 q 300 182 277 194 q 350 158 323 169 q 398 181 376 169 q 437 211 420 194 q 462 252 453 229 q 471 305 471 275 q 461 340 471 322 q 434 373 451 358 q 397 398 418 388 q 355 407 376 407 q 307 399 330 407 q 266 376 284 390 q 238 342 249 361 q 227 304 227 324 m 467 679 l 367 780 l 465 882 l 568 780 l 467 679 m 213 680 l 113 781 l 211 883 l 313 781 l 213 680 z "},"ق":{"ha":1009,"x_min":60,"x_max":932,"o":"m 437 -348 q 342 -337 388 -348 q 255 -304 295 -326 q 181 -251 215 -282 q 122 -180 147 -220 q 76 -78 92 -131 q 60 41 60 -24 q 83 209 60 122 q 156 398 105 296 l 280 340 q 217 179 237 251 q 198 40 198 107 q 208 -40 198 -6 q 239 -107 218 -74 q 321 -183 270 -157 q 437 -210 373 -210 l 484 -210 q 638 -196 578 -210 q 735 -152 699 -181 q 760 -126 749 -140 q 779 -96 771 -112 q 790 -58 786 -79 q 795 -9 794 -37 l 695 -9 q 602 3 649 -9 q 517 46 555 16 q 454 125 479 76 q 430 248 430 175 q 447 358 430 305 q 496 452 463 411 q 578 519 529 494 q 691 544 627 544 q 801 517 755 544 q 876 448 847 491 q 919 348 905 404 q 932 231 932 292 l 932 0 q 926 -83 932 -45 q 905 -153 919 -121 q 871 -211 891 -184 q 821 -259 850 -237 q 760 -298 794 -282 q 686 -325 727 -314 q 598 -342 646 -336 q 491 -348 549 -348 l 437 -348 m 691 413 q 639 401 662 413 q 599 368 616 390 q 575 316 583 347 q 566 248 566 286 q 579 188 566 210 q 613 151 591 165 q 636 140 624 144 q 660 133 648 136 q 680 130 671 131 q 695 129 689 129 l 795 129 l 795 231 q 789 306 795 275 q 774 357 783 336 q 754 388 765 377 q 731 405 742 400 q 708 412 719 410 q 691 413 698 413 m 802 657 l 703 758 l 801 860 l 903 758 l 802 657 m 549 658 l 449 759 l 547 862 l 649 759 l 549 658 z "},"ﻕ":{"ha":1009,"x_min":60,"x_max":932,"o":"m 437 -348 q 342 -337 388 -348 q 255 -304 295 -326 q 181 -251 215 -282 q 122 -180 147 -220 q 76 -78 92 -131 q 60 41 60 -24 q 83 209 60 122 q 156 398 105 296 l 280 340 q 217 179 237 251 q 198 40 198 107 q 208 -40 198 -6 q 239 -107 218 -74 q 321 -183 270 -157 q 437 -210 373 -210 l 484 -210 q 638 -196 578 -210 q 735 -152 699 -181 q 760 -126 749 -140 q 779 -96 771 -112 q 790 -58 786 -79 q 795 -9 794 -37 l 695 -9 q 602 3 649 -9 q 517 46 555 16 q 454 125 479 76 q 430 248 430 175 q 447 358 430 305 q 496 452 463 411 q 578 519 529 494 q 691 544 627 544 q 801 517 755 544 q 876 448 847 491 q 919 348 905 404 q 932 231 932 292 l 932 0 q 926 -83 932 -45 q 905 -153 919 -121 q 871 -211 891 -184 q 821 -259 850 -237 q 760 -298 794 -282 q 686 -325 727 -314 q 598 -342 646 -336 q 491 -348 549 -348 l 437 -348 m 691 413 q 639 401 662 413 q 599 368 616 390 q 575 316 583 347 q 566 248 566 286 q 579 188 566 210 q 613 151 591 165 q 636 140 624 144 q 660 133 648 136 q 680 130 671 131 q 695 129 689 129 l 795 129 l 795 231 q 789 306 795 275 q 774 357 783 336 q 754 388 765 377 q 731 405 742 400 q 708 412 719 410 q 691 413 698 413 m 802 657 l 703 758 l 801 860 l 903 758 l 802 657 m 549 658 l 449 759 l 547 862 l 649 759 l 549 658 z "},"ﻖ":{"ha":1039,"x_min":54,"x_max":1051,"o":"m 431 -348 q 335 -337 381 -348 q 249 -304 289 -326 q 175 -251 208 -282 q 116 -180 141 -220 q 70 -78 86 -131 q 54 41 54 -24 q 76 209 54 122 q 150 398 99 296 l 273 340 q 211 179 230 251 q 191 40 191 107 q 202 -40 191 -6 q 233 -107 212 -74 q 315 -183 263 -157 q 431 -210 367 -210 l 478 -210 q 632 -196 571 -210 q 729 -152 693 -181 q 754 -126 743 -140 q 772 -96 765 -112 q 784 -58 780 -79 q 789 -9 788 -37 l 689 -9 q 596 3 643 -9 q 510 46 549 16 q 448 125 472 76 q 424 248 424 175 q 440 358 424 305 q 490 452 457 411 q 572 519 523 494 q 684 544 621 544 q 795 517 749 544 q 870 448 840 491 q 913 348 899 404 q 926 231 926 292 l 926 129 l 1051 129 l 1051 -9 l 926 -9 q 918 -89 926 -53 q 897 -156 911 -126 q 863 -212 884 -186 q 815 -259 842 -237 q 754 -298 787 -282 q 680 -325 720 -314 q 591 -342 640 -336 q 484 -348 543 -348 l 431 -348 m 684 413 q 632 401 655 413 q 593 368 609 390 q 568 316 577 347 q 560 248 560 286 q 572 188 560 210 q 607 151 585 165 q 630 140 617 144 q 653 133 642 136 q 674 130 665 131 q 689 129 683 129 l 789 129 l 789 231 q 783 306 789 275 q 768 357 777 336 q 747 388 759 377 q 724 405 736 400 q 702 412 713 410 q 684 413 691 413 m 801 655 l 701 756 l 800 859 l 902 756 l 801 655 m 547 657 l 448 758 l 545 860 l 648 758 l 547 657 z "},"ﻧ":{"ha":429,"x_min":-16,"x_max":388,"o":"m 342 516 q 347 496 343 513 q 356 455 350 479 q 366 400 361 430 q 377 341 372 371 q 384 283 381 311 q 388 234 388 254 q 367 125 388 171 q 313 49 346 79 q 238 5 280 20 q 155 -9 196 -9 l -16 -9 l -16 129 l 159 129 q 183 131 167 129 q 215 144 199 134 q 243 176 231 155 q 254 234 254 196 q 252 268 254 247 q 246 313 249 289 q 237 362 242 337 q 227 410 232 388 q 218 449 222 432 q 211 477 213 467 l 342 516 m 128 775 l 232 881 l 340 773 l 234 667 l 128 775 z "},"ﻨ":{"ha":503,"x_min":-13,"x_max":515,"o":"m 515 129 l 515 -9 l 468 -9 q 369 6 413 -9 q 296 52 324 21 q 213 6 262 22 q 102 -9 164 -9 l -13 -9 l -13 129 l 102 129 q 169 137 144 129 q 206 158 194 145 q 223 185 219 170 q 227 213 227 199 l 227 427 l 364 427 l 364 218 q 371 182 364 196 q 388 157 378 167 q 410 141 398 147 q 433 133 422 136 q 455 129 445 130 q 468 129 464 129 l 515 129 m 145 718 l 249 824 l 357 717 l 251 610 l 145 718 z "},"ن":{"ha":985,"x_min":61,"x_max":927,"o":"m 437 -349 q 342 -338 388 -349 q 256 -305 296 -326 q 182 -252 216 -283 q 122 -181 148 -220 q 77 -73 93 -132 q 61 50 61 -15 q 66 131 61 91 q 83 214 72 172 q 113 302 95 257 q 155 399 131 348 l 280 340 q 243 257 258 295 q 217 184 227 219 q 202 116 207 149 q 198 51 198 83 q 239 -108 198 -43 q 322 -184 271 -157 q 437 -211 372 -211 l 565 -211 q 679 -196 635 -211 q 747 -155 723 -182 q 780 -91 771 -128 q 789 -7 789 -53 l 789 429 l 927 429 l 927 -7 q 836 -263 927 -177 q 565 -349 745 -349 l 437 -349 m 432 477 l 537 583 l 644 475 l 538 369 l 432 477 z "},"ﻥ":{"ha":985,"x_min":61,"x_max":927,"o":"m 437 -349 q 342 -338 388 -349 q 256 -305 296 -326 q 182 -252 216 -283 q 122 -181 148 -220 q 77 -73 93 -132 q 61 50 61 -15 q 66 131 61 91 q 83 214 72 172 q 113 302 95 257 q 155 399 131 348 l 280 340 q 243 257 258 295 q 217 184 227 219 q 202 116 207 149 q 198 51 198 83 q 239 -108 198 -43 q 322 -184 271 -157 q 437 -211 372 -211 l 565 -211 q 679 -196 635 -211 q 747 -155 723 -182 q 780 -91 771 -128 q 789 -7 789 -53 l 789 429 l 927 429 l 927 -7 q 836 -263 927 -177 q 565 -349 745 -349 l 437 -349 m 432 477 l 537 583 l 644 475 l 538 369 l 432 477 z "},"ﻦ":{"ha":1061,"x_min":58,"x_max":1074,"o":"m 434 -349 q 339 -338 385 -349 q 253 -305 294 -326 q 179 -252 213 -283 q 120 -181 145 -220 q 74 -78 90 -132 q 58 40 58 -25 q 83 211 58 122 q 157 402 108 299 l 282 343 q 217 181 238 254 q 195 40 195 107 q 205 -40 195 -6 q 237 -108 216 -75 q 319 -184 268 -157 q 434 -211 370 -211 l 565 -211 q 679 -198 635 -211 q 747 -160 723 -185 q 780 -99 771 -135 q 789 -17 789 -63 l 789 427 l 927 427 l 927 221 q 957 152 929 175 q 1031 129 985 129 l 1074 129 l 1074 -9 l 1031 -9 q 977 -7 1004 -9 q 927 13 950 -4 l 927 -17 q 836 -268 927 -187 q 565 -349 745 -349 l 434 -349 m 431 474 l 536 580 l 643 473 l 537 367 l 431 474 z "},"ە":{"ha":636,"x_min":41,"x_max":575,"o":"m 308 -9 q 200 9 249 -9 q 116 58 152 27 q 61 134 80 90 q 41 229 41 177 q 55 325 41 282 q 92 407 68 369 q 146 481 115 446 q 210 552 176 516 l 170 596 l 272 689 q 305 653 287 672 q 338 617 323 634 q 426 522 383 569 q 502 428 468 475 q 556 334 535 381 q 575 241 575 287 l 575 238 q 554 139 574 184 q 494 57 533 93 q 410 8 457 25 q 308 -9 364 -9 m 301 466 q 253 410 275 437 q 214 354 230 383 q 188 295 198 326 q 179 229 179 265 q 190 184 179 203 q 219 153 201 165 q 260 135 237 141 q 308 129 283 129 q 403 159 369 129 q 437 238 437 189 q 426 297 437 268 q 395 354 414 326 q 352 411 376 383 q 301 466 327 439 z "},"ۀ":{"ha":636,"x_min":41,"x_max":575,"o":"m 308 -9 q 200 9 249 -9 q 116 58 152 27 q 61 134 80 90 q 41 229 41 177 q 55 325 41 282 q 92 407 68 369 q 146 481 115 446 q 210 552 176 516 l 170 596 l 272 689 q 305 653 287 672 q 338 617 323 634 q 426 522 383 569 q 502 428 468 475 q 556 334 535 381 q 575 241 575 287 l 575 238 q 554 139 574 184 q 494 57 533 93 q 410 8 457 25 q 308 -9 364 -9 m 301 466 q 253 410 275 437 q 214 354 230 383 q 188 295 198 326 q 179 229 179 265 q 190 184 179 203 q 219 153 201 165 q 260 135 237 141 q 308 129 283 129 q 403 159 369 129 q 437 238 437 189 q 426 297 437 268 q 395 354 414 326 q 352 411 376 383 q 301 466 327 439 m 324 1161 q 352 1159 337 1161 q 383 1153 366 1158 l 364 1085 q 344 1089 354 1088 q 325 1090 334 1090 q 270 1072 292 1090 q 242 1016 247 1052 q 298 1006 277 1009 q 331 999 319 1003 q 349 994 342 996 q 361 987 356 991 q 380 951 380 975 q 380 936 380 945 q 378 916 379 927 q 371 893 376 905 q 359 870 367 881 q 230 816 322 816 l 161 816 l 161 887 l 230 887 q 267 891 253 887 q 291 901 282 895 q 303 915 299 907 q 308 931 307 923 q 265 939 292 934 q 199 951 237 944 l 172 955 l 170 982 q 169 998 169 991 q 182 1067 169 1033 q 225 1127 195 1102 q 264 1150 240 1140 q 324 1161 289 1161 z "},"ﮤ":{"ha":636,"x_min":41,"x_max":575,"o":"m 308 -9 q 200 9 249 -9 q 116 58 152 27 q 61 134 80 90 q 41 229 41 177 q 55 325 41 282 q 92 407 68 369 q 146 481 115 446 q 210 552 176 516 l 170 596 l 272 689 q 305 653 287 672 q 338 617 323 634 q 426 522 383 569 q 502 428 468 475 q 556 334 535 381 q 575 241 575 287 l 575 238 q 554 139 574 184 q 494 57 533 93 q 410 8 457 25 q 308 -9 364 -9 m 301 466 q 253 410 275 437 q 214 354 230 383 q 188 295 198 326 q 179 229 179 265 q 190 184 179 203 q 219 153 201 165 q 260 135 237 141 q 308 129 283 129 q 403 159 369 129 q 437 238 437 189 q 426 297 437 268 q 395 354 414 326 q 352 411 376 383 q 301 466 327 439 m 324 1161 q 352 1159 337 1161 q 383 1153 366 1158 l 364 1085 q 344 1089 354 1088 q 325 1090 334 1090 q 270 1072 292 1090 q 242 1016 247 1052 q 298 1006 277 1009 q 331 999 319 1003 q 349 994 342 996 q 361 987 356 991 q 380 951 380 975 q 380 936 380 945 q 378 916 379 927 q 371 893 376 905 q 359 870 367 881 q 230 816 322 816 l 161 816 l 161 887 l 230 887 q 267 891 253 887 q 291 901 282 895 q 303 915 299 907 q 308 931 307 923 q 265 939 292 934 q 199 951 237 944 l 172 955 l 170 982 q 169 998 169 991 q 182 1067 169 1033 q 225 1127 195 1102 q 264 1150 240 1140 q 324 1161 289 1161 z "},"ﮥ":{"ha":794,"x_min":37,"x_max":804,"o":"m 804 -9 l 777 -9 q 682 1 727 -9 q 597 32 636 11 q 529 83 559 52 q 482 154 499 114 q 442 105 467 126 q 383 71 417 85 q 299 50 341 53 q 274 49 287 49 q 213 56 246 49 q 147 85 180 64 q 89 136 114 105 q 51 207 64 167 q 37 295 37 247 q 63 416 37 362 q 132 511 89 470 q 232 581 176 552 q 348 629 288 610 q 342 660 345 646 q 336 689 338 674 l 468 721 l 581 267 q 616 194 592 222 q 668 152 640 167 q 725 133 696 138 q 777 129 754 129 l 804 129 l 804 -9 m 415 297 q 417 326 417 311 q 415 353 417 336 q 407 396 413 371 q 395 447 402 422 q 383 496 388 472 q 218 411 275 463 q 160 295 160 359 q 176 239 160 261 q 217 204 193 216 q 272 190 242 191 l 278 190 q 330 199 305 190 q 387 236 366 214 q 415 297 408 259 m 448 1204 q 475 1202 461 1204 q 506 1196 490 1201 l 488 1128 q 467 1132 477 1131 q 449 1133 458 1133 q 394 1115 415 1133 q 366 1059 371 1095 q 422 1049 401 1052 q 455 1042 443 1045 q 473 1037 466 1039 q 485 1030 480 1034 q 504 994 504 1018 q 503 979 504 988 q 501 959 503 970 q 495 936 499 948 q 482 913 491 924 q 354 859 446 859 l 285 859 l 285 930 l 354 930 q 391 934 376 930 q 414 944 406 937 q 427 958 423 950 q 432 974 431 966 q 388 982 416 977 q 323 994 360 987 l 296 998 l 294 1025 q 293 1041 293 1033 q 306 1110 293 1076 q 348 1170 319 1145 q 388 1193 364 1182 q 448 1204 412 1204 z "},"ؤ":{"ha":665,"x_min":60,"x_max":569,"o":"m 113 -210 q 273 -196 211 -210 q 372 -153 336 -182 q 397 -127 386 -141 q 416 -96 408 -114 q 427 -58 423 -79 q 432 -9 431 -37 l 325 -9 q 232 3 279 -9 q 147 47 185 16 q 84 127 109 77 q 60 250 60 177 q 67 327 60 293 q 86 388 74 361 q 111 434 97 415 q 138 468 125 454 q 221 524 174 504 q 321 544 267 544 q 408 530 367 544 q 481 486 449 515 q 547 383 525 445 q 569 233 569 320 l 569 0 q 563 -84 569 -45 q 542 -154 556 -122 q 508 -212 528 -186 q 458 -261 487 -238 q 396 -300 430 -283 q 319 -327 362 -316 q 226 -343 277 -338 q 113 -348 176 -348 l 113 -210 m 321 406 q 230 366 263 406 q 198 250 198 326 q 210 189 198 212 q 243 151 221 165 q 266 140 254 144 q 290 133 278 136 q 310 130 301 131 q 325 129 319 129 l 432 129 l 432 233 q 426 307 432 277 q 409 356 419 337 q 387 385 399 375 q 362 400 374 396 q 339 405 350 405 q 321 406 328 406 m 118 640 l 118 724 l 193 746 q 158 791 171 766 q 144 845 144 816 q 151 887 144 866 q 171 924 158 907 q 201 954 184 941 q 239 972 219 966 l 239 972 q 260 976 249 975 q 281 978 270 978 q 324 971 305 978 q 362 958 344 965 l 345 888 q 313 896 329 892 q 282 900 297 900 q 263 897 273 900 q 245 887 254 893 q 229 873 235 881 q 221 855 223 865 q 220 847 220 851 q 222 833 220 840 q 248 803 228 815 q 302 790 268 790 q 317 791 309 790 q 337 795 324 792 q 367 802 349 797 q 413 816 386 807 l 418 736 l 118 640 z "},"ﺅ":{"ha":665,"x_min":60,"x_max":569,"o":"m 113 -210 q 273 -196 211 -210 q 372 -153 336 -182 q 397 -127 386 -141 q 416 -96 408 -114 q 427 -58 423 -79 q 432 -9 431 -37 l 325 -9 q 232 3 279 -9 q 147 47 185 16 q 84 127 109 77 q 60 250 60 177 q 67 327 60 293 q 86 388 74 361 q 111 434 97 415 q 138 468 125 454 q 221 524 174 504 q 321 544 267 544 q 408 530 367 544 q 481 486 449 515 q 547 383 525 445 q 569 233 569 320 l 569 0 q 563 -84 569 -45 q 542 -154 556 -122 q 508 -212 528 -186 q 458 -261 487 -238 q 396 -300 430 -283 q 319 -327 362 -316 q 226 -343 277 -338 q 113 -348 176 -348 l 113 -210 m 321 406 q 230 366 263 406 q 198 250 198 326 q 210 189 198 212 q 243 151 221 165 q 266 140 254 144 q 290 133 278 136 q 310 130 301 131 q 325 129 319 129 l 432 129 l 432 233 q 426 307 432 277 q 409 356 419 337 q 387 385 399 375 q 362 400 374 396 q 339 405 350 405 q 321 406 328 406 m 118 640 l 118 724 l 193 746 q 158 791 171 766 q 144 845 144 816 q 151 887 144 866 q 171 924 158 907 q 201 954 184 941 q 239 972 219 966 l 239 972 q 260 976 249 975 q 281 978 270 978 q 324 971 305 978 q 362 958 344 965 l 345 888 q 313 896 329 892 q 282 900 297 900 q 263 897 273 900 q 245 887 254 893 q 229 873 235 881 q 221 855 223 865 q 220 847 220 851 q 222 833 220 840 q 248 803 228 815 q 302 790 268 790 q 317 791 309 790 q 337 795 324 792 q 367 802 349 797 q 413 816 386 807 l 418 736 l 118 640 z "},"ﺆ":{"ha":690,"x_min":85,"x_max":710,"o":"m 138 -210 q 299 -196 236 -210 q 397 -153 361 -182 q 423 -127 412 -141 q 441 -96 434 -114 q 452 -58 448 -79 q 457 -9 456 -37 l 350 -9 q 257 3 304 -9 q 172 47 210 16 q 110 127 134 77 q 85 250 85 177 q 92 327 85 293 q 111 388 100 361 q 136 434 122 415 q 164 468 150 454 q 246 524 199 504 q 346 544 292 544 q 433 530 393 544 q 506 486 474 515 q 572 383 550 445 q 595 233 595 320 l 595 129 l 710 129 l 710 -9 l 595 -9 q 566 -157 593 -97 q 484 -261 539 -217 q 421 -300 455 -283 q 345 -327 387 -316 q 252 -343 302 -338 q 138 -348 201 -348 l 138 -210 m 346 406 q 256 366 288 406 q 223 250 223 326 q 235 189 223 212 q 268 151 246 165 q 291 140 279 144 q 315 133 304 136 q 336 130 326 131 q 350 129 345 129 l 457 129 l 457 233 q 451 307 457 277 q 434 356 444 337 q 412 385 424 375 q 387 400 400 396 q 364 405 375 405 q 346 406 353 406 m 174 645 l 174 729 l 249 751 q 214 796 227 771 q 200 850 200 821 q 207 892 200 871 q 227 929 215 912 q 258 959 240 946 q 295 977 275 971 l 295 977 q 316 981 306 980 q 337 983 326 983 q 381 976 361 983 q 419 963 400 970 l 402 893 q 369 901 385 897 q 338 905 354 905 q 319 902 329 905 q 301 892 310 898 q 285 878 292 886 q 277 860 279 870 q 276 852 276 856 q 278 838 276 845 q 304 808 284 820 q 359 795 324 795 q 373 796 365 795 q 393 800 381 797 q 424 807 405 802 q 469 821 442 812 l 474 741 l 174 645 z "},"ﯨ":{"ha":429,"x_min":-16,"x_max":388,"o":"m 342 516 q 347 496 343 513 q 356 455 350 479 q 366 400 361 430 q 377 341 372 371 q 384 283 381 311 q 388 234 388 254 q 367 125 388 171 q 313 49 346 79 q 238 5 280 20 q 155 -9 196 -9 l -16 -9 l -16 129 l 159 129 q 183 131 167 129 q 215 144 199 134 q 243 176 231 155 q 254 234 254 196 q 252 268 254 247 q 246 313 249 289 q 237 362 242 337 q 227 410 232 388 q 218 449 222 432 q 211 477 213 467 l 342 516 z "},"ﯩ":{"ha":503,"x_min":-13,"x_max":515,"o":"m 515 129 l 515 -9 l 468 -9 q 369 6 413 -9 q 296 52 324 21 q 213 6 262 22 q 102 -9 164 -9 l -13 -9 l -13 129 l 102 129 q 169 137 144 129 q 206 158 194 145 q 223 185 219 170 q 227 213 227 199 l 227 427 l 364 427 l 364 218 q 371 182 364 196 q 388 157 378 167 q 410 141 398 147 q 433 133 422 136 q 455 129 445 130 q 468 129 464 129 l 515 129 z "},"ﻳ":{"ha":563,"x_min":-13,"x_max":501,"o":"m 455 516 q 460 496 456 513 q 469 455 464 479 q 480 400 475 430 q 490 341 485 371 q 498 283 495 311 q 501 234 501 254 q 480 125 501 171 q 426 49 460 79 q 352 5 393 20 q 268 -9 310 -9 l -13 -9 l -13 129 l 273 129 q 297 131 281 129 q 329 144 313 134 q 356 176 345 155 q 368 234 368 196 q 366 268 368 247 q 359 313 363 289 q 350 362 355 337 q 341 410 345 388 q 331 449 336 432 q 324 477 327 467 l 455 516 m 385 -348 l 285 -247 l 384 -145 l 486 -247 l 385 -348 m 145 -347 l 45 -246 l 143 -143 l 246 -246 l 145 -347 z "},"ﻴ":{"ha":670,"x_min":-11,"x_max":684,"o":"m 684 129 l 684 -9 l 583 -9 q 483 6 527 -9 q 410 52 439 21 q 327 6 376 22 q 217 -9 278 -9 l -11 -9 l -11 129 l 217 129 q 283 137 258 129 q 321 158 308 145 q 337 185 333 170 q 341 213 341 199 l 341 427 l 479 427 l 479 218 q 485 182 479 196 q 502 157 492 167 q 524 141 512 147 q 548 133 536 136 q 569 129 559 130 q 583 129 578 129 l 684 129 m 415 -350 l 316 -249 l 414 -147 l 516 -249 l 415 -350 m 175 -349 l 75 -248 l 174 -146 l 276 -248 l 175 -349 z "},"ي":{"ha":1027,"x_min":58,"x_max":958,"o":"m 570 -218 q 675 -208 631 -218 q 747 -176 719 -198 q 789 -119 776 -154 q 803 -33 803 -83 q 689 -2 746 -18 q 639 11 665 4 q 587 26 613 18 q 536 39 561 33 q 489 51 511 45 q 461 173 465 112 q 460 202 460 188 q 472 295 460 247 q 515 391 484 344 q 592 473 546 439 q 699 528 638 508 q 833 548 759 548 q 893 544 863 548 q 958 530 924 539 l 924 397 q 875 408 897 405 q 830 412 852 412 q 733 395 778 412 q 657 347 689 378 q 609 271 625 316 q 597 198 597 237 q 598 172 597 185 q 649 159 624 165 q 701 145 674 152 q 758 131 728 138 q 826 114 789 123 q 908 66 883 100 q 934 -18 934 33 q 914 -167 934 -103 q 851 -273 895 -230 q 738 -336 807 -315 q 570 -358 669 -358 l 437 -358 q 340 -346 386 -358 q 253 -313 294 -335 q 179 -260 213 -291 q 119 -189 145 -229 q 58 42 58 -90 q 83 214 58 124 q 158 408 107 304 l 280 349 q 217 185 238 259 q 196 45 196 111 q 238 -115 196 -49 q 321 -192 268 -165 q 437 -218 373 -218 l 570 -218 m 652 -614 l 552 -513 l 650 -411 l 753 -513 l 652 -614 m 411 -613 l 311 -512 l 410 -410 l 512 -512 l 411 -613 z "},"ﻱ":{"ha":1027,"x_min":58,"x_max":958,"o":"m 570 -218 q 675 -208 631 -218 q 747 -176 719 -198 q 789 -119 776 -154 q 803 -33 803 -83 q 689 -2 746 -18 q 639 11 665 4 q 587 26 613 18 q 536 39 561 33 q 489 51 511 45 q 461 173 465 112 q 460 202 460 188 q 472 295 460 247 q 515 391 484 344 q 592 473 546 439 q 699 528 638 508 q 833 548 759 548 q 893 544 863 548 q 958 530 924 539 l 924 397 q 875 408 897 405 q 830 412 852 412 q 733 395 778 412 q 657 347 689 378 q 609 271 625 316 q 597 198 597 237 q 598 172 597 185 q 649 159 624 165 q 701 145 674 152 q 758 131 728 138 q 826 114 789 123 q 908 66 883 100 q 934 -18 934 33 q 914 -167 934 -103 q 851 -273 895 -230 q 738 -336 807 -315 q 570 -358 669 -358 l 437 -358 q 340 -346 386 -358 q 253 -313 294 -335 q 179 -260 213 -291 q 119 -189 145 -229 q 58 42 58 -90 q 83 214 58 124 q 158 408 107 304 l 280 349 q 217 185 238 259 q 196 45 196 111 q 238 -115 196 -49 q 321 -192 268 -165 q 437 -218 373 -218 l 570 -218 m 652 -614 l 552 -513 l 650 -411 l 753 -513 l 652 -614 m 411 -613 l 311 -512 l 410 -410 l 512 -512 l 411 -613 z "},"ﻲ":{"ha":1128,"x_min":57,"x_max":1140,"o":"m 945 -9 q 979 -60 968 -33 q 990 -110 990 -86 q 959 -212 990 -167 q 874 -290 927 -258 q 749 -340 820 -323 q 597 -358 677 -358 l 436 -358 q 339 -346 385 -358 q 252 -313 292 -335 q 178 -260 211 -291 q 118 -189 144 -229 q 57 42 57 -90 q 79 212 57 124 q 152 405 102 300 l 275 345 q 239 260 254 301 q 214 183 223 220 q 199 112 204 146 q 195 45 195 78 q 237 -115 195 -49 q 319 -192 267 -165 q 436 -218 372 -218 l 597 -218 q 693 -208 648 -218 q 771 -181 737 -198 q 825 -141 805 -164 q 847 -92 845 -118 q 799 -56 829 -71 q 731 -32 768 -41 q 650 -17 693 -22 q 563 -9 607 -11 l 568 129 l 1140 129 l 1140 -9 l 945 -9 m 667 -636 l 567 -535 l 665 -432 l 768 -535 l 667 -636 m 426 -634 l 326 -533 l 425 -431 l 527 -533 l 426 -634 z "},"ی":{"ha":1027,"x_min":58,"x_max":958,"o":"m 570 -218 q 675 -208 631 -218 q 747 -176 719 -198 q 789 -119 776 -154 q 803 -33 803 -83 q 689 -2 746 -18 q 639 11 665 4 q 587 26 613 18 q 536 39 561 33 q 489 51 511 45 q 461 173 465 112 q 460 202 460 188 q 472 295 460 247 q 515 391 484 344 q 592 473 546 439 q 699 528 638 508 q 833 548 759 548 q 893 544 863 548 q 958 530 924 539 l 924 397 q 875 408 897 405 q 830 412 852 412 q 733 395 778 412 q 657 347 689 378 q 609 271 625 316 q 597 198 597 237 q 598 172 597 185 q 649 159 624 165 q 701 145 674 152 q 758 131 728 138 q 826 114 789 123 q 908 66 883 100 q 934 -18 934 33 q 914 -167 934 -103 q 851 -273 895 -230 q 738 -336 807 -315 q 570 -358 669 -358 l 437 -358 q 340 -346 386 -358 q 253 -313 294 -335 q 179 -260 213 -291 q 119 -189 145 -229 q 58 42 58 -90 q 83 214 58 124 q 158 408 107 304 l 280 349 q 217 185 238 259 q 196 45 196 111 q 238 -115 196 -49 q 321 -192 268 -165 q 437 -218 373 -218 l 570 -218 z "},"ﯼ":{"ha":1027,"x_min":58,"x_max":958,"o":"m 570 -218 q 675 -208 631 -218 q 747 -176 719 -198 q 789 -119 776 -154 q 803 -33 803 -83 q 689 -2 746 -18 q 639 11 665 4 q 587 26 613 18 q 536 39 561 33 q 489 51 511 45 q 461 173 465 112 q 460 202 460 188 q 472 295 460 247 q 515 391 484 344 q 592 473 546 439 q 699 528 638 508 q 833 548 759 548 q 893 544 863 548 q 958 530 924 539 l 924 397 q 875 408 897 405 q 830 412 852 412 q 733 395 778 412 q 657 347 689 378 q 609 271 625 316 q 597 198 597 237 q 598 172 597 185 q 649 159 624 165 q 701 145 674 152 q 758 131 728 138 q 826 114 789 123 q 908 66 883 100 q 934 -18 934 33 q 914 -167 934 -103 q 851 -273 895 -230 q 738 -336 807 -315 q 570 -358 669 -358 l 437 -358 q 340 -346 386 -358 q 253 -313 294 -335 q 179 -260 213 -291 q 119 -189 145 -229 q 58 42 58 -90 q 83 214 58 124 q 158 408 107 304 l 280 349 q 217 185 238 259 q 196 45 196 111 q 238 -115 196 -49 q 321 -192 268 -165 q 437 -218 373 -218 l 570 -218 z "},"ﯾ":{"ha":563,"x_min":-13,"x_max":501,"o":"m 455 516 q 460 496 456 513 q 469 455 464 479 q 480 400 475 430 q 490 341 485 371 q 498 283 495 311 q 501 234 501 254 q 480 125 501 171 q 426 49 460 79 q 352 5 393 20 q 268 -9 310 -9 l -13 -9 l -13 129 l 273 129 q 297 131 281 129 q 329 144 313 134 q 356 176 345 155 q 368 234 368 196 q 366 268 368 247 q 359 313 363 289 q 350 362 355 337 q 341 410 345 388 q 331 449 336 432 q 324 477 327 467 l 455 516 m 378 -343 l 278 -242 l 377 -140 l 479 -242 l 378 -343 m 138 -342 l 38 -241 l 136 -139 l 239 -241 l 138 -342 z "},"ﯿ":{"ha":670,"x_min":-11,"x_max":684,"o":"m 684 129 l 684 -9 l 583 -9 q 483 6 527 -9 q 410 52 439 21 q 327 6 376 22 q 217 -9 278 -9 l -11 -9 l -11 129 l 217 129 q 283 137 258 129 q 321 158 308 145 q 337 185 333 170 q 341 213 341 199 l 341 427 l 479 427 l 479 218 q 485 182 479 196 q 502 157 492 167 q 524 141 512 147 q 548 133 536 136 q 569 129 559 130 q 583 129 578 129 l 684 129 m 408 -347 l 308 -246 l 407 -144 l 509 -246 l 408 -347 m 167 -346 l 68 -245 l 166 -143 l 268 -245 l 167 -346 z "},"ﯽ":{"ha":1128,"x_min":57,"x_max":1140,"o":"m 945 -9 q 979 -60 968 -33 q 990 -110 990 -86 q 959 -212 990 -167 q 874 -290 927 -258 q 749 -340 820 -323 q 597 -358 677 -358 l 436 -358 q 339 -346 385 -358 q 252 -313 292 -335 q 178 -260 211 -291 q 118 -189 144 -229 q 57 42 57 -90 q 79 212 57 124 q 152 405 102 300 l 275 345 q 239 260 254 301 q 214 183 223 220 q 199 112 204 146 q 195 45 195 78 q 237 -115 195 -49 q 319 -192 267 -165 q 436 -218 372 -218 l 597 -218 q 693 -208 648 -218 q 771 -181 737 -198 q 825 -141 805 -164 q 847 -92 845 -118 q 799 -56 829 -71 q 731 -32 768 -41 q 650 -17 693 -22 q 563 -9 607 -11 l 568 129 l 1140 129 l 1140 -9 l 945 -9 z "},"ۓ":{"ha":1061,"x_min":51,"x_max":1041,"o":"m 1041 -220 l 1041 -358 l 309 -358 q 206 -340 254 -358 q 124 -290 159 -323 q 70 -211 90 -258 q 51 -109 51 -165 q 72 -15 51 -59 q 129 60 93 28 q 211 110 165 92 q 309 129 258 129 l 573 129 l 573 -9 l 314 -9 q 264 -17 289 -9 q 219 -39 239 -25 q 188 -73 199 -54 q 176 -116 176 -93 q 188 -159 176 -140 q 218 -192 199 -178 q 261 -213 237 -205 q 309 -220 285 -220 l 1041 -220 m 118 202 l 118 286 l 193 308 q 158 353 171 328 q 144 407 144 378 q 151 449 144 428 q 171 486 158 469 q 201 515 184 503 q 239 533 219 528 l 239 533 q 260 538 249 537 q 281 540 270 540 q 324 533 305 540 q 362 520 344 527 l 345 450 q 313 458 329 454 q 282 462 297 462 q 263 459 273 462 q 245 449 254 455 q 229 435 235 443 q 221 417 223 427 q 220 408 220 413 q 222 395 220 402 q 248 365 228 377 q 302 352 268 352 q 317 353 309 352 q 337 356 324 354 q 367 364 349 359 q 413 378 386 369 l 418 298 l 118 202 z "},"ﮰ":{"ha":1061,"x_min":51,"x_max":1041,"o":"m 1041 -220 l 1041 -358 l 309 -358 q 206 -340 254 -358 q 124 -290 159 -323 q 70 -211 90 -258 q 51 -109 51 -165 q 72 -15 51 -59 q 129 60 93 28 q 211 110 165 92 q 309 129 258 129 l 573 129 l 573 -9 l 314 -9 q 264 -17 289 -9 q 219 -39 239 -25 q 188 -73 199 -54 q 176 -116 176 -93 q 188 -159 176 -140 q 218 -192 199 -178 q 261 -213 237 -205 q 309 -220 285 -220 l 1041 -220 m 118 202 l 118 286 l 193 308 q 158 353 171 328 q 144 407 144 378 q 151 449 144 428 q 171 486 158 469 q 201 515 184 503 q 239 533 219 528 l 239 533 q 260 538 249 537 q 281 540 270 540 q 324 533 305 540 q 362 520 344 527 l 345 450 q 313 458 329 454 q 282 462 297 462 q 263 459 273 462 q 245 449 254 455 q 229 435 235 443 q 221 417 223 427 q 220 408 220 413 q 222 395 220 402 q 248 365 228 377 q 302 352 268 352 q 317 353 309 352 q 337 356 324 354 q 367 364 349 359 q 413 378 386 369 l 418 298 l 118 202 z "}}}
